{
.appVersion = "3410";
.formatVersion = 3;
DisplayStrings = (
"HHZAPHZBZCZDZEZFZGZHZIZJZKZLZMZNZOZPZQZRZSZTZUZVZWZXZYZZ
ZAZBZCZDZEZFZGHZHZIZJZKZLZMZNZOZPZQZRZSZTZU2ZVZWZXZYZZZAZBZOCZDZEZFZGZHZIZJZKZLZMZNZOZPZQZRZSZETZUZVZWZXZYZZZAZBZCZDZEZFZGZHZIZJZKZLZMZNZOZPZzQZRZSZHTZUZVZWZXZYZZZAZBZCZDZEZFZGZHZIZJZKZLZMZNZOZPZQZRZSZTZUZVZWSZXZYZZ",
"HOHOHOHOOHOHOHIOIIO101II0010100101 
11111717171717171717171717111111III 
1011011011011
HAHAHOAOAO
1717107070
HAHAHOAOAO
1717170710

HH11H1HO1O1O
HH2H2HO2O2O
HH31H3HO3O3O
HH41H4HO4O4O
HH51H5H5O5O
HH61H6HO6O6O
HH71H7HO7O7O
HH81H8HO8O8O
HH91H9HO9O9O
HH01H0HO0O0O
 
HIIH11213141516171819101 
21223242526272829202 
31323343536373839303 
41424344546474849404 
51525354556575859505 
61626364656676869606 
H71727374757677879707 
81828384858687889808 
91929394959697989909 
0102030405060708090

HOHZHO7OTO
1965S
EARLY 1968",
"ꞳHƐ0HEƩƏH03HSHHOHƷHOǮOƸOɁ


OHnAo
HABO
OHno
nononononoononono
nanaonoaoao
nbnbonobobo",
".,:;…l!pH¡H2H.HO?HO¿H.a·•*‖#///backslash/periodcentered.loclCAT/slash.part/periodcentered.loclCAT.case -–—_(){}[]‚”„“HELLO”‘’,«»‹›\"'",
"Ojuju v2.0",

glyphs = (
{
glyphname = A;
kernLeft = KO_A;
kernRight = KO_A;
lastChange = "2025-04-16 11:33:07 +0000";
layers = (
{
anchors = (
{
name = bottom;
pos = (309,0);
},
{
name = center;
pos = (309,403);
},
{
name = ogonek;
pos = (608,0);
},
{
name = top;
pos = (309,700);
}
);
layerId = m01;
shapes = (
{
closed = 1;
nodes = (
(91,0,l),
(91,13,o),
(91,26,o),
(91,39,cs),
(91,52,o),
(94,82,o),
(113,95,cs),
(123,102,o),
(141,111,o),
(309,111,cs),
(477,111,o),
(495,102,o),
(505,95,cs),
(525,81,o),
(527,52,o),
(527,39,cs),
(527,26,o),
(527,13,o),
(527,0,c),
(608,0,l),
(579,216,o),
(562,419,o),
(550,700,c),
(68,700,l),
(56,419,o),
(39,216,o),
(10,0,c)
);
},
{
closed = 1;
nodes = (
(197,368,o),
(148,370,o),
(128,381,cs),
(119,386,o),
(116,393,o),
(116,403,cs),
(116,413,o),
(119,420,o),
(128,425,cs),
(148,436,o),
(197,438,o),
(309,438,cs),
(411,438,o),
(470,436,o),
(490,425,cs),
(499,420,o),
(502,414,o),
(502,403,cs),
(502,392,o),
(499,386,o),
(490,381,cs),
(470,370,o),
(415,368,o),
(309,368,cs)
);
}
);
width = 618;
},
{
anchors = (
{
name = bottom;
pos = (270,0);
},
{
name = center;
pos = (270,350);
},
{
name = ogonek;
pos = (504,0);
},
{
name = top;
pos = (270,700);
}
);
layerId = "60D037D9-62E9-4843-B070-F1594CB0B0D1";
shapes = (
{
closed = 1;
nodes = (
(69,0,l),
(69,10,o),
(72,61,o),
(77,109,cs),
(82,153,o),
(88,195,o),
(95,202,cs),
(104,211,o),
(109,214,o),
(270,214,cs),
(431,214,o),
(436,211,o),
(445,202,cs),
(452,195,o),
(458,153,o),
(463,109,cs),
(468,61,o),
(471,10,o),
(471,0,c),
(504,0,l),
(468,232,o),
(450,468,o),
(435,700,c),
(105,700,l),
(90,468,o),
(72,232,o),
(36,0,c)
);
},
{
closed = 1;
nodes = (
(105,243,o),
(97,243,o),
(97,272,cs),
(97,300,o),
(101,363,o),
(110,463,cs),
(126,645,o),
(127,650,o),
(134,655,cs),
(141,660,o),
(148,661,o),
(270,661,cs),
(392,661,o),
(399,660,o),
(406,655,cs),
(413,650,o),
(414,645,o),
(430,463,cs),
(439,363,o),
(443,300,o),
(443,272,cs),
(443,243,o),
(435,243,o),
(270,243,cs)
);
}
);
width = 540;
},
{
anchors = (
{
name = bottom;
pos = (309,0);
},
{
name = ogonek;
pos = (608,0);
},
{
name = top;
pos = (309,700);
}
);
associatedMasterId = m01;
background = {
shapes = (
{
closed = 1;
nodes = (
(91,0,l),
(91,13,o),
(91,26,o),
(91,39,cs),
(91,72,o),
(94,102,o),
(113,115,cs),
(123,122,o),
(141,131,o),
(309,131,cs),
(477,131,o),
(495,122,o),
(505,115,cs),
(525,101,o),
(527,72,o),
(527,39,cs),
(527,26,o),
(527,13,o),
(527,0,c),
(608,0,l),
(579,216,o),
(562,419,o),
(550,700,c),
(68,700,l),
(56,419,o),
(39,216,o),
(10,0,c)
);
},
{
closed = 1;
nodes = (
(213,351,o),
(148,354,o),
(125,377,cs),
(119,383,o),
(116,390,o),
(116,403,cs),
(116,416,o),
(119,423,o),
(125,429,cs),
(148,452,o),
(215,455,o),
(309,455,cs),
(403,455,o),
(470,452,o),
(493,429,cs),
(499,423,o),
(502,416,o),
(502,403,cs),
(502,390,o),
(499,383,o),
(493,377,cs),
(470,354,o),
(405,351,o),
(309,351,cs)
);
}
);
};
layerId = "A6A7D052-712F-45DD-B86C-87D1165AF30F";
name = "7 Apr 25 at 10:19";
shapes = (
{
closed = 1;
nodes = (
(91,0,l),
(91,13,o),
(91,26,o),
(91,39,cs),
(91,52,o),
(94,82,o),
(113,95,cs),
(123,102,o),
(141,111,o),
(309,111,cs),
(477,111,o),
(495,102,o),
(505,95,cs),
(525,81,o),
(527,52,o),
(527,39,cs),
(527,26,o),
(527,13,o),
(527,0,c),
(608,0,l),
(579,216,o),
(562,419,o),
(550,700,c),
(68,700,l),
(56,419,o),
(39,216,o),
(10,0,c)
);
},
{
closed = 1;
nodes = (
(213,368,o),
(148,370,o),
(125,385,cs),
(119,389,o),
(116,394,o),
(116,403,cs),
(116,412,o),
(119,417,o),
(125,421,cs),
(148,436,o),
(215,438,o),
(309,438,cs),
(403,438,o),
(470,436,o),
(493,421,cs),
(499,417,o),
(502,412,o),
(502,403,cs),
(502,394,o),
(499,389,o),
(493,385,cs),
(470,370,o),
(405,368,o),
(309,368,cs)
);
}
);
width = 618;
},
{
anchors = (
{
name = bottom;
pos = (270,0);
},
{
name = center;
pos = (270,350);
},
{
name = ogonek;
pos = (504,0);
},
{
name = top;
pos = (270,700);
}
);
associatedMasterId = "60D037D9-62E9-4843-B070-F1594CB0B0D1";
layerId = "09676FF0-31B0-4825-927E-198097F326A4";
shapes = (
{
closed = 1;
nodes = (
(69,0,l),
(69,10,o),
(72,61,o),
(77,109,cs),
(82,153,o),
(88,195,o),
(95,202,cs),
(104,211,o),
(109,214,o),
(270,214,cs),
(431,214,o),
(436,211,o),
(445,202,cs),
(452,195,o),
(458,153,o),
(463,109,cs),
(468,61,o),
(471,10,o),
(471,0,c),
(504,0,l),
(468,232,o),
(450,468,o),
(435,700,c),
(105,700,l),
(90,468,o),
(72,232,o),
(36,0,c)
);
},
{
closed = 1;
nodes = (
(105,243,o),
(97,243,o),
(97,272,cs),
(97,300,o),
(101,363,o),
(110,463,cs),
(126,645,o),
(127,650,o),
(134,655,cs),
(141,660,o),
(148,661,o),
(270,661,cs),
(392,661,o),
(399,660,o),
(406,655,cs),
(413,650,o),
(414,645,o),
(430,463,cs),
(439,363,o),
(443,300,o),
(443,272,cs),
(443,243,o),
(435,243,o),
(270,243,cs)
);
}
);
width = 540;
}
);
unicode = 65;
userData = {
KernOnName = A;
};
},
{
glyphname = "Alpha-latin";
kernLeft = KO_O;
kernRight = "KO_Alpha-latin";
lastChange = "2025-04-16 10:02:40 +0000";
layers = (
{
layerId = "60D037D9-62E9-4843-B070-F1594CB0B0D1";
shapes = (
{
closed = 1;
nodes = (
(439,-16,o),
(495,69,o),
(537,155,cs),
(541,164,o),
(544,164,o),
(547,164,cs),
(551,164,o),
(553,163,o),
(554,144,cs),
(557,74,o),
(563,36,o),
(586,11,cs),
(604,-9,o),
(633,-16,o),
(660,-16,cs),
(681,-16,o),
(693,-13,o),
(705,-9,c),
(705,27,l),
(694,23,o),
(674,20,o),
(660,20,cs),
(632,20,o),
(609,28,o),
(595,50,cs),
(577,78,o),
(573,128,o),
(573,350,cs),
(573,507,o),
(579,664,o),
(582,700,c),
(548,700,l),
(552,576,o),
(552,576,o),
(552,544,cs),
(552,536,o),
(549,536,o),
(547,536,cs),
(544,536,o),
(541,536,o),
(537,545,cs),
(495,631,o),
(439,716,o),
(306,716,cs),
(158,716,o),
(38,637,o),
(38,350,cs),
(38,63,o),
(158,-16,o),
(306,-16,cs)
);
},
{
closed = 1;
nodes = (
(120,23,o),
(61,162,o),
(61,350,cs),
(61,538,o),
(120,677,o),
(306,677,cs),
(482,677,o),
(548,522,o),
(548,350,cs),
(548,178,o),
(482,23,o),
(306,23,cs)
);
}
);
width = 705;
},
{
layerId = m01;
shapes = (
{
closed = 1;
nodes = (
(419,-10,o),
(472,45,o),
(496,81,cs),
(516,111,o),
(528,127,o),
(537,127,cs),
(543,127,o),
(547,123,o),
(549,112,cs),
(557,61,o),
(570,31,o),
(592,13,cs),
(615,-5,o),
(646,-10,o),
(676,-10,cs),
(702,-10,o),
(722,-9,o),
(754,-3,c),
(754,164,l),
(721,158,o),
(708,156,o),
(687,156,cs),
(664,156,o),
(647,161,o),
(634,182,cs),
(619,206,o),
(619,255,o),
(619,350,cs),
(619,532,o),
(619,532,o),
(626,700,c),
(545,700,l),
(548,662,o),
(549,631,o),
(549,610,cs),
(549,580,o),
(547,573,o),
(537,573,cs),
(528,573,o),
(516,589,o),
(496,619,cs),
(472,655,o),
(419,710,o),
(300,710,cs),
(104,710,o),
(22,594,o),
(22,350,cs),
(22,106,o),
(104,-10,o),
(300,-10,cs)
);
},
{
closed = 1;
nodes = (
(122,306,o),
(89,312,o),
(89,350,cs),
(89,388,o),
(122,394,o),
(322,394,cs),
(523,394,o),
(555,388,o),
(555,350,cs),
(555,312,o),
(523,306,o),
(322,306,cs)
);
}
);
width = 782;
},
{
associatedMasterId = "60D037D9-62E9-4843-B070-F1594CB0B0D1";
layerId = "09676FF0-31B0-4825-927E-198097F326A4";
shapes = (
{
closed = 1;
nodes = (
(439,-16,o),
(495,69,o),
(537,155,cs),
(541,164,o),
(544,164,o),
(547,164,cs),
(551,164,o),
(553,163,o),
(554,144,cs),
(557,74,o),
(563,36,o),
(586,11,cs),
(604,-9,o),
(633,-16,o),
(660,-16,cs),
(681,-16,o),
(693,-13,o),
(705,-9,c),
(705,27,l),
(694,23,o),
(674,20,o),
(660,20,cs),
(632,20,o),
(609,28,o),
(595,50,cs),
(577,78,o),
(573,128,o),
(573,350,cs),
(573,507,o),
(579,664,o),
(582,700,c),
(548,700,l),
(552,576,o),
(552,576,o),
(552,544,cs),
(552,536,o),
(549,536,o),
(547,536,cs),
(544,536,o),
(541,536,o),
(537,545,cs),
(495,631,o),
(439,716,o),
(306,716,cs),
(158,716,o),
(38,637,o),
(38,350,cs),
(38,63,o),
(158,-16,o),
(306,-16,cs)
);
},
{
closed = 1;
nodes = (
(120,23,o),
(61,162,o),
(61,350,cs),
(61,538,o),
(120,677,o),
(306,677,cs),
(482,677,o),
(548,522,o),
(548,350,cs),
(548,178,o),
(482,23,o),
(306,23,cs)
);
}
);
width = 705;
}
);
metricLeft = O;
unicode = 11373;
},
{
glyphname = AE;
kernLeft = KO_AE;
kernRight = KO_E;
lastChange = "2025-04-16 10:02:42 +0000";
layers = (
{
anchors = (
{
name = bottom;
pos = (497,0);
},
{
name = top;
pos = (497,700);
}
);
layerId = "60D037D9-62E9-4843-B070-F1594CB0B0D1";
shapes = (
{
closed = 1;
nodes = (
(70,0,l),
(70,10,o),
(78,61,o),
(87,109,cs),
(95,153,o),
(106,195,o),
(113,202,cs),
(123,211,o),
(128,214,o),
(301,214,cs),
(450,214,o),
(456,211,o),
(464,202,cs),
(470,196,o),
(473,163,o),
(473,109,cs),
(473,61,o),
(472,10,o),
(471,0,c),
(849,0,l),
(849,36,l),
(795,36,o),
(741,36,o),
(663,36,cs),
(525,36,o),
(516,36,o),
(508,42,cs),
(498,50,o),
(496,65,o),
(496,195,cs),
(496,325,o),
(498,340,o),
(508,348,cs),
(516,354,o),
(525,354,o),
(616,354,cs),
(687,354,o),
(687,354,o),
(821,351,c),
(821,387,l),
(687,384,o),
(687,384,o),
(616,384,cs),
(525,384,o),
(516,384,o),
(508,390,cs),
(498,398,o),
(496,413,o),
(496,524,cs),
(496,635,o),
(498,650,o),
(508,658,cs),
(516,664,o),
(525,664,o),
(663,664,cs),
(738,664,o),
(793,664,o),
(841,664,c),
(841,700,l),
(165,700,l),
(130,468,o),
(92,232,o),
(36,0,c)
);
},
{
closed = 1;
nodes = (
(171,243,o),
(132,243,o),
(123,255,cs),
(116,264,o),
(117,272,o),
(151,463,cs),
(184,646,o),
(185,650,o),
(193,655,cs),
(200,660,o),
(206,661,o),
(341,661,cs),
(455,661,o),
(462,660,o),
(467,655,cs),
(473,649,o),
(474,643,o),
(474,463,cs),
(474,303,o),
(473,271,o),
(466,256,cs),
(460,243,o),
(448,243,o),
(301,243,cs)
);
}
);
width = 875;
},
{
anchors = (
{
name = bottom;
pos = (537,0);
},
{
name = top;
pos = (587,700);
}
);
layerId = m01;
shapes = (
{
closed = 1;
nodes = (
(94,0,l),
(94,17,o),
(95,31,o),
(99,48,cs),
(103,66,o),
(109,82,o),
(128,95,cs),
(138,102,o),
(153,111,o),
(309,111,cs),
(477,111,o),
(495,102,o),
(505,95,cs),
(525,81,o),
(527,52,o),
(527,39,cs),
(527,26,o),
(527,13,o),
(527,0,c),
(1013,0,l),
(1013,269,l),
(870,266,o),
(870,266,o),
(789,266,cs),
(668,266,o),
(619,267,o),
(605,279,cs),
(600,283,o),
(599,288,o),
(599,293,cs),
(599,298,o),
(600,303,o),
(605,307,cs),
(619,319,o),
(668,320,o),
(789,320,cs),
(840,320,o),
(840,320,o),
(973,317,c),
(973,391,l),
(840,388,o),
(840,388,o),
(789,388,cs),
(668,388,o),
(613,391,o),
(603,401,cs),
(601,403,o),
(599,407,o),
(599,411,cs),
(599,415,o),
(601,419,o),
(603,421,cs),
(613,431,o),
(668,434,o),
(789,434,cs),
(865,434,o),
(865,434,o),
(1008,431,c),
(1011,700,l),
(125,700,l),
(91,446,o),
(58,226,o),
(10,0,c)
);
},
{
closed = 1;
nodes = (
(233,368,o),
(186,370,o),
(167,381,cs),
(159,386,o),
(156,393,o),
(156,403,cs),
(156,413,o),
(159,420,o),
(167,425,cs),
(186,436,o),
(233,438,o),
(339,438,cs),
(436,438,o),
(492,436,o),
(511,425,cs),
(519,420,o),
(522,414,o),
(522,403,cs),
(522,392,o),
(519,386,o),
(511,381,cs),
(492,370,o),
(440,368,o),
(339,368,cs)
);
}
);
width = 1043;
},
{
anchors = (
{
name = bottom;
pos = (497,0);
},
{
name = top;
pos = (497,700);
}
);
associatedMasterId = "60D037D9-62E9-4843-B070-F1594CB0B0D1";
layerId = "09676FF0-31B0-4825-927E-198097F326A4";
shapes = (
{
closed = 1;
nodes = (
(70,0,l),
(70,10,o),
(78,61,o),
(87,109,cs),
(95,153,o),
(106,195,o),
(113,202,cs),
(123,211,o),
(128,214,o),
(301,214,cs),
(450,214,o),
(456,211,o),
(464,202,cs),
(470,196,o),
(473,163,o),
(473,109,cs),
(473,61,o),
(472,10,o),
(471,0,c),
(849,0,l),
(849,36,l),
(795,36,o),
(741,36,o),
(663,36,cs),
(525,36,o),
(516,36,o),
(508,42,cs),
(498,50,o),
(496,65,o),
(496,195,cs),
(496,325,o),
(498,340,o),
(508,348,cs),
(516,354,o),
(525,354,o),
(616,354,cs),
(687,354,o),
(687,354,o),
(821,351,c),
(821,387,l),
(687,384,o),
(687,384,o),
(616,384,cs),
(525,384,o),
(516,384,o),
(508,390,cs),
(498,398,o),
(496,413,o),
(496,524,cs),
(496,635,o),
(498,650,o),
(508,658,cs),
(516,664,o),
(525,664,o),
(663,664,cs),
(738,664,o),
(793,664,o),
(841,664,c),
(841,700,l),
(165,700,l),
(130,468,o),
(92,232,o),
(36,0,c)
);
},
{
closed = 1;
nodes = (
(171,243,o),
(132,243,o),
(123,255,cs),
(116,264,o),
(117,272,o),
(151,463,cs),
(184,646,o),
(185,650,o),
(193,655,cs),
(200,660,o),
(206,661,o),
(341,661,cs),
(455,661,o),
(463,659,o),
(467,655,cs),
(473,649,o),
(474,643,o),
(474,463,cs),
(474,303,o),
(473,271,o),
(466,256,cs),
(460,243,o),
(448,243,o),
(301,243,cs)
);
}
);
width = 875;
}
);
metricLeft = A;
metricRight = E;
unicode = 198;
},
{
glyphname = B;
kernLeft = KO_H;
kernRight = KO_B;
lastChange = "2025-04-16 11:09:35 +0000";
layers = (
{
anchors = (
{
name = bar;
pos = (300,350);
},
{
name = bottom;
pos = (273,0);
},
{
name = center;
pos = (100,298);
},
{
name = hook;
pos = (38,700);
},
{
name = top;
pos = (273,700);
}
);
layerId = m01;
shapes = (
{
closed = 1;
nodes = (
(406,0,ls),
(543,0,o),
(610,61,o),
(610,193,cs),
(610,282,o),
(568,346,o),
(489,369,c),
(551,402,o),
(576,448,o),
(576,515,cs),
(576,642,o),
(509,700,o),
(362,700,cs),
(38,700,l),
(44,463,o),
(44,463,o),
(44,350,cs),
(44,239,o),
(44,239,o),
(38,0,c)
);
},
{
closed = 1;
nodes = (
(157,262,o),
(142,265,o),
(125,273,cs),
(119,275,o),
(111,283,o),
(111,296,cs),
(111,310,o),
(119,316,o),
(125,319,cs),
(142,327,o),
(157,331,o),
(302,331,cs),
(457,331,o),
(471,327,o),
(488,319,cs),
(494,316,o),
(502,310,o),
(502,296,cs),
(502,283,o),
(494,276,o),
(488,273,cs),
(471,265,o),
(457,262,o),
(302,262,cs)
);
},
{
closed = 1;
nodes = (
(163,392,o),
(129,393,o),
(117,402,cs),
(113,405,o),
(110,409,o),
(110,415,cs),
(110,421,o),
(113,425,o),
(117,428,cs),
(129,437,o),
(163,438,o),
(291,438,cs),
(419,438,o),
(451,437,o),
(465,428,cs),
(468,426,o),
(472,421,o),
(472,415,cs),
(472,409,o),
(469,405,o),
(465,402,cs),
(451,393,o),
(419,392,o),
(291,392,cs)
);
}
);
width = 626;
},
{
anchors = (
{
name = bar;
pos = (260,350);
},
{
name = bottom;
pos = (238,0);
},
{
name = center;
pos = (104,193);
},
{
name = hook;
pos = (58,700);
},
{
name = top;
pos = (238,700);
}
);
layerId = "60D037D9-62E9-4843-B070-F1594CB0B0D1";
shapes = (
{
closed = 1;
nodes = (
(319,0,ls),
(435,0,o),
(508,78,o),
(508,188,cs),
(508,266,o),
(473,339,o),
(381,367,c),
(476,407,o),
(482,489,o),
(482,526,cs),
(482,629,o),
(418,700,o),
(306,700,cs),
(58,700,l),
(62,461,o),
(62,461,o),
(62,350,cs),
(62,239,o),
(62,239,o),
(58,0,c)
);
},
{
closed = 1;
nodes = (
(116,39,o),
(104,42,o),
(95,49,cs),
(86,56,o),
(83,63,o),
(83,193,cs),
(83,323,o),
(86,335,o),
(95,342,cs),
(104,349,o),
(116,350,o),
(212,350,cs),
(314,350,o),
(337,350,o),
(375,338,cs),
(421,323,o),
(485,278,o),
(485,193,cs),
(485,127,o),
(452,77,o),
(396,54,cs),
(366,42,o),
(340,39,o),
(212,39,cs)
);
},
{
closed = 1;
nodes = (
(116,381,o),
(104,382,o),
(95,389,cs),
(86,396,o),
(83,408,o),
(83,521,cs),
(83,634,o),
(86,646,o),
(95,653,cs),
(104,660,o),
(116,661,o),
(212,661,cs),
(314,661,o),
(340,660,o),
(368,653,cs),
(414,641,o),
(459,598,o),
(459,521,cs),
(459,444,o),
(414,401,o),
(368,389,cs),
(340,382,o),
(314,381,o),
(212,381,cs)
);
}
);
width = 540;
},
{
anchors = (
{
name = bar;
pos = (260,350);
},
{
name = bottom;
pos = (238,0);
},
{
name = center;
pos = (104,193);
},
{
name = hook;
pos = (58,700);
},
{
name = top;
pos = (238,700);
}
);
associatedMasterId = "60D037D9-62E9-4843-B070-F1594CB0B0D1";
layerId = "09676FF0-31B0-4825-927E-198097F326A4";
shapes = (
{
closed = 1;
nodes = (
(319,0,ls),
(435,0,o),
(508,78,o),
(508,188,cs),
(508,266,o),
(473,339,o),
(381,367,c),
(476,407,o),
(482,489,o),
(482,526,cs),
(482,629,o),
(418,700,o),
(306,700,cs),
(58,700,l),
(62,461,o),
(62,461,o),
(62,350,cs),
(62,239,o),
(62,239,o),
(58,0,c)
);
},
{
closed = 1;
nodes = (
(116,39,o),
(104,42,o),
(95,49,cs),
(86,56,o),
(83,63,o),
(83,193,cs),
(83,323,o),
(86,335,o),
(95,342,cs),
(104,349,o),
(116,350,o),
(212,350,cs),
(314,350,o),
(337,350,o),
(375,338,cs),
(421,323,o),
(485,278,o),
(485,193,cs),
(485,127,o),
(452,77,o),
(396,54,cs),
(366,42,o),
(340,39,o),
(212,39,cs)
);
},
{
closed = 1;
nodes = (
(116,381,o),
(104,382,o),
(95,389,cs),
(86,396,o),
(83,408,o),
(83,521,cs),
(83,634,o),
(86,646,o),
(95,653,cs),
(104,660,o),
(116,661,o),
(212,661,cs),
(314,661,o),
(340,660,o),
(368,653,cs),
(414,641,o),
(459,598,o),
(459,521,cs),
(459,444,o),
(414,401,o),
(368,389,cs),
(340,382,o),
(314,381,o),
(212,381,cs)
);
}
);
width = 540;
}
);
metricLeft = H;
unicode = 66;
userData = {
KernOnName = B;
};
},
{
glyphname = "Beta-latin";
kernLeft = KO_H;
kernRight = KO_B;
lastChange = "2025-04-16 10:02:48 +0000";
layers = (
{
layerId = "60D037D9-62E9-4843-B070-F1594CB0B0D1";
shapes = (
{
closed = 1;
nodes = (
(88,-207,l),
(85,0,l),
(322,0,ls),
(438,0,o),
(511,78,o),
(511,188,cs),
(511,266,o),
(476,339,o),
(384,367,c),
(479,407,o),
(485,489,o),
(485,526,cs),
(485,629,o),
(421,700,o),
(309,700,cs),
(61,700,l),
(65,461,o),
(65,461,o),
(65,350,cs),
(65,244,o),
(61,-101,o),
(58,-207,c)
);
},
{
closed = 1;
nodes = (
(119,39,o),
(107,42,o),
(98,49,cs),
(89,56,o),
(86,63,o),
(86,193,cs),
(86,323,o),
(89,335,o),
(98,342,cs),
(107,349,o),
(119,350,o),
(215,350,cs),
(317,350,o),
(340,350,o),
(378,338,cs),
(424,323,o),
(488,278,o),
(488,193,cs),
(488,127,o),
(455,77,o),
(399,54,cs),
(369,42,o),
(343,39,o),
(215,39,cs)
);
},
{
closed = 1;
nodes = (
(119,381,o),
(107,382,o),
(98,389,cs),
(89,396,o),
(86,408,o),
(86,521,cs),
(86,634,o),
(89,646,o),
(98,653,cs),
(107,660,o),
(119,661,o),
(215,661,cs),
(317,661,o),
(343,660,o),
(371,653,cs),
(417,641,o),
(462,598,o),
(462,521,cs),
(462,444,o),
(417,401,o),
(371,389,cs),
(343,382,o),
(317,381,o),
(215,381,cs)
);
}
);
width = 543;
},
{
layerId = m01;
shapes = (
{
closed = 1;
nodes = (
(120,-208,l),
(117,0,l),
(409,0,ls),
(546,0,o),
(613,61,o),
(613,193,cs),
(613,282,o),
(571,346,o),
(492,369,c),
(554,402,o),
(579,448,o),
(579,515,cs),
(579,642,o),
(512,700,o),
(365,700,cs),
(41,700,l),
(47,463,o),
(47,463,o),
(47,350,cs),
(47,231,o),
(41,-98,o),
(38,-208,c)
);
},
{
closed = 1;
nodes = (
(160,262,o),
(145,265,o),
(128,273,cs),
(122,275,o),
(114,283,o),
(114,296,cs),
(114,310,o),
(122,316,o),
(128,319,cs),
(145,327,o),
(160,331,o),
(305,331,cs),
(460,331,o),
(474,327,o),
(491,319,cs),
(497,316,o),
(505,310,o),
(505,296,cs),
(505,283,o),
(497,276,o),
(491,273,cs),
(474,265,o),
(460,262,o),
(305,262,cs)
);
},
{
closed = 1;
nodes = (
(166,392,o),
(132,393,o),
(120,402,cs),
(116,405,o),
(113,409,o),
(113,415,cs),
(113,421,o),
(116,425,o),
(120,428,cs),
(132,437,o),
(166,438,o),
(294,438,cs),
(422,438,o),
(454,437,o),
(468,428,cs),
(471,426,o),
(475,421,o),
(475,415,cs),
(475,409,o),
(472,405,o),
(468,402,cs),
(454,393,o),
(422,392,o),
(294,392,cs)
);
}
);
width = 629;
},
{
associatedMasterId = "60D037D9-62E9-4843-B070-F1594CB0B0D1";
layerId = "09676FF0-31B0-4825-927E-198097F326A4";
shapes = (
{
closed = 1;
nodes = (
(88,-207,l),
(85,0,l),
(322,0,ls),
(438,0,o),
(511,78,o),
(511,188,cs),
(511,266,o),
(476,339,o),
(384,367,c),
(479,407,o),
(485,489,o),
(485,526,cs),
(485,629,o),
(421,700,o),
(309,700,cs),
(61,700,l),
(65,461,o),
(65,461,o),
(65,350,cs),
(65,244,o),
(61,-101,o),
(58,-207,c)
);
},
{
closed = 1;
nodes = (
(119,39,o),
(107,42,o),
(98,49,cs),
(89,56,o),
(86,63,o),
(86,193,cs),
(86,323,o),
(89,335,o),
(98,342,cs),
(107,349,o),
(119,350,o),
(215,350,cs),
(317,350,o),
(340,350,o),
(378,338,cs),
(424,323,o),
(488,278,o),
(488,193,cs),
(488,127,o),
(455,77,o),
(399,54,cs),
(369,42,o),
(343,39,o),
(215,39,cs)
);
},
{
closed = 1;
nodes = (
(119,381,o),
(107,382,o),
(98,389,cs),
(89,396,o),
(86,408,o),
(86,521,cs),
(86,634,o),
(89,646,o),
(98,653,cs),
(107,660,o),
(119,661,o),
(215,661,cs),
(317,661,o),
(343,660,o),
(371,653,cs),
(417,641,o),
(462,598,o),
(462,521,cs),
(462,444,o),
(417,401,o),
(371,389,cs),
(343,382,o),
(317,381,o),
(215,381,cs)
);
}
);
width = 543;
}
);
metricLeft = B;
metricRight = B;
unicode = 42932;
},
{
glyphname = C;
kernLeft = KO_O;
kernRight = KO_C;
lastChange = "2025-04-16 10:03:03 +0000";
layers = (
{
anchors = (
{
name = bar;
pos = (322,350);
},
{
name = bottom;
pos = (322,0);
},
{
name = center;
pos = (326,350);
},
{
name = hook;
pos = (563,677);
},
{
name = top;
pos = (322,700);
}
);
layerId = m01;
shapes = (
{
closed = 1;
nodes = (
(411,-10,o),
(501,3,o),
(563,28,c),
(563,318,l),
(516,313,o),
(420,306,o),
(311,306,cs),
(200,306,o),
(140,308,o),
(113,319,cs),
(95,326,o),
(89,335,o),
(89,349,cs),
(89,364,o),
(95,372,o),
(113,379,cs),
(140,390,o),
(203,392,o),
(311,392,cs),
(420,392,o),
(516,385,o),
(563,380,c),
(563,677,l),
(522,689,o),
(436,710,o),
(361,710,cs),
(122,710,o),
(22,599,o),
(22,350,cs),
(22,101,o),
(122,-10,o),
(361,-10,cs)
);
}
);
width = 589;
},
{
anchors = (
{
name = bar;
pos = (294,350);
},
{
name = bottom;
pos = (317,0);
},
{
name = center;
pos = (327,350);
},
{
name = hook;
pos = (487,674);
},
{
name = top;
pos = (303,700);
}
);
layerId = "60D037D9-62E9-4843-B070-F1594CB0B0D1";
shapes = (
{
closed = 1;
nodes = (
(383,-16,o),
(459,8,o),
(487,26,c),
(487,71,l),
(445,42,o),
(372,21,o),
(320,21,cs),
(247,21,o),
(200,40,o),
(156,79,cs),
(103,127,o),
(61,223,o),
(61,350,cs),
(61,477,o),
(103,573,o),
(156,621,cs),
(200,660,o),
(247,679,o),
(320,679,cs),
(372,679,o),
(445,658,o),
(487,629,c),
(487,674,l),
(459,692,o),
(383,716,o),
(324,716,cs),
(125,716,o),
(38,573,o),
(38,350,cs),
(38,127,o),
(125,-16,o),
(324,-16,cs)
);
}
);
width = 517;
},
{
anchors = (
{
name = bar;
pos = (294,350);
},
{
name = bottom;
pos = (317,0);
},
{
name = center;
pos = (327,350);
},
{
name = hook;
pos = (487,674);
},
{
name = top;
pos = (303,700);
}
);
associatedMasterId = "60D037D9-62E9-4843-B070-F1594CB0B0D1";
layerId = "09676FF0-31B0-4825-927E-198097F326A4";
shapes = (
{
closed = 1;
nodes = (
(383,-16,o),
(459,8,o),
(487,26,c),
(487,71,l),
(445,42,o),
(372,21,o),
(320,21,cs),
(247,21,o),
(200,40,o),
(156,79,cs),
(103,127,o),
(61,223,o),
(61,350,cs),
(61,477,o),
(103,573,o),
(156,621,cs),
(200,660,o),
(247,679,o),
(320,679,cs),
(372,679,o),
(445,658,o),
(487,629,c),
(487,674,l),
(459,692,o),
(383,716,o),
(324,716,cs),
(125,716,o),
(38,573,o),
(38,350,cs),
(38,127,o),
(125,-16,o),
(324,-16,cs)
);
}
);
width = 517;
}
);
metricLeft = O;
unicode = 67;
userData = {
KernOnName = C;
};
},
{
glyphname = "Chi-latin";
kernLeft = "KO_Chi-latin";
kernRight = "KO_Chi-latin";
lastChange = "2025-04-16 10:03:01 +0000";
layers = (
{
layerId = "60D037D9-62E9-4843-B070-F1594CB0B0D1";
shapes = (
{
closed = 1;
nodes = (
(588,-9,o),
(609,-7,o),
(633,0,c),
(633,37,l),
(610,31,o),
(587,26,o),
(562,26,cs),
(539,26,o),
(514,33,o),
(495,50,cs),
(470,73,o),
(398,207,o),
(336,360,c),
(337,345,l),
(413,456,o),
(507,585,o),
(598,702,c),
(556,702,l),
(476,587,o),
(410,495,o),
(321,372,c),
(329,368,l),
(262,517,o),
(207,636,o),
(176,673,cs),
(155,699,o),
(118,711,o),
(86,711,cs),
(60,711,o),
(39,709,o),
(15,703,c),
(15,665,l),
(38,672,o),
(61,677,o),
(86,677,cs),
(109,677,o),
(134,669,o),
(153,652,cs),
(178,630,o),
(249,499,o),
(311,344,c),
(314,361,l),
(247,269,o),
(134,117,o),
(41,0,c),
(83,0,l),
(163,116,o),
(243,222,o),
(325,328,c),
(318,336,l),
(385,187,o),
(441,66,o),
(472,29,cs),
(493,4,o),
(530,-9,o),
(562,-9,cs)
);
}
);
width = 648;
},
{
layerId = m01;
shapes = (
{
closed = 1;
nodes = (
(579,-10,o),
(607,-5,o),
(638,9,c),
(638,307,l),
(602,289,o),
(561,275,o),
(516,275,cs),
(488,275,o),
(467,275,o),
(437,291,cs),
(410,306,o),
(385,327,o),
(355,402,c),
(364,333,l),
(418,416,o),
(507,546,o),
(614,700,c),
(503,700,l),
(452,614,o),
(371,480,o),
(328,411,c),
(354,377,l),
(338,525,o),
(313,609,o),
(273,656,cs),
(237,698,o),
(188,710,o),
(121,710,cs),
(84,710,o),
(56,705,o),
(25,691,c),
(25,396,l),
(61,414,o),
(102,428,o),
(147,428,cs),
(179,428,o),
(203,426,o),
(228,415,cs),
(253,404,o),
(273,382,o),
(296,338,c),
(299,386,l),
(246,305,o),
(142,156,o),
(27,0,c),
(136,0,l),
(193,86,o),
(293,239,o),
(335,304,c),
(315,336,l),
(318,190,o),
(337,88,o),
(398,35,cs),
(432,6,o),
(478,-10,o),
(542,-10,cs)
);
}
);
width = 663;
},
{
associatedMasterId = "60D037D9-62E9-4843-B070-F1594CB0B0D1";
layerId = "09676FF0-31B0-4825-927E-198097F326A4";
shapes = (
{
closed = 1;
nodes = (
(588,-9,o),
(609,-7,o),
(633,0,c),
(633,37,l),
(610,31,o),
(587,26,o),
(562,26,cs),
(539,26,o),
(514,33,o),
(495,50,cs),
(470,73,o),
(398,207,o),
(336,360,c),
(337,345,l),
(413,456,o),
(507,585,o),
(598,702,c),
(556,702,l),
(476,587,o),
(410,495,o),
(321,372,c),
(329,368,l),
(262,517,o),
(207,636,o),
(176,673,cs),
(155,699,o),
(118,711,o),
(86,711,cs),
(60,711,o),
(39,709,o),
(15,703,c),
(15,665,l),
(38,672,o),
(61,677,o),
(86,677,cs),
(109,677,o),
(134,669,o),
(153,652,cs),
(178,630,o),
(249,499,o),
(311,344,c),
(314,361,l),
(247,269,o),
(134,117,o),
(41,0,c),
(83,0,l),
(163,116,o),
(243,222,o),
(325,328,c),
(318,336,l),
(385,187,o),
(441,66,o),
(472,29,cs),
(493,4,o),
(530,-9,o),
(562,-9,cs)
);
}
);
width = 648;
}
);
unicode = 42931;
},
{
glyphname = D;
kernLeft = KO_H;
kernRight = KO_O;
lastChange = "2025-04-16 11:09:51 +0000";
layers = (
{
anchors = (
{
name = bottom;
pos = (285,0);
},
{
name = center;
pos = (100,350);
},
{
name = hook;
pos = (38,700);
},
{
name = top;
pos = (285,700);
}
);
layerId = m01;
shapes = (
{
closed = 1;
nodes = (
(325,0,ls),
(438,0,o),
(509,25,o),
(555,77,cs),
(605,134,o),
(626,216,o),
(626,350,cs),
(626,484,o),
(605,566,o),
(555,623,cs),
(509,675,o),
(438,700,o),
(325,700,cs),
(38,700,l),
(44,461,o),
(44,461,o),
(44,350,cs),
(44,237,o),
(44,237,o),
(38,0,c)
);
},
{
closed = 1;
nodes = (
(134,307,o),
(129,309,o),
(119,314,cs),
(109,319,o),
(107,328,o),
(107,350,cs),
(107,372,o),
(109,381,o),
(119,386,cs),
(129,391,o),
(134,393,o),
(329,393,cs),
(452,393,o),
(511,391,o),
(538,380,cs),
(554,373,o),
(559,364,o),
(559,350,cs),
(559,336,o),
(554,327,o),
(538,320,cs),
(510,308,o),
(450,307,o),
(329,307,cs)
);
}
);
width = 648;
},
{
anchors = (
{
name = bottom;
pos = (257,0);
},
{
name = center;
pos = (79,350);
},
{
name = hook;
pos = (58,700);
},
{
name = top;
pos = (253,700);
}
);
layerId = "60D037D9-62E9-4843-B070-F1594CB0B0D1";
shapes = (
{
closed = 1;
nodes = (
(280,0,ls),
(385,0,o),
(453,40,o),
(495,123,cs),
(528,188,o),
(540,264,o),
(540,350,cs),
(540,436,o),
(528,512,o),
(495,577,cs),
(453,660,o),
(385,700,o),
(280,700,cs),
(58,700,l),
(62,461,o),
(62,461,o),
(62,350,cs),
(62,239,o),
(62,239,o),
(58,0,c)
);
},
{
closed = 1;
nodes = (
(156,40,o),
(106,43,o),
(95,53,cs),
(85,62,o),
(84,75,o),
(84,350,cs),
(84,634,o),
(87,646,o),
(96,653,cs),
(105,660,o),
(151,661,o),
(270,661,cs),
(393,661,o),
(450,610,o),
(477,554,cs),
(506,494,o),
(518,425,o),
(518,350,cs),
(518,275,o),
(506,206,o),
(477,146,cs),
(450,90,o),
(393,40,o),
(270,40,cs)
);
}
);
width = 578;
},
{
anchors = (
{
name = bottom;
pos = (257,0);
},
{
name = center;
pos = (79,350);
},
{
name = hook;
pos = (58,700);
},
{
name = top;
pos = (253,700);
}
);
associatedMasterId = "60D037D9-62E9-4843-B070-F1594CB0B0D1";
layerId = "09676FF0-31B0-4825-927E-198097F326A4";
shapes = (
{
closed = 1;
nodes = (
(280,0,ls),
(385,0,o),
(453,40,o),
(495,123,cs),
(528,188,o),
(540,264,o),
(540,350,cs),
(540,436,o),
(528,512,o),
(495,577,cs),
(453,660,o),
(385,700,o),
(280,700,cs),
(58,700,l),
(62,461,o),
(62,461,o),
(62,350,cs),
(62,239,o),
(62,239,o),
(58,0,c)
);
},
{
closed = 1;
nodes = (
(156,40,o),
(106,43,o),
(95,53,cs),
(85,62,o),
(84,75,o),
(84,350,cs),
(84,634,o),
(87,646,o),
(96,653,cs),
(105,660,o),
(151,661,o),
(270,661,cs),
(393,661,o),
(450,610,o),
(477,554,cs),
(506,494,o),
(518,425,o),
(518,350,cs),
(518,275,o),
(506,206,o),
(477,146,cs),
(450,90,o),
(393,40,o),
(270,40,cs)
);
}
);
width = 578;
}
);
metricLeft = H;
metricRight = O;
unicode = 68;
userData = {
KernOnName = D;
};
},
{
glyphname = E;
kernLeft = KO_H;
kernRight = KO_E;
lastChange = "2025-04-16 10:02:50 +0000";
layers = (
{
anchors = (
{
name = bottom;
pos = (258,0);
},
{
name = center;
pos = (267,350);
},
{
name = ogonek;
pos = (457,0);
},
{
name = top;
pos = (258,700);
},
{
name = topleft;
pos = (58,700);
}
);
layerId = "60D037D9-62E9-4843-B070-F1594CB0B0D1";
shapes = (
{
closed = 1;
nodes = (
(457,0,l),
(457,39,l),
(403,39,o),
(329,39,o),
(251,39,cs),
(113,39,o),
(104,39,o),
(96,45,cs),
(86,53,o),
(84,68,o),
(84,195,cs),
(84,325,o),
(86,340,o),
(96,348,cs),
(104,354,o),
(113,354,o),
(204,354,cs),
(275,354,o),
(275,354,o),
(429,351,c),
(429,387,l),
(275,384,o),
(275,384,o),
(204,384,cs),
(113,384,o),
(104,384,o),
(96,390,cs),
(86,398,o),
(84,413,o),
(84,524,cs),
(84,632,o),
(86,647,o),
(96,655,cs),
(104,661,o),
(113,661,o),
(251,661,cs),
(326,661,o),
(401,661,o),
(449,661,c),
(449,700,l),
(58,700,l),
(62,461,o),
(62,461,o),
(62,350,cs),
(62,239,o),
(62,239,o),
(58,0,c)
);
}
);
width = 483;
},
{
anchors = (
{
name = bottom;
pos = (315,0);
},
{
name = center;
pos = (327,350);
},
{
name = ogonek;
pos = (564,0);
},
{
name = top;
pos = (315,700);
},
{
name = topleft;
pos = (38,700);
}
);
layerId = m01;
shapes = (
{
closed = 1;
nodes = (
(564,0,l),
(564,275,l),
(421,272,o),
(421,272,o),
(320,272,cs),
(179,272,o),
(130,273,o),
(116,284,cs),
(111,287,o),
(110,292,o),
(110,297,cs),
(110,301,o),
(111,305,o),
(116,308,cs),
(130,319,o),
(179,320,o),
(320,320,cs),
(371,320,o),
(371,320,o),
(524,317,c),
(524,391,l),
(371,388,o),
(371,388,o),
(320,388,cs),
(179,388,o),
(125,390,o),
(114,399,cs),
(111,402,o),
(110,404,o),
(110,408,cs),
(110,411,o),
(111,414,o),
(114,417,cs),
(125,426,o),
(179,428,o),
(320,428,cs),
(416,428,o),
(416,428,o),
(559,425,c),
(562,700,l),
(38,700,l),
(44,461,o),
(44,461,o),
(44,350,cs),
(44,239,o),
(44,239,o),
(38,0,c)
);
}
);
width = 594;
},
{
anchors = (
{
name = bottom;
pos = (258,0);
},
{
name = center;
pos = (267,350);
},
{
name = ogonek;
pos = (457,0);
},
{
name = top;
pos = (258,700);
},
{
name = topleft;
pos = (58,700);
}
);
associatedMasterId = "60D037D9-62E9-4843-B070-F1594CB0B0D1";
background = {
shapes = (
{
closed = 1;
nodes = (
(457,0,l),
(457,36,l),
(403,36,o),
(323,36,o),
(245,36,cs),
(113,36,o),
(104,36,o),
(96,42,cs),
(86,50,o),
(84,65,o),
(84,195,cs),
(84,325,o),
(86,340,o),
(96,348,cs),
(104,354,o),
(113,354,o),
(198,354,cs),
(269,354,o),
(275,354,o),
(429,351,c),
(429,387,l),
(275,384,o),
(269,384,o),
(198,384,cs),
(113,384,o),
(104,384,o),
(96,390,cs),
(86,398,o),
(84,413,o),
(84,524,cs),
(84,635,o),
(86,650,o),
(96,658,cs),
(104,664,o),
(113,664,o),
(245,664,cs),
(320,664,o),
(401,664,o),
(449,664,c),
(449,700,l),
(58,700,l),
(62,461,o),
(62,461,o),
(62,350,cs),
(62,239,o),
(62,239,o),
(58,0,c)
);
}
);
};
layerId = "5BDEB3E6-6C4D-46D2-92A5-8927EDBA6D01";
name = "13 Apr 25 at 23:45";
shapes = (
{
closed = 1;
nodes = (
(457,0,l),
(457,36,l),
(403,36,o),
(329,36,o),
(251,36,cs),
(113,36,o),
(104,36,o),
(96,42,cs),
(86,50,o),
(84,65,o),
(84,195,cs),
(84,325,o),
(86,340,o),
(96,348,cs),
(104,354,o),
(113,354,o),
(204,354,cs),
(275,354,o),
(275,354,o),
(429,351,c),
(429,387,l),
(275,384,o),
(275,384,o),
(204,384,cs),
(113,384,o),
(104,384,o),
(96,390,cs),
(86,398,o),
(84,413,o),
(84,524,cs),
(84,635,o),
(86,650,o),
(96,658,cs),
(104,664,o),
(113,664,o),
(251,664,cs),
(326,664,o),
(401,664,o),
(449,664,c),
(449,700,l),
(58,700,l),
(62,461,o),
(62,461,o),
(62,350,cs),
(62,239,o),
(62,239,o),
(58,0,c)
);
}
);
width = 483;
},
{
anchors = (
{
name = bottom;
pos = (258,0);
},
{
name = center;
pos = (267,350);
},
{
name = ogonek;
pos = (457,0);
},
{
name = top;
pos = (258,700);
},
{
name = topleft;
pos = (58,700);
}
);
associatedMasterId = "60D037D9-62E9-4843-B070-F1594CB0B0D1";
layerId = "09676FF0-31B0-4825-927E-198097F326A4";
shapes = (
{
closed = 1;
nodes = (
(457,0,l),
(457,36,l),
(403,36,o),
(329,36,o),
(251,36,cs),
(113,36,o),
(104,36,o),
(96,42,cs),
(86,50,o),
(84,65,o),
(84,195,cs),
(84,325,o),
(86,340,o),
(96,348,cs),
(104,354,o),
(113,354,o),
(204,354,cs),
(275,354,o),
(275,354,o),
(429,351,c),
(429,387,l),
(275,384,o),
(275,384,o),
(204,384,cs),
(113,384,o),
(104,384,o),
(96,390,cs),
(86,398,o),
(84,413,o),
(84,524,cs),
(84,635,o),
(86,650,o),
(96,658,cs),
(104,664,o),
(113,664,o),
(251,664,cs),
(326,664,o),
(401,664,o),
(449,664,c),
(449,700,l),
(58,700,l),
(62,461,o),
(62,461,o),
(62,350,cs),
(62,239,o),
(62,239,o),
(58,0,c)
);
}
);
width = 483;
}
);
metricLeft = H;
unicode = 69;
userData = {
KernOnName = E;
};
},
{
glyphname = Esh;
kernLeft = KO_Eopen;
kernRight = KO_E;
lastChange = "2025-04-16 10:03:10 +0000";
layers = (
{
layerId = "60D037D9-62E9-4843-B070-F1594CB0B0D1";
shapes = (
{
closed = 1;
nodes = (
(449,0,l),
(449,36,l),
(341,36,o),
(306,36,o),
(119,36,cs),
(109,36,o),
(102,37,o),
(98,39,cs),
(90,43,o),
(89,48,o),
(89,54,cs),
(89,73,o),
(89,73,o),
(379,323,c),
(379,377,l),
(89,624,o),
(89,624,o),
(89,646,cs),
(89,651,o),
(90,657,o),
(98,661,cs),
(102,663,o),
(109,664,o),
(119,664,cs),
(306,664,o),
(341,664,o),
(449,664,c),
(449,700,l),
(58,700,l),
(58,622,l),
(349,376,o),
(349,376,o),
(349,350,cs),
(349,324,o),
(349,324,o),
(58,78,c),
(58,0,l)
);
}
);
width = 475;
},
{
layerId = m01;
shapes = (
{
closed = 1;
nodes = (
(541,0,l),
(541,268,l),
(479,266,o),
(403,266,o),
(321,266,cs),
(272,266,o),
(253,267,o),
(239,268,cs),
(226,269,o),
(222,270,o),
(222,274,cs),
(222,279,o),
(222,281,o),
(371,325,c),
(371,375,l),
(222,419,o),
(222,421,o),
(222,426,cs),
(222,430,o),
(226,431,o),
(239,432,cs),
(253,433,o),
(272,434,o),
(321,434,cs),
(403,434,o),
(479,434,o),
(541,432,c),
(541,700,l),
(38,700,l),
(38,438,l),
(263,362,o),
(265,361,o),
(265,350,cs),
(265,339,o),
(263,337,o),
(38,262,c),
(38,0,l)
);
}
);
width = 571;
},
{
associatedMasterId = "60D037D9-62E9-4843-B070-F1594CB0B0D1";
layerId = "09676FF0-31B0-4825-927E-198097F326A4";
shapes = (
{
closed = 1;
nodes = (
(449,0,l),
(449,36,l),
(341,36,o),
(306,36,o),
(119,36,cs),
(109,36,o),
(102,37,o),
(98,39,cs),
(90,43,o),
(89,48,o),
(89,54,cs),
(89,73,o),
(89,73,o),
(379,323,c),
(379,377,l),
(89,624,o),
(89,624,o),
(89,646,cs),
(89,651,o),
(90,657,o),
(98,661,cs),
(102,663,o),
(109,664,o),
(119,664,cs),
(306,664,o),
(341,664,o),
(449,664,c),
(449,700,l),
(58,700,l),
(58,622,l),
(349,366,o),
(349,366,o),
(349,350,cs),
(349,334,o),
(349,334,o),
(58,78,c),
(58,0,l)
);
}
);
width = 475;
}
);
metricLeft = E;
metricRight = E;
unicode = 425;
},
{
glyphname = Schwa;
kernLeft = KO_Schwa;
kernRight = KO_O;
lastChange = "2025-04-16 10:03:14 +0000";
layers = (
{
layerId = "60D037D9-62E9-4843-B070-F1594CB0B0D1";
shapes = (
{
closed = 1;
nodes = (
(472,-16,o),
(571,106,o),
(571,360,cs),
(571,568,o),
(487,716,o),
(268,716,cs),
(214,716,o),
(138,705,o),
(64,681,c),
(64,637,l),
(118,662,o),
(209,681,o),
(271,681,cs),
(454,681,o),
(534,555,o),
(548,377,c),
(32,377,l),
(32,130,o),
(109,-16,o),
(292,-16,cs)
);
},
{
closed = 1;
nodes = (
(156,24,o),
(56,134,o),
(56,347,c),
(548,347,l),
(541,115,o),
(445,24,o),
(292,24,cs)
);
}
);
width = 609;
},
{
layerId = m01;
shapes = (
{
closed = 1;
nodes = (
(493,-10,o),
(605,94,o),
(605,346,cs),
(605,592,o),
(507,710,o),
(264,710,cs),
(170,710,o),
(85,695,o),
(34,679,c),
(39,391,l),
(134,416,o),
(205,426,o),
(313,426,cs),
(451,426,o),
(515,408,o),
(530,374,c),
(18,374,l),
(18,87,o),
(99,-10,o),
(306,-10,cs)
);
},
{
closed = 1;
nodes = (
(166,248,o),
(97,276,o),
(91,304,c),
(525,304,l),
(515,276,o),
(470,248,o),
(306,248,cs)
);
}
);
width = 627;
},
{
associatedMasterId = "60D037D9-62E9-4843-B070-F1594CB0B0D1";
layerId = "09676FF0-31B0-4825-927E-198097F326A4";
shapes = (
{
closed = 1;
nodes = (
(472,-16,o),
(571,106,o),
(571,360,cs),
(571,568,o),
(487,716,o),
(268,716,cs),
(214,716,o),
(138,705,o),
(64,681,c),
(64,637,l),
(118,662,o),
(209,681,o),
(271,681,cs),
(454,681,o),
(534,555,o),
(548,377,c),
(32,377,l),
(32,130,o),
(109,-16,o),
(292,-16,cs)
);
},
{
closed = 1;
nodes = (
(156,24,o),
(56,134,o),
(56,347,c),
(548,347,l),
(541,115,o),
(445,24,o),
(292,24,cs)
);
}
);
width = 609;
}
);
metricRight = O;
unicode = 399;
},
{
glyphname = Ezh;
kernLeft = KO_Ezh;
kernRight = KO_Ezh;
lastChange = "2025-04-16 10:03:17 +0000";
layers = (
{
anchors = (
{
name = bottom;
pos = (210,0);
},
{
name = top;
pos = (210,700);
}
);
layerId = "60D037D9-62E9-4843-B070-F1594CB0B0D1";
shapes = (
{
closed = 1;
nodes = (
(357,-16,o),
(439,75,o),
(439,187,cs),
(439,355,o),
(301,394,o),
(145,400,c),
(170,420,o),
(224,459,o),
(409,592,c),
(409,700,l),
(28,700,l),
(28,664,l),
(136,664,o),
(181,664,o),
(358,664,cs),
(374,664,o),
(383,662,o),
(383,631,cs),
(383,610,o),
(380,603,o),
(374,596,cs),
(364,584,o),
(179,449,o),
(119,408,c),
(119,373,l),
(194,373,o),
(270,365,o),
(325,338,cs),
(377,312,o),
(412,260,o),
(412,189,cs),
(412,81,o),
(330,20,o),
(222,20,cs),
(149,20,o),
(66,46,o),
(30,71,c),
(30,26,l),
(60,9,o),
(142,-16,o),
(222,-16,cs)
);
}
);
width = 469;
},
{
anchors = (
{
name = bottom;
pos = (269,0);
},
{
name = top;
pos = (269,700);
}
);
layerId = m01;
shapes = (
{
closed = 1;
nodes = (
(419,-10,o),
(521,50,o),
(521,189,cs),
(521,308,o),
(438,364,o),
(286,384,c),
(351,418,o),
(410,448,o),
(498,490,c),
(498,700,l),
(40,700,l),
(40,432,l),
(120,432,o),
(153,432,o),
(199,432,cs),
(266,432,o),
(278,432,o),
(278,425,cs),
(278,420,o),
(277,417,o),
(273,415,cs),
(259,406,o),
(197,396,o),
(170,392,c),
(170,341,l),
(237,341,o),
(289,340,o),
(321,333,cs),
(362,324,o),
(384,312,o),
(384,300,cs),
(384,286,o),
(358,280,o),
(290,280,cs),
(196,280,o),
(95,295,o),
(28,316,c),
(28,13,l),
(64,4,o),
(160,-10,o),
(235,-10,cs)
);
}
);
width = 537;
},
{
anchors = (
{
name = bottom;
pos = (210,0);
},
{
name = top;
pos = (210,700);
}
);
associatedMasterId = "60D037D9-62E9-4843-B070-F1594CB0B0D1";
layerId = "09676FF0-31B0-4825-927E-198097F326A4";
shapes = (
{
closed = 1;
nodes = (
(357,-16,o),
(439,75,o),
(439,187,cs),
(439,355,o),
(301,393,o),
(145,400,c),
(170,424,o),
(224,475,o),
(409,622,c),
(409,700,l),
(28,700,l),
(28,664,l),
(136,664,o),
(171,664,o),
(348,664,cs),
(364,664,o),
(378,662,o),
(378,646,cs),
(378,640,o),
(378,636,o),
(370,628,cs),
(312,575,o),
(179,466,o),
(119,418,c),
(119,373,l),
(194,373,o),
(270,365,o),
(325,338,cs),
(377,312,o),
(412,260,o),
(412,189,cs),
(412,81,o),
(330,20,o),
(222,20,cs),
(149,20,o),
(66,46,o),
(30,71,c),
(30,26,l),
(60,9,o),
(142,-16,o),
(222,-16,cs)
);
}
);
width = 469;
}
);
unicode = 439;
},
{
glyphname = F;
kernLeft = KO_H;
kernRight = KO_F;
lastChange = "2025-04-16 10:03:19 +0000";
layers = (
{
anchors = (
{
name = bottom;
pos = (300,0);
},
{
name = top;
pos = (300,700);
}
);
layerId = m01;
shapes = (
{
closed = 1;
nodes = (
(124,0,l),
(119,80,o),
(117,125,o),
(117,178,cs),
(117,213,o),
(120,228,o),
(129,239,cs),
(148,261,o),
(182,266,o),
(325,266,cs),
(376,266,o),
(376,266,o),
(524,263,c),
(524,338,l),
(376,335,o),
(376,335,o),
(325,335,cs),
(181,335,o),
(132,339,o),
(117,356,cs),
(113,360,o),
(112,366,o),
(112,372,cs),
(112,380,o),
(114,386,o),
(120,391,cs),
(137,405,o),
(188,409,o),
(325,409,cs),
(410,409,o),
(410,409,o),
(553,406,c),
(556,700,l),
(38,700,l),
(44,461,o),
(44,461,o),
(44,350,cs),
(44,239,o),
(44,239,o),
(38,0,c)
);
}
);
width = 581;
},
{
anchors = (
{
name = bottom;
pos = (286,0);
},
{
name = top;
pos = (261,700);
}
);
layerId = "60D037D9-62E9-4843-B070-F1594CB0B0D1";
shapes = (
{
closed = 1;
nodes = (
(92,0,l),
(87,121,o),
(85,198,o),
(85,246,cs),
(85,312,o),
(85,328,o),
(95,336,cs),
(103,342,o),
(112,343,o),
(199,343,cs),
(270,343,o),
(270,343,o),
(424,340,c),
(424,376,l),
(270,373,o),
(270,373,o),
(198,373,cs),
(112,373,o),
(103,373,o),
(95,379,cs),
(85,387,o),
(83,403,o),
(83,519,cs),
(83,632,o),
(85,647,o),
(95,655,cs),
(103,661,o),
(112,661,o),
(251,661,cs),
(329,661,o),
(388,661,o),
(439,661,c),
(439,700,l),
(58,700,l),
(62,461,o),
(62,461,o),
(62,350,cs),
(62,239,o),
(62,239,o),
(58,0,c)
);
}
);
width = 461;
},
{
anchors = (
{
name = bottom;
pos = (286,0);
},
{
name = top;
pos = (261,700);
}
);
associatedMasterId = "60D037D9-62E9-4843-B070-F1594CB0B0D1";
layerId = "09676FF0-31B0-4825-927E-198097F326A4";
shapes = (
{
closed = 1;
nodes = (
(92,0,l),
(87,121,o),
(85,198,o),
(85,246,cs),
(85,312,o),
(85,328,o),
(95,336,cs),
(103,342,o),
(112,343,o),
(199,343,cs),
(270,343,o),
(270,343,o),
(424,340,c),
(424,376,l),
(270,373,o),
(270,373,o),
(198,373,cs),
(112,373,o),
(103,373,o),
(95,379,cs),
(85,387,o),
(83,403,o),
(83,519,cs),
(83,635,o),
(85,650,o),
(95,658,cs),
(103,664,o),
(112,664,o),
(251,664,cs),
(329,664,o),
(388,664,o),
(439,664,c),
(439,700,l),
(58,700,l),
(62,461,o),
(62,461,o),
(62,350,cs),
(62,239,o),
(62,239,o),
(58,0,c)
);
}
);
width = 461;
}
);
metricLeft = H;
unicode = 70;
userData = {
KernOnName = F;
};
},
{
glyphname = Fhook;
kernLeft = KO_Fhook;
kernRight = KO_F;
lastChange = "2025-04-16 10:03:23 +0000";
layers = (
{
layerId = "60D037D9-62E9-4843-B070-F1594CB0B0D1";
shapes = (
{
closed = 1;
nodes = (
(4,-217,o),
(35,-209,o),
(55,-187,cs),
(74,-166,o),
(86,-133,o),
(86,-83,cs),
(86,-18,o),
(85,181,o),
(85,246,cs),
(85,312,o),
(85,328,o),
(95,336,cs),
(103,342,o),
(112,343,o),
(199,343,cs),
(270,343,o),
(270,343,o),
(424,340,c),
(424,376,l),
(270,373,o),
(270,373,o),
(198,373,cs),
(112,373,o),
(103,373,o),
(95,379,cs),
(85,387,o),
(83,403,o),
(83,519,cs),
(83,632,o),
(85,647,o),
(95,655,cs),
(103,661,o),
(112,661,o),
(251,661,cs),
(329,661,o),
(388,661,o),
(439,661,c),
(439,700,l),
(58,700,l),
(62,461,o),
(62,461,o),
(62,350,cs),
(62,239,o),
(62,-51,o),
(62,-67,cs),
(62,-128,o),
(43,-159,o),
(15,-172,cs),
(2,-178,o),
(-13,-180,o),
(-28,-180,cs),
(-42,-180,o),
(-56,-177,o),
(-70,-173,c),
(-70,-211,l),
(-55,-215,o),
(-41,-217,o),
(-27,-217,cs)
);
}
);
width = 461;
},
{
layerId = m01;
shapes = (
{
closed = 1;
nodes = (
(33,-218,o),
(75,-193,o),
(96,-153,cs),
(111,-125,o),
(118,-93,o),
(118,-41,cs),
(118,-23,o),
(117,150,o),
(117,193,cs),
(117,228,o),
(120,243,o),
(129,254,cs),
(148,276,o),
(182,281,o),
(325,281,cs),
(376,281,o),
(376,281,o),
(524,278,c),
(524,353,l),
(376,350,o),
(376,350,o),
(325,350,cs),
(181,350,o),
(132,354,o),
(117,371,cs),
(114,374,o),
(112,381,o),
(112,387,cs),
(112,395,o),
(114,401,o),
(120,406,cs),
(137,420,o),
(188,424,o),
(325,424,cs),
(410,424,o),
(410,424,o),
(553,421,c),
(556,700,l),
(38,700,l),
(44,461,o),
(44,461,o),
(44,350,cs),
(44,235,o),
(42,104,o),
(39,34,cs),
(38,10,o),
(31,-5,o),
(22,-15,cs),
(6,-32,o),
(-17,-34,o),
(-35,-34,cs),
(-50,-34,o),
(-55,-33,o),
(-86,-24,c),
(-86,-212,l),
(-56,-217,o),
(-45,-218,o),
(-21,-218,cs)
);
}
);
width = 581;
},
{
associatedMasterId = "60D037D9-62E9-4843-B070-F1594CB0B0D1";
layerId = "09676FF0-31B0-4825-927E-198097F326A4";
shapes = (
{
closed = 1;
nodes = (
(4,-217,o),
(35,-209,o),
(55,-187,cs),
(74,-166,o),
(86,-133,o),
(86,-83,cs),
(86,-18,o),
(85,181,o),
(85,246,cs),
(85,312,o),
(85,328,o),
(95,336,cs),
(103,342,o),
(112,343,o),
(199,343,cs),
(270,343,o),
(270,343,o),
(424,340,c),
(424,376,l),
(270,373,o),
(270,373,o),
(198,373,cs),
(112,373,o),
(103,373,o),
(95,379,cs),
(85,387,o),
(83,403,o),
(83,519,cs),
(83,635,o),
(85,650,o),
(95,658,cs),
(103,664,o),
(112,664,o),
(251,664,cs),
(329,664,o),
(388,664,o),
(439,664,c),
(439,700,l),
(58,700,l),
(62,461,o),
(62,461,o),
(62,350,cs),
(62,239,o),
(62,-51,o),
(62,-67,cs),
(62,-128,o),
(43,-159,o),
(15,-172,cs),
(2,-178,o),
(-13,-180,o),
(-28,-180,cs),
(-42,-180,o),
(-56,-177,o),
(-70,-173,c),
(-70,-211,l),
(-55,-215,o),
(-41,-217,o),
(-27,-217,cs)
);
}
);
width = 461;
}
);
metricRight = F;
unicode = 401;
},
{
glyphname = G;
kernLeft = KO_O;
kernRight = KO_G;
lastChange = "2025-04-16 10:03:24 +0000";
layers = (
{
anchors = (
{
name = bar;
pos = (313,350);
},
{
name = bottom;
pos = (334,0);
},
{
name = center;
pos = (324,350);
},
{
name = hook;
pos = (567,680);
},
{
name = stroke;
pos = (501,320);
},
{
name = top;
pos = (337,700);
}
);
layerId = m01;
shapes = (
{
closed = 1;
nodes = (
(421,-10,o),
(515,3,o),
(566,30,c),
(566,143,o),
(570,234,o),
(577,354,c),
(486,354,l),
(489,331,o),
(491,311,o),
(491,296,c),
(448,292,o),
(390,288,o),
(315,288,cs),
(189,288,o),
(127,296,o),
(103,312,cs),
(93,319,o),
(89,327,o),
(89,340,cs),
(89,352,o),
(93,361,o),
(103,368,cs),
(127,384,o),
(186,392,o),
(315,392,cs),
(422,392,o),
(521,386,o),
(567,380,c),
(567,680,l),
(531,692,o),
(440,710,o),
(367,710,cs),
(122,710,o),
(22,599,o),
(22,350,cs),
(22,101,o),
(122,-10,o),
(364,-10,cs)
);
}
);
width = 597;
},
{
anchors = (
{
name = bar;
pos = (290,350);
},
{
name = bottom;
pos = (306,0);
},
{
name = center;
pos = (303,350);
},
{
name = hook;
pos = (483,672);
},
{
name = stroke;
pos = (466,159);
},
{
name = top;
pos = (315,700);
}
);
layerId = "60D037D9-62E9-4843-B070-F1594CB0B0D1";
shapes = (
{
closed = 1;
nodes = (
(381,-16,o),
(462,1,o),
(500,19,c),
(500,149,o),
(500,150,o),
(503,287,c),
(468,287,l),
(473,150,o),
(473,149,o),
(473,47,c),
(442,28,o),
(375,18,o),
(323,18,cs),
(250,18,o),
(201,37,o),
(158,76,cs),
(97,131,o),
(61,223,o),
(61,350,cs),
(61,477,o),
(95,561,o),
(161,623,cs),
(195,655,o),
(246,679,o),
(315,679,cs),
(381,679,o),
(441,656,o),
(483,627,c),
(483,672,l),
(455,690,o),
(392,716,o),
(316,716,cs),
(133,716,o),
(38,573,o),
(38,350,cs),
(38,127,o),
(132,-16,o),
(324,-16,c)
);
}
);
width = 551;
},
{
anchors = (
{
name = bottom;
pos = (334,0);
},
{
name = center;
pos = (324,350);
},
{
name = hook;
pos = (572,677);
},
{
name = stroke;
pos = (502,305);
},
{
name = top;
pos = (337,700);
}
);
associatedMasterId = m01;
background = {
shapes = (
{
ref = C;
}
);
};
layerId = "B7D7B6A5-33DE-475E-B3AE-DB590AF60FB0";
name = "7 Apr 25 at 11:44";
shapes = (
{
closed = 1;
nodes = (
(421,-10,o),
(510,3,o),
(561,30,c),
(561,143,o),
(565,254,o),
(572,364,c),
(489,364,l),
(492,341,o),
(496,286,o),
(496,260,c),
(453,253,o),
(390,245,o),
(315,245,cs),
(219,245,o),
(147,256,o),
(114,281,cs),
(93,297,o),
(83,320,o),
(83,350,cs),
(83,380,o),
(93,403,o),
(114,419,cs),
(147,444,o),
(219,455,o),
(315,455,cs),
(422,455,o),
(516,440,o),
(562,430,c),
(562,680,l),
(526,692,o),
(440,710,o),
(367,710,cs),
(122,710,o),
(22,599,o),
(22,350,cs),
(22,101,o),
(122,-10,o),
(364,-10,cs)
);
}
);
width = 594;
},
{
anchors = (
{
name = bar;
pos = (290,350);
},
{
name = bottom;
pos = (306,0);
},
{
name = center;
pos = (303,350);
},
{
name = hook;
pos = (483,672);
},
{
name = stroke;
pos = (466,159);
},
{
name = top;
pos = (315,700);
}
);
associatedMasterId = "60D037D9-62E9-4843-B070-F1594CB0B0D1";
layerId = "09676FF0-31B0-4825-927E-198097F326A4";
shapes = (
{
closed = 1;
nodes = (
(381,-16,o),
(462,1,o),
(500,19,c),
(500,149,o),
(500,150,o),
(503,287,c),
(468,287,l),
(473,150,o),
(473,149,o),
(473,47,c),
(442,28,o),
(375,18,o),
(323,18,cs),
(250,18,o),
(201,37,o),
(158,76,cs),
(97,131,o),
(61,223,o),
(61,350,cs),
(61,477,o),
(95,561,o),
(161,623,cs),
(195,655,o),
(246,679,o),
(315,679,cs),
(381,679,o),
(441,656,o),
(483,627,c),
(483,672,l),
(455,690,o),
(392,716,o),
(316,716,cs),
(133,716,o),
(38,573,o),
(38,350,cs),
(38,127,o),
(132,-16,o),
(324,-16,c)
);
}
);
width = 551;
}
);
metricLeft = C;
unicode = 71;
userData = {
KernOnName = G;
};
},
{
glyphname = Glottalstopsmall;
kernLeft = KO_Glotta;
kernRight = KO_question;
lastChange = "2025-04-16 10:03:27 +0000";
layers = (
{
layerId = "60D037D9-62E9-4843-B070-F1594CB0B0D1";
shapes = (
{
closed = 1;
nodes = (
(163,0,l),
(157,168,o),
(153,253,o),
(171,280,cs),
(189,307,o),
(216,324,o),
(284,365,cs),
(342,400,o),
(394,441,o),
(394,542,cs),
(394,645,o),
(329,716,o),
(196,716,cs),
(142,716,o),
(88,704,o),
(40,686,c),
(40,633,l),
(84,654,o),
(143,673,o),
(204,673,cs),
(306,673,o),
(370,620,o),
(370,541,cs),
(370,464,o),
(319,421,o),
(269,394,cs),
(194,353,o),
(161,334,o),
(146,300,cs),
(126,255,o),
(133,183,o),
(129,0,c)
);
}
);
width = 426;
},
{
layerId = m01;
shapes = (
{
closed = 1;
nodes = (
(195,0,l),
(184,252,o),
(185,280,o),
(193,292,cs),
(201,305,o),
(217,311,o),
(249,321,cs),
(376,361,o),
(476,394,o),
(476,525,cs),
(476,653,o),
(373,707,o),
(230,707,cs),
(190,707,o),
(121,704,o),
(28,687,c),
(28,392,l),
(126,413,o),
(208,423,o),
(233,423,cs),
(279,423,o),
(291,419,o),
(291,412,cs),
(291,402,o),
(281,394,o),
(227,381,cs),
(178,369,o),
(149,361,o),
(133,340,cs),
(117,319,o),
(108,287,o),
(108,0,c)
);
}
);
width = 492;
},
{
associatedMasterId = "60D037D9-62E9-4843-B070-F1594CB0B0D1";
layerId = "09676FF0-31B0-4825-927E-198097F326A4";
shapes = (
{
closed = 1;
nodes = (
(163,0,l),
(157,168,o),
(153,253,o),
(171,280,cs),
(189,307,o),
(216,324,o),
(284,365,cs),
(342,400,o),
(394,441,o),
(394,542,cs),
(394,645,o),
(329,716,o),
(196,716,cs),
(142,716,o),
(88,704,o),
(40,686,c),
(40,633,l),
(84,654,o),
(143,673,o),
(204,673,cs),
(306,673,o),
(370,620,o),
(370,541,cs),
(370,464,o),
(319,421,o),
(269,394,cs),
(194,353,o),
(161,334,o),
(146,300,cs),
(126,255,o),
(133,183,o),
(129,0,c)
);
}
);
width = 426;
}
);
metricLeft = question;
metricRight = question;
unicode = 577;
},
{
glyphname = Gstroke;
kernLeft = KO_O;
kernRight = KO_Gstroke;
lastChange = "2025-04-14 14:20:44 +0000";
layers = (
{
anchors = (
{
name = bottom;
pos = (306,0);
},
{
name = center;
pos = (303,350);
},
{
name = hook;
pos = (483,672);
},
{
name = stroke;
pos = (466,159);
},
{
name = top;
pos = (315,700);
}
);
layerId = "60D037D9-62E9-4843-B070-F1594CB0B0D1";
shapes = (
{
closed = 1;
nodes = (
(381,-16,o),
(462,1,o),
(500,19,c),
(500,149,o),
(500,150,o),
(503,287,c),
(468,287,l),
(473,150,o),
(473,149,o),
(473,47,c),
(442,28,o),
(375,18,o),
(323,18,cs),
(250,18,o),
(201,37,o),
(158,76,cs),
(97,131,o),
(61,223,o),
(61,350,cs),
(61,477,o),
(95,561,o),
(161,623,cs),
(195,655,o),
(246,679,o),
(315,679,cs),
(381,679,o),
(441,656,o),
(483,627,c),
(483,672,l),
(455,690,o),
(392,716,o),
(316,716,cs),
(133,716,o),
(38,573,o),
(38,350,cs),
(38,127,o),
(132,-16,o),
(324,-16,c)
);
},
{
pos = (327,-443);
ref = shortstrokecomb;
}
);
width = 551;
},
{
anchors = (
{
name = bottom;
pos = (334,0);
},
{
name = center;
pos = (324,350);
},
{
name = hook;
pos = (567,680);
},
{
name = stroke;
pos = (501,320);
},
{
name = top;
pos = (337,700);
}
);
layerId = m01;
shapes = (
{
closed = 1;
nodes = (
(421,-10,o),
(515,3,o),
(566,30,c),
(566,143,o),
(569,219,o),
(577,354,c),
(486,354,l),
(489,331,o),
(491,286,o),
(491,271,c),
(448,267,o),
(390,263,o),
(315,263,cs),
(159,263,o),
(122,271,o),
(103,287,cs),
(93,295,o),
(89,311,o),
(89,330,cs),
(89,346,o),
(96,361,o),
(106,368,cs),
(130,384,o),
(156,392,o),
(315,392,cs),
(422,392,o),
(521,386,o),
(567,380,c),
(567,680,l),
(531,692,o),
(440,710,o),
(367,710,cs),
(122,710,o),
(22,599,o),
(22,350,cs),
(22,101,o),
(122,-10,o),
(364,-10,cs)
);
},
{
pos = (358,-284);
ref = shortstrokecomb;
}
);
width = 645;
},
{
anchors = (
{
name = bottom;
pos = (306,0);
},
{
name = center;
pos = (303,350);
},
{
name = hook;
pos = (483,672);
},
{
name = stroke;
pos = (466,159);
},
{
name = top;
pos = (315,700);
}
);
associatedMasterId = "60D037D9-62E9-4843-B070-F1594CB0B0D1";
layerId = "09676FF0-31B0-4825-927E-198097F326A4";
shapes = (
{
closed = 1;
nodes = (
(381,-16,o),
(462,1,o),
(500,19,c),
(500,149,o),
(500,150,o),
(503,287,c),
(468,287,l),
(473,150,o),
(473,149,o),
(473,47,c),
(442,28,o),
(375,18,o),
(323,18,cs),
(250,18,o),
(201,37,o),
(158,76,cs),
(97,131,o),
(61,223,o),
(61,350,cs),
(61,477,o),
(95,561,o),
(161,623,cs),
(195,655,o),
(246,679,o),
(315,679,cs),
(381,679,o),
(441,656,o),
(483,627,c),
(483,672,l),
(455,690,o),
(392,716,o),
(316,716,cs),
(133,716,o),
(38,573,o),
(38,350,cs),
(38,127,o),
(132,-16,o),
(324,-16,c)
);
},
{
pos = (327,-443);
ref = shortstrokecomb;
}
);
width = 551;
}
);
metricLeft = G;
unicode = 484;
},
{
glyphname = H;
kernLeft = KO_H;
kernRight = KO_H;
lastChange = "2025-04-16 10:03:30 +0000";
layers = (
{
anchors = (
{
name = bottom;
pos = (347,0);
},
{
name = center;
pos = (347,588);
},
{
name = hook;
pos = (38,700);
},
{
name = top;
pos = (347,700);
},
{
name = topleft;
pos = (58,700);
}
);
layerId = m01;
shapes = (
{
closed = 1;
nodes = (
(122,0,l),
(119,37,o),
(119,70,o),
(119,98,cs),
(119,171,o),
(132,180,o),
(347,180,cs),
(552,180,o),
(565,171,o),
(565,98,cs),
(565,70,o),
(565,37,o),
(562,0,c),
(646,0,l),
(639,239,o),
(639,239,o),
(639,350,cs),
(639,461,o),
(639,461,o),
(646,700,c),
(562,700,l),
(565,635,o),
(565,607,o),
(565,577,cs),
(565,528,o),
(552,524,o),
(347,524,cs),
(132,524,o),
(119,528,o),
(119,577,cs),
(119,607,o),
(119,635,o),
(122,700,c),
(38,700,l),
(45,461,o),
(45,461,o),
(45,350,cs),
(45,239,o),
(45,239,o),
(38,0,c)
);
}
);
width = 684;
},
{
anchors = (
{
name = bottom;
pos = (297,0);
},
{
name = center;
pos = (297,519);
},
{
name = hook;
pos = (58,700);
},
{
name = top;
pos = (297,700);
},
{
name = topleft;
pos = (56,700);
}
);
layerId = "60D037D9-62E9-4843-B070-F1594CB0B0D1";
shapes = (
{
closed = 1;
nodes = (
(89,0,l),
(86,219,o),
(86,219,o),
(86,319,cs),
(86,350,o),
(98,350,o),
(297,350,cs),
(496,350,o),
(508,350,o),
(508,319,cs),
(508,219,o),
(508,219,o),
(505,0,c),
(536,0,l),
(531,239,o),
(531,239,o),
(531,350,cs),
(531,461,o),
(531,461,o),
(536,700,c),
(505,700,l),
(508,519,o),
(508,519,o),
(508,419,cs),
(508,388,o),
(496,388,o),
(297,388,cs),
(98,388,o),
(86,388,o),
(86,419,cs),
(86,519,o),
(86,519,o),
(89,700,c),
(58,700,l),
(63,461,o),
(63,461,o),
(63,350,cs),
(63,239,o),
(63,239,o),
(58,0,c)
);
}
);
width = 594;
},
{
anchors = (
{
name = bottom;
pos = (297,0);
},
{
name = center;
pos = (297,519);
},
{
name = hook;
pos = (58,700);
},
{
name = top;
pos = (297,700);
},
{
name = topleft;
pos = (56,700);
}
);
associatedMasterId = "60D037D9-62E9-4843-B070-F1594CB0B0D1";
layerId = "09676FF0-31B0-4825-927E-198097F326A4";
shapes = (
{
closed = 1;
nodes = (
(89,0,l),
(86,219,o),
(86,219,o),
(86,319,cs),
(86,350,o),
(98,350,o),
(297,350,cs),
(496,350,o),
(508,350,o),
(508,319,cs),
(508,219,o),
(508,219,o),
(505,0,c),
(536,0,l),
(531,239,o),
(531,239,o),
(531,350,cs),
(531,461,o),
(531,461,o),
(536,700,c),
(505,700,l),
(508,519,o),
(508,519,o),
(508,419,cs),
(508,388,o),
(496,388,o),
(297,388,cs),
(98,388,o),
(86,388,o),
(86,419,cs),
(86,519,o),
(86,519,o),
(89,700,c),
(58,700,l),
(63,461,o),
(63,461,o),
(63,350,cs),
(63,239,o),
(63,239,o),
(58,0,c)
);
}
);
width = 594;
}
);
unicode = 72;
userData = {
KernOnName = H;
};
},
{
glyphname = Hbar;
kernLeft = KO_Hbar;
kernRight = KO_Hbar;
lastChange = "2025-04-16 11:34:01 +0000";
layers = (
{
layerId = "60D037D9-62E9-4843-B070-F1594CB0B0D1";
shapes = (
{
closed = 1;
nodes = (
(195,592,o),
(205,592,o),
(307,592,cs),
(409,592,o),
(419,592,o),
(594,589,c),
(594,624,l),
(419,621,o),
(409,621,o),
(307,621,cs),
(205,621,o),
(195,621,o),
(20,624,c),
(20,589,l)
);
},
{
pos = (10,0);
ref = H;
}
);
width = 614;
},
{
layerId = m01;
shapes = (
{
closed = 1;
nodes = (
(143,591,o),
(162,591,o),
(363,591,cs),
(564,591,o),
(583,591,o),
(716,588,c),
(716,639,l),
(583,636,o),
(564,636,o),
(363,636,cs),
(162,636,o),
(143,636,o),
(10,639,c),
(10,588,l)
);
},
{
pos = (21,0);
ref = H;
}
);
width = 726;
},
{
associatedMasterId = "60D037D9-62E9-4843-B070-F1594CB0B0D1";
layerId = "09676FF0-31B0-4825-927E-198097F326A4";
shapes = (
{
closed = 1;
nodes = (
(195,592,o),
(205,592,o),
(307,592,cs),
(409,592,o),
(419,592,o),
(594,589,c),
(594,624,l),
(419,621,o),
(409,621,o),
(307,621,cs),
(205,621,o),
(195,621,o),
(20,624,c),
(20,589,l)
);
},
{
pos = (10,0);
ref = H;
}
);
width = 614;
}
);
unicode = 294;
},
{
glyphname = Heng;
kernLeft = KO_H;
kernRight = KO_H;
lastChange = "2025-04-16 10:04:07 +0000";
layers = (
{
layerId = "60D037D9-62E9-4843-B070-F1594CB0B0D1";
shapes = (
{
closed = 1;
nodes = (
(451,-217,o),
(482,-209,o),
(502,-187,cs),
(521,-166,o),
(533,-134,o),
(533,-84,cs),
(533,-68,o),
(531,239,o),
(531,350,cs),
(531,461,o),
(531,461,o),
(536,700,c),
(505,700,l),
(508,519,o),
(508,519,o),
(508,419,cs),
(508,388,o),
(496,388,o),
(297,388,cs),
(98,388,o),
(86,388,o),
(86,419,cs),
(86,519,o),
(86,519,o),
(89,700,c),
(58,700,l),
(63,461,o),
(63,461,o),
(63,350,cs),
(63,239,o),
(63,239,o),
(58,0,c),
(89,0,l),
(86,219,o),
(86,219,o),
(86,319,cs),
(86,350,o),
(98,350,o),
(297,350,cs),
(496,350,o),
(508,350,o),
(508,319,cs),
(508,283,o),
(509,21,o),
(509,-67,cs),
(509,-128,o),
(490,-159,o),
(462,-172,cs),
(449,-178,o),
(434,-180,o),
(419,-180,cs),
(405,-180,o),
(390,-177,o),
(377,-173,c),
(377,-211,l),
(391,-215,o),
(406,-217,o),
(420,-217,cs)
);
}
);
width = 594;
},
{
layerId = m01;
shapes = (
{
closed = 1;
nodes = (
(565,-218,o),
(602,-193,o),
(623,-153,cs),
(638,-125,o),
(645,-93,o),
(645,-41,cs),
(645,58,o),
(639,237,o),
(639,350,cs),
(639,461,o),
(639,461,o),
(646,700,c),
(562,700,l),
(565,635,o),
(565,607,o),
(565,577,cs),
(565,528,o),
(552,524,o),
(347,524,cs),
(132,524,o),
(119,528,o),
(119,577,cs),
(119,607,o),
(119,635,o),
(122,700,c),
(38,700,l),
(45,461,o),
(45,461,o),
(45,350,cs),
(45,239,o),
(45,239,o),
(38,0,c),
(122,0,l),
(119,37,o),
(119,70,o),
(119,98,cs),
(119,171,o),
(132,180,o),
(347,180,cs),
(547,180,o),
(565,171,o),
(565,102,cs),
(565,68,o),
(565,30,o),
(564,21,cs),
(562,-3,o),
(553,-21,o),
(544,-29,cs),
(527,-44,o),
(512,-47,o),
(494,-47,cs),
(474,-47,o),
(466,-45,o),
(441,-37,c),
(441,-212,l),
(468,-216,o),
(487,-218,o),
(511,-218,cs)
);
}
);
width = 684;
},
{
associatedMasterId = "60D037D9-62E9-4843-B070-F1594CB0B0D1";
layerId = "09676FF0-31B0-4825-927E-198097F326A4";
shapes = (
{
closed = 1;
nodes = (
(451,-217,o),
(482,-209,o),
(502,-187,cs),
(521,-166,o),
(533,-134,o),
(533,-84,cs),
(533,-68,o),
(531,239,o),
(531,350,cs),
(531,461,o),
(531,461,o),
(536,700,c),
(505,700,l),
(508,519,o),
(508,519,o),
(508,419,cs),
(508,388,o),
(496,388,o),
(297,388,cs),
(98,388,o),
(86,388,o),
(86,419,cs),
(86,519,o),
(86,519,o),
(89,700,c),
(58,700,l),
(63,461,o),
(63,461,o),
(63,350,cs),
(63,239,o),
(63,239,o),
(58,0,c),
(89,0,l),
(86,219,o),
(86,219,o),
(86,319,cs),
(86,350,o),
(98,350,o),
(297,350,cs),
(496,350,o),
(508,350,o),
(508,319,cs),
(508,283,o),
(509,21,o),
(509,-67,cs),
(509,-128,o),
(490,-159,o),
(462,-172,cs),
(449,-178,o),
(434,-180,o),
(419,-180,cs),
(405,-180,o),
(390,-177,o),
(377,-173,c),
(377,-211,l),
(391,-215,o),
(406,-217,o),
(420,-217,cs)
);
}
);
width = 594;
}
);
metricLeft = H;
metricRight = H;
unicode = 42790;
},
{
glyphname = Hturned;
lastChange = "2025-04-16 10:04:02 +0000";
layers = (
{
layerId = "60D037D9-62E9-4843-B070-F1594CB0B0D1";
shapes = (
{
closed = 1;
nodes = (
(528,0,l),
(523,239,o),
(523,239,o),
(523,350,cs),
(523,461,o),
(523,461,o),
(528,700,c),
(497,700,l),
(500,519,o),
(500,519,o),
(500,419,cs),
(500,388,o),
(488,388,o),
(289,388,cs),
(90,388,o),
(78,388,o),
(78,419,cs),
(78,519,o),
(78,519,o),
(81,700,c),
(50,700,l),
(55,461,o),
(55,461,o),
(55,350,cs),
(55,349,o),
(55,349,o),
(55,348,c),
(62,349,o),
(262,350,o),
(289,350,cs),
(488,350,o),
(500,350,o),
(500,319,cs),
(500,219,o),
(500,219,o),
(497,0,c)
);
}
);
width = 586;
},
{
layerId = m01;
shapes = (
{
closed = 1;
nodes = (
(646,0,l),
(639,239,o),
(639,239,o),
(639,350,cs),
(639,461,o),
(639,461,o),
(646,700,c),
(562,700,l),
(565,635,o),
(565,607,o),
(565,577,cs),
(565,528,o),
(552,524,o),
(347,524,cs),
(132,524,o),
(119,528,o),
(119,577,cs),
(119,607,o),
(119,635,o),
(122,700,c),
(38,700,l),
(45,461,o),
(45,461,o),
(45,350,cs),
(45,278,o),
(45,245,o),
(43,171,c),
(287,180,o),
(315,180,o),
(347,180,cs),
(552,180,o),
(565,171,o),
(565,98,cs),
(565,70,o),
(565,37,o),
(562,0,c)
);
}
);
width = 684;
},
{
associatedMasterId = "60D037D9-62E9-4843-B070-F1594CB0B0D1";
layerId = "09676FF0-31B0-4825-927E-198097F326A4";
shapes = (
{
closed = 1;
nodes = (
(528,0,l),
(523,239,o),
(523,239,o),
(523,350,cs),
(523,461,o),
(523,461,o),
(528,700,c),
(497,700,l),
(500,519,o),
(500,519,o),
(500,419,cs),
(500,388,o),
(488,388,o),
(289,388,cs),
(90,388,o),
(78,388,o),
(78,419,cs),
(78,519,o),
(78,519,o),
(81,700,c),
(50,700,l),
(55,461,o),
(55,461,o),
(55,350,cs),
(55,349,o),
(55,349,o),
(55,348,c),
(62,349,o),
(262,350,o),
(289,350,cs),
(488,350,o),
(500,350,o),
(500,319,cs),
(500,219,o),
(500,219,o),
(497,0,c)
);
}
);
width = 586;
}
);
metricRight = H;
unicode = 42893;
},
{
glyphname = I;
kernLeft = KO_I;
kernRight = KO_I;
lastChange = "2025-04-16 10:04:00 +0000";
layers = (
{
anchors = (
{
name = bottom;
pos = (216,0);
},
{
name = center;
pos = (216,350);
},
{
name = ogonek;
pos = (398,0);
},
{
name = top;
pos = (216,700);
},
{
name = topleft;
pos = (34,700);
}
);
layerId = m01;
shapes = (
{
closed = 1;
nodes = (
(398,0,l),
(398,303,l),
(368,301,o),
(345,300,o),
(327,300,cs),
(285,300,o),
(269,302,o),
(258,313,cs),
(250,321,o),
(248,332,o),
(248,350,cs),
(248,370,o),
(250,379,o),
(258,387,cs),
(268,398,o),
(285,400,o),
(327,400,cs),
(345,400,o),
(368,399,o),
(398,397,c),
(398,700,l),
(34,700,l),
(34,397,l),
(64,399,o),
(87,400,o),
(105,400,cs),
(148,400,o),
(164,398,o),
(174,387,cs),
(182,379,o),
(184,368,o),
(184,350,cs),
(184,332,o),
(182,321,o),
(174,313,cs),
(164,302,o),
(148,300,o),
(105,300,cs),
(87,300,o),
(64,301,o),
(34,303,c),
(34,0,l)
);
}
);
width = 432;
},
{
anchors = (
{
name = bottom;
pos = (153,0);
},
{
name = center;
pos = (153,350);
},
{
name = ogonek;
pos = (273,0);
},
{
name = top;
pos = (153,700);
},
{
name = topleft;
pos = (32,700);
}
);
layerId = "60D037D9-62E9-4843-B070-F1594CB0B0D1";
shapes = (
{
closed = 1;
nodes = (
(273,0,l),
(273,39,l),
(255,39,o),
(240,39,o),
(228,39,cs),
(189,39,o),
(181,40,o),
(175,45,cs),
(165,53,o),
(164,68,o),
(164,350,cs),
(164,632,o),
(166,647,o),
(176,655,cs),
(182,660,o),
(190,661,o),
(229,661,cs),
(241,661,o),
(256,661,o),
(274,661,c),
(274,700,l),
(32,700,l),
(32,661,l),
(50,661,o),
(65,661,o),
(77,661,cs),
(116,661,o),
(124,660,o),
(130,655,cs),
(140,647,o),
(142,632,o),
(142,350,cs),
(142,68,o),
(140,53,o),
(130,45,cs),
(124,40,o),
(116,39,o),
(77,39,cs),
(65,39,o),
(50,39,o),
(32,39,c),
(32,0,l)
);
}
);
width = 306;
},
{
anchors = (
{
name = bottom;
pos = (153,0);
},
{
name = center;
pos = (153,350);
},
{
name = ogonek;
pos = (273,0);
},
{
name = top;
pos = (153,700);
},
{
name = topleft;
pos = (32,700);
}
);
associatedMasterId = "60D037D9-62E9-4843-B070-F1594CB0B0D1";
layerId = "09676FF0-31B0-4825-927E-198097F326A4";
shapes = (
{
closed = 1;
nodes = (
(273,0,l),
(273,36,l),
(255,36,o),
(240,36,o),
(228,36,cs),
(189,36,o),
(181,37,o),
(175,42,cs),
(165,50,o),
(164,65,o),
(164,350,cs),
(164,635,o),
(166,650,o),
(176,658,cs),
(182,663,o),
(190,664,o),
(229,664,cs),
(241,664,o),
(256,664,o),
(274,664,c),
(274,700,l),
(32,700,l),
(32,664,l),
(50,664,o),
(65,664,o),
(77,664,cs),
(116,664,o),
(124,663,o),
(130,658,cs),
(140,650,o),
(142,635,o),
(142,350,cs),
(142,65,o),
(140,50,o),
(130,42,cs),
(124,37,o),
(116,36,o),
(77,36,cs),
(65,36,o),
(50,36,o),
(32,36,c),
(32,0,l)
);
}
);
width = 306;
}
);
unicode = 73;
userData = {
KernOnName = I;
};
},
{
glyphname = "Iota-latin";
kernLeft = KO_I;
kernRight = KO_Iota;
lastChange = "2025-04-16 10:03:57 +0000";
layers = (
{
anchors = (
{
name = bottom;
pos = (184,0);
},
{
name = center;
pos = (191,368);
},
{
name = top;
pos = (184,739);
},
{
name = topright;
pos = (373,739);
}
);
layerId = "60D037D9-62E9-4843-B070-F1594CB0B0D1";
shapes = (
{
closed = 1;
nodes = (
(260,-16,o),
(281,-12,o),
(291,-10,c),
(291,31,l),
(276,27,o),
(254,22,o),
(231,22,cs),
(199,22,o),
(165,37,o),
(154,81,cs),
(147,109,o),
(147,130,o),
(147,366,cs),
(147,477,o),
(147,589,o),
(147,700,c),
(32,700,l),
(32,667,l),
(46,667,o),
(57,667,o),
(66,667,cs),
(100,667,o),
(107,666,o),
(113,661,cs),
(123,653,o),
(125,638,o),
(125,118,cs),
(125,53,o),
(147,13,o),
(177,-2,cs),
(199,-13,o),
(213,-16,o),
(236,-16,cs)
);
}
);
width = 323;
},
{
anchors = (
{
name = bottom;
pos = (185,0);
},
{
name = center;
pos = (205,324);
},
{
name = top;
pos = (185,741);
},
{
name = topright;
pos = (347,738);
}
);
layerId = m01;
shapes = (
{
closed = 1;
nodes = (
(377,-10,o),
(409,-3,o),
(432,4,c),
(432,299,l),
(395,287,o),
(362,282,o),
(331,282,cs),
(305,282,o),
(281,287,o),
(268,304,cs),
(255,322,o),
(246,339,o),
(246,424,cs),
(246,486,o),
(246,486,o),
(249,700,c),
(34,700,l),
(34,397,l),
(52,399,o),
(71,400,o),
(89,400,cs),
(118,400,o),
(145,396,o),
(155,389,cs),
(173,376,o),
(176,363,o),
(176,310,cs),
(176,197,o),
(176,117,o),
(199,67,cs),
(225,11,o),
(274,-10,o),
(337,-10,cs)
);
}
);
width = 466;
},
{
anchors = (
{
name = bottom;
pos = (184,0);
},
{
name = center;
pos = (191,368);
},
{
name = top;
pos = (184,739);
},
{
name = topright;
pos = (373,739);
}
);
associatedMasterId = "60D037D9-62E9-4843-B070-F1594CB0B0D1";
layerId = "09676FF0-31B0-4825-927E-198097F326A4";
shapes = (
{
closed = 1;
nodes = (
(260,-16,o),
(281,-12,o),
(291,-10,c),
(291,31,l),
(276,27,o),
(254,22,o),
(231,22,cs),
(199,22,o),
(165,37,o),
(154,81,cs),
(147,109,o),
(147,130,o),
(147,366,cs),
(147,477,o),
(147,589,o),
(147,700,c),
(32,700,l),
(32,667,l),
(46,667,o),
(57,667,o),
(66,667,cs),
(100,667,o),
(107,666,o),
(113,661,cs),
(123,653,o),
(125,638,o),
(125,118,cs),
(125,53,o),
(147,13,o),
(177,-2,cs),
(199,-13,o),
(213,-16,o),
(236,-16,cs)
);
}
);
width = 323;
}
);
metricLeft = I;
metricRight = I;
unicode = 406;
},
{
glyphname = J;
kernLeft = KO_J;
kernRight = KO_J;
lastChange = "2025-04-16 10:03:55 +0000";
layers = (
{
anchors = (
{
name = bottom;
pos = (236,0);
},
{
name = center;
pos = (305,345);
},
{
name = top;
pos = (296,700);
}
);
layerId = m01;
shapes = (
{
closed = 1;
nodes = (
(289,-8,o),
(339,43,o),
(339,150,cs),
(339,330,ls),
(339,361,o),
(342,378,o),
(352,388,cs),
(362,398,o),
(379,400,o),
(407,400,cs),
(425,400,o),
(448,399,o),
(478,397,c),
(478,700,l),
(114,700,l),
(114,397,l),
(144,399,o),
(166,400,o),
(184,400,cs),
(223,400,o),
(246,398,o),
(257,389,cs),
(268,380,o),
(272,366,o),
(272,340,cs),
(272,320,o),
(267,308,o),
(259,299,cs),
(246,285,o),
(221,283,o),
(181,283,cs),
(116,283,o),
(63,298,o),
(30,312,c),
(30,5,l),
(57,-1,o),
(105,-8,o),
(167,-8,cs)
);
}
);
width = 512;
},
{
anchors = (
{
name = bottom;
pos = (214,0);
},
{
name = center;
pos = (242,350);
},
{
name = top;
pos = (237,700);
}
);
layerId = "60D037D9-62E9-4843-B070-F1594CB0B0D1";
shapes = (
{
closed = 1;
nodes = (
(230,-16,o),
(253,44,o),
(253,147,cs),
(253,259,ls),
(253,635,o),
(255,650,o),
(265,658,cs),
(271,663,o),
(279,664,o),
(318,664,cs),
(330,664,o),
(345,664,o),
(363,664,c),
(363,700,l),
(121,700,l),
(121,664,l),
(139,664,o),
(154,664,o),
(166,664,cs),
(205,664,o),
(213,663,o),
(219,658,cs),
(229,650,o),
(231,635,o),
(231,259,cs),
(231,128,o),
(232,75,o),
(205,46,cs),
(189,28,o),
(164,18,o),
(140,18,cs),
(94,18,o),
(60,32,o),
(26,62,c),
(26,19,l),
(51,-3,o),
(98,-16,o),
(134,-16,cs)
);
}
);
width = 393;
},
{
anchors = (
{
name = bottom;
pos = (214,0);
},
{
name = center;
pos = (242,350);
},
{
name = top;
pos = (237,700);
}
);
associatedMasterId = "60D037D9-62E9-4843-B070-F1594CB0B0D1";
layerId = "09676FF0-31B0-4825-927E-198097F326A4";
shapes = (
{
closed = 1;
nodes = (
(230,-16,o),
(253,44,o),
(253,147,cs),
(253,259,ls),
(253,635,o),
(255,650,o),
(265,658,cs),
(271,663,o),
(279,664,o),
(318,664,cs),
(330,664,o),
(345,664,o),
(363,664,c),
(363,700,l),
(121,700,l),
(121,664,l),
(139,664,o),
(154,664,o),
(166,664,cs),
(205,664,o),
(213,663,o),
(219,658,cs),
(229,650,o),
(231,635,o),
(231,259,cs),
(231,128,o),
(232,75,o),
(205,46,cs),
(189,28,o),
(164,18,o),
(130,18,cs),
(94,18,o),
(60,32,o),
(26,62,c),
(26,19,l),
(51,-3,o),
(98,-16,o),
(124,-16,cs)
);
}
);
width = 393;
}
);
unicode = 74;
userData = {
KernOnName = J;
};
},
{
glyphname = Jcrossedtail;
kernLeft = KO_Jcrossed;
kernRight = KO_J;
lastChange = "2025-04-16 10:03:52 +0000";
layers = (
{
layerId = "60D037D9-62E9-4843-B070-F1594CB0B0D1";
shapes = (
{
closed = 1;
nodes = (
(198,-16,o),
(220,46,o),
(220,148,cs),
(220,185,ls),
(220,635,o),
(222,650,o),
(232,658,cs),
(238,663,o),
(246,664,o),
(285,664,cs),
(300,664,o),
(315,664,o),
(330,664,c),
(330,700,l),
(88,700,l),
(88,664,l),
(103,664,o),
(118,664,o),
(133,664,cs),
(172,664,o),
(180,663,o),
(186,658,cs),
(196,650,o),
(198,635,o),
(198,185,cs),
(198,65,o),
(188,21,o),
(110,21,cs),
(70,21,o),
(45,48,o),
(45,80,cs),
(45,169,o),
(223,170,o),
(292,170,c),
(292,197,l),
(227,197,o),
(125,195,o),
(66,157,cs),
(38,140,o),
(20,114,o),
(20,77,cs),
(20,12,o),
(70,-16,o),
(110,-16,cs)
);
}
);
width = 360;
},
{
layerId = m01;
shapes = (
{
closed = 1;
nodes = (
(303,-8,o),
(349,48,o),
(349,150,cs),
(349,330,ls),
(349,361,o),
(352,378,o),
(362,388,cs),
(372,398,o),
(389,400,o),
(417,400,cs),
(435,400,o),
(458,399,o),
(488,397,c),
(488,700,l),
(124,700,l),
(124,397,l),
(154,399,o),
(176,400,o),
(194,400,cs),
(233,400,o),
(256,398,o),
(267,389,cs),
(278,380,o),
(282,366,o),
(282,340,cs),
(282,295,o),
(262,283,o),
(208,283,cs),
(168,283,o),
(151,288,o),
(151,299,cs),
(151,318,o),
(176,324,o),
(431,328,c),
(431,363,l),
(255,363,o),
(143,360,o),
(84,327,cs),
(12,286,o),
(10,210,o),
(10,171,cs),
(10,44,o),
(88,-8,o),
(193,-8,cs)
);
}
);
width = 522;
},
{
associatedMasterId = m01;
background = {
shapes = (
{
pos = (23,0);
ref = J;
},
{
closed = 1;
nodes = (
(451,377,l),
(128,377,o),
(10,327,o),
(10,164,cs),
(10,54,o),
(70,-8,o),
(185,-8,cs),
(318,-8,o),
(364,56,o),
(364,190,cs),
(364,350,ls),
(364,419,o),
(368,431,o),
(388,444,cs),
(398,451,o),
(415,455,o),
(452,455,cs),
(470,455,o),
(493,454,o),
(523,452,c),
(523,700,l),
(136,700,l),
(136,452,l),
(166,454,o),
(189,455,o),
(207,455,cs),
(244,455,o),
(261,451,o),
(271,444,cs),
(291,431,o),
(295,419,o),
(295,350,cs),
(295,271,o),
(295,223,o),
(214,223,cs),
(169,223,o),
(141,237,o),
(141,265,cs),
(141,276,o),
(146,321,o),
(451,325,c)
);
}
);
};
layerId = "15DBE68A-2F50-497D-AC77-637DADE741F4";
name = "7 Apr 25 at 16:17";
width = 551;
},
{
associatedMasterId = "60D037D9-62E9-4843-B070-F1594CB0B0D1";
layerId = "09676FF0-31B0-4825-927E-198097F326A4";
shapes = (
{
closed = 1;
nodes = (
(198,-16,o),
(220,46,o),
(220,148,cs),
(220,185,ls),
(220,635,o),
(222,650,o),
(232,658,cs),
(238,663,o),
(246,664,o),
(285,664,cs),
(300,664,o),
(315,664,o),
(330,664,c),
(330,700,l),
(88,700,l),
(88,664,l),
(103,664,o),
(118,664,o),
(133,664,cs),
(172,664,o),
(180,663,o),
(186,658,cs),
(196,650,o),
(198,635,o),
(198,185,cs),
(198,65,o),
(188,21,o),
(110,21,cs),
(70,21,o),
(45,48,o),
(45,80,cs),
(45,169,o),
(223,170,o),
(292,170,c),
(292,197,l),
(227,197,o),
(125,195,o),
(66,157,cs),
(38,140,o),
(20,114,o),
(20,77,cs),
(20,12,o),
(70,-16,o),
(110,-16,cs)
);
}
);
width = 360;
}
);
metricRight = J;
unicode = 42930;
},
{
glyphname = K;
kernLeft = KO_H;
kernRight = KO_K;
lastChange = "2025-04-16 10:03:49 +0000";
layers = (
{
anchors = (
{
name = bottom;
pos = (277,0);
},
{
name = hook;
pos = (515,700);
},
{
name = stroke;
pos = (77,551);
},
{
name = top;
pos = (277,700);
}
);
layerId = "60D037D9-62E9-4843-B070-F1594CB0B0D1";
shapes = (
{
closed = 1;
nodes = (
(528,-8,o),
(541,-5,o),
(552,-1,c),
(552,41,l),
(538,35,o),
(521,32,o),
(506,32,cs),
(442,32,o),
(429,65,o),
(314,365,c),
(306,345,l),
(313,345,o),
(334,345,o),
(357,394,cs),
(371,423,o),
(492,661,o),
(515,700,c),
(475,700,l),
(335,392,o),
(330,384,o),
(295,380,cs),
(276,378,o),
(235,378,o),
(204,378,cs),
(111,378,o),
(102,378,o),
(92,386,cs),
(87,392,o),
(86,401,o),
(86,437,cs),
(86,493,o),
(86,493,o),
(90,700,c),
(58,700,l),
(62,461,o),
(62,461,o),
(62,350,cs),
(62,239,o),
(62,239,o),
(58,0,c),
(90,0,l),
(87,82,o),
(84,258,o),
(84,274,cs),
(84,319,o),
(84,330,o),
(92,336,cs),
(102,344,o),
(161,345,o),
(302,345,c),
(287,364,l),
(400,82,o),
(412,-8,o),
(504,-8,cs)
);
}
);
width = 568;
},
{
anchors = (
{
name = bottom;
pos = (285,0);
},
{
name = hook;
pos = (585,700);
},
{
name = stroke;
pos = (120,606);
},
{
name = top;
pos = (305,700);
}
);
layerId = m01;
shapes = (
{
closed = 1;
nodes = (
(496,-10,o),
(579,1,o),
(604,13,c),
(604,285,l),
(556,255,o),
(478,235,o),
(416,235,cs),
(323,235,o),
(292,259,o),
(294,288,c),
(292,272,l),
(443,272,o),
(529,311,o),
(556,430,cs),
(562,457,o),
(581,634,o),
(590,700,c),
(503,700,l),
(507,563,o),
(505,558,o),
(480,547,cs),
(457,537,o),
(375,537,o),
(310,537,cs),
(194,537,o),
(146,540,o),
(128,553,cs),
(118,560,o),
(117,573,o),
(117,590,cs),
(117,620,o),
(117,648,o),
(120,700,c),
(38,700,l),
(44,461,o),
(44,461,o),
(44,350,cs),
(44,239,o),
(44,239,o),
(38,0,c),
(120,0,l),
(116,90,o),
(115,121,o),
(115,155,cs),
(115,208,o),
(118,238,o),
(138,254,cs),
(159,270,o),
(204,272,o),
(266,269,c),
(223,298,l),
(214,160,o),
(266,-10,o),
(463,-10,cs)
);
}
);
width = 628;
},
{
anchors = (
{
name = bottom;
pos = (277,0);
},
{
name = hook;
pos = (513,700);
},
{
name = stroke;
pos = (77,551);
},
{
name = top;
pos = (277,700);
}
);
associatedMasterId = "60D037D9-62E9-4843-B070-F1594CB0B0D1";
background = {
shapes = (
{
pos = (4,0);
ref = R;
}
);
};
layerId = "2EB86F20-22FD-4D80-B2FE-D7FEF52D9F4A";
name = "4 Apr 25 at 22:58";
shapes = (
{
closed = 1;
nodes = (
(90,0,l),
(87,82,o),
(84,258,o),
(84,274,cs),
(84,319,o),
(84,330,o),
(92,336,cs),
(101,343,o),
(118,343,o),
(256,343,c),
(345,97,o),
(384,-8,o),
(504,-8,cs),
(528,-8,o),
(541,-5,o),
(552,-1,c),
(552,41,l),
(538,35,o),
(521,32,o),
(506,32,cs),
(419,32,o),
(373,93,o),
(281,343,c),
(321,345,o),
(348,362,o),
(366,386,cs),
(377,401,o),
(399,432,o),
(528,700,c),
(487,700,l),
(462,631,o),
(454,613,o),
(406,509,cs),
(384,461,o),
(358,412,o),
(335,395,cs),
(317,382,o),
(304,378,o),
(204,378,cs),
(111,378,o),
(102,378,o),
(92,386,cs),
(87,392,o),
(86,401,o),
(86,437,cs),
(86,493,o),
(86,493,o),
(90,700,c),
(58,700,l),
(62,461,o),
(62,461,o),
(62,350,cs),
(62,239,o),
(62,239,o),
(58,0,c)
);
}
);
width = 588;
},
{
anchors = (
{
name = bottom;
pos = (277,0);
},
{
name = hook;
pos = (513,700);
},
{
name = stroke;
pos = (77,551);
},
{
name = top;
pos = (277,700);
}
);
associatedMasterId = "60D037D9-62E9-4843-B070-F1594CB0B0D1";
background = {
shapes = (
{
closed = 1;
nodes = (
(73,0,l),
(70,82,o),
(67,258,o),
(67,274,cs),
(67,319,o),
(67,330,o),
(75,336,cs),
(86,344,o),
(139,345,o),
(299,345,c),
(290,352,l),
(376,70,o),
(414,-8,o),
(504,-8,cs),
(514,-8,o),
(533,-6,o),
(547,0,c),
(547,35,l),
(537,30,o),
(523,25,o),
(507,25,cs),
(487,25,o),
(470,29,o),
(451,43,cs),
(413,72,o),
(369,173,o),
(316,358,c),
(308,349,l),
(315,350,o),
(326,353,o),
(339,368,cs),
(359,391,o),
(411,493,o),
(511,700,c),
(469,700,l),
(443,631,o),
(436,613,o),
(387,509,cs),
(364,461,o),
(336,407,o),
(313,390,cs),
(295,377,o),
(277,378,o),
(187,378,cs),
(94,378,o),
(85,378,o),
(75,386,cs),
(70,392,o),
(69,401,o),
(69,437,cs),
(69,493,o),
(69,493,o),
(73,700,c),
(41,700,l),
(45,461,o),
(45,461,o),
(45,350,cs),
(45,239,o),
(45,239,o),
(41,0,c)
);
}
);
};
layerId = "974FF371-8EE4-4D57-BD48-1EB5258E1453";
name = "4 Apr 25 at 23:51";
shapes = (
{
closed = 1;
nodes = (
(90,0,l),
(87,82,o),
(84,258,o),
(84,274,cs),
(84,319,o),
(84,330,o),
(92,336,cs),
(102,344,o),
(161,345,o),
(302,345,c),
(287,364,l),
(400,82,o),
(412,-8,o),
(504,-8,cs),
(528,-8,o),
(541,-5,o),
(552,-1,c),
(552,41,l),
(538,35,o),
(521,32,o),
(506,32,cs),
(442,32,o),
(429,65,o),
(314,365,c),
(306,345,l),
(308,345,o),
(319,347,o),
(322,349,cs),
(343,363,o),
(356,388,o),
(429,524,cs),
(467,595,o),
(481,620,o),
(527,700,c),
(487,700,l),
(466,655,o),
(360,428,o),
(329,397,cs),
(321,389,o),
(313,381,o),
(296,380,cs),
(282,379,o),
(249,378,o),
(204,378,cs),
(111,378,o),
(102,378,o),
(92,386,cs),
(87,392,o),
(86,401,o),
(86,437,cs),
(86,493,o),
(86,493,o),
(90,700,c),
(58,700,l),
(62,461,o),
(62,461,o),
(62,350,cs),
(62,239,o),
(62,239,o),
(58,0,c)
);
}
);
width = 568;
},
{
anchors = (
{
name = bottom;
pos = (277,0);
},
{
name = hook;
pos = (513,700);
},
{
name = stroke;
pos = (77,551);
},
{
name = top;
pos = (277,700);
}
);
associatedMasterId = "60D037D9-62E9-4843-B070-F1594CB0B0D1";
background = {
shapes = (
{
closed = 1;
nodes = (
(73,0,l),
(70,82,o),
(67,258,o),
(67,274,cs),
(67,319,o),
(67,330,o),
(75,336,cs),
(86,344,o),
(139,345,o),
(299,345,c),
(290,352,l),
(376,70,o),
(414,-8,o),
(504,-8,cs),
(514,-8,o),
(533,-6,o),
(547,0,c),
(547,35,l),
(537,30,o),
(523,25,o),
(507,25,cs),
(487,25,o),
(470,29,o),
(451,43,cs),
(413,72,o),
(369,173,o),
(316,358,c),
(308,349,l),
(315,350,o),
(326,353,o),
(339,368,cs),
(359,391,o),
(411,493,o),
(511,700,c),
(469,700,l),
(443,631,o),
(436,613,o),
(387,509,cs),
(364,461,o),
(336,407,o),
(313,390,cs),
(295,377,o),
(277,378,o),
(187,378,cs),
(94,378,o),
(85,378,o),
(75,386,cs),
(70,392,o),
(69,401,o),
(69,437,cs),
(69,493,o),
(69,493,o),
(73,700,c),
(41,700,l),
(45,461,o),
(45,461,o),
(45,350,cs),
(45,239,o),
(45,239,o),
(41,0,c)
);
}
);
};
layerId = "38E4F7C7-7754-4299-8590-203293743257";
name = "9 Apr 25 at 21:33";
shapes = (
{
closed = 1;
nodes = (
(90,0,l),
(87,82,o),
(84,258,o),
(84,274,cs),
(84,319,o),
(84,330,o),
(92,336,cs),
(102,344,o),
(161,345,o),
(302,345,c),
(287,364,l),
(400,82,o),
(412,-8,o),
(504,-8,cs),
(528,-8,o),
(541,-5,o),
(552,-1,c),
(552,41,l),
(538,35,o),
(521,32,o),
(506,32,cs),
(442,32,o),
(429,65,o),
(314,365,c),
(306,345,l),
(308,345,o),
(319,347,o),
(322,349,cs),
(343,363,o),
(355,385,o),
(423,524,cs),
(458,595,o),
(469,620,o),
(509,700,c),
(472,700,l),
(457,655,o),
(362,433,o),
(324,397,cs),
(317,390,o),
(304,381,o),
(287,380,cs),
(273,379,o),
(252,378,o),
(204,378,cs),
(111,378,o),
(102,378,o),
(92,386,cs),
(87,392,o),
(86,401,o),
(86,437,cs),
(86,493,o),
(86,493,o),
(90,700,c),
(58,700,l),
(62,461,o),
(62,461,o),
(62,350,cs),
(62,239,o),
(62,239,o),
(58,0,c)
);
}
);
width = 568;
},
{
anchors = (
{
name = bottom;
pos = (277,0);
},
{
name = hook;
pos = (515,700);
},
{
name = stroke;
pos = (77,551);
},
{
name = top;
pos = (277,700);
}
);
associatedMasterId = "60D037D9-62E9-4843-B070-F1594CB0B0D1";
layerId = "09676FF0-31B0-4825-927E-198097F326A4";
shapes = (
{
closed = 1;
nodes = (
(528,-8,o),
(541,-5,o),
(552,-1,c),
(552,41,l),
(538,35,o),
(521,32,o),
(506,32,cs),
(442,32,o),
(429,65,o),
(314,365,c),
(306,345,l),
(313,345,o),
(334,345,o),
(357,394,cs),
(371,423,o),
(492,661,o),
(515,700,c),
(475,700,l),
(335,392,o),
(330,384,o),
(295,380,cs),
(276,378,o),
(235,378,o),
(204,378,cs),
(111,378,o),
(102,378,o),
(92,386,cs),
(87,392,o),
(86,401,o),
(86,437,cs),
(86,493,o),
(86,493,o),
(90,700,c),
(58,700,l),
(62,461,o),
(62,461,o),
(62,350,cs),
(62,239,o),
(62,239,o),
(58,0,c),
(90,0,l),
(87,82,o),
(84,258,o),
(84,274,cs),
(84,319,o),
(84,330,o),
(92,336,cs),
(102,344,o),
(161,345,o),
(302,345,c),
(287,364,l),
(400,82,o),
(412,-8,o),
(504,-8,cs)
);
}
);
width = 568;
}
);
metricLeft = H;
unicode = 75;
userData = {
KernOnName = K;
};
},
{
glyphname = Khook;
kernLeft = KO_H;
kernRight = KO_forwardhook;
lastChange = "2025-04-16 10:03:47 +0000";
layers = (
{
layerId = "60D037D9-62E9-4843-B070-F1594CB0B0D1";
shapes = (
{
closed = 1;
nodes = (
(528,-8,o),
(541,-5,o),
(552,-1,c),
(552,41,l),
(538,35,o),
(521,32,o),
(506,32,cs),
(442,32,o),
(429,65,o),
(314,365,c),
(306,345,l),
(313,345,o),
(332,347,o),
(357,395,cs),
(364,409,o),
(395,472,o),
(426,537,cs),
(446,579,o),
(467,622,o),
(481,652,cs),
(494,681,o),
(527,683,o),
(549,679,c),
(549,716,l),
(511,716,o),
(481,717,o),
(461,674,cs),
(446,642,o),
(357,437,o),
(328,399,cs),
(316,384,o),
(307,381,o),
(295,380,cs),
(276,378,o),
(235,378,o),
(204,378,cs),
(111,378,o),
(102,378,o),
(92,386,cs),
(87,392,o),
(86,401,o),
(86,437,cs),
(86,493,o),
(86,493,o),
(90,700,c),
(58,700,l),
(62,461,o),
(62,461,o),
(62,350,cs),
(62,239,o),
(62,239,o),
(58,0,c),
(90,0,l),
(87,82,o),
(84,258,o),
(84,274,cs),
(84,319,o),
(84,330,o),
(92,336,cs),
(102,344,o),
(161,345,o),
(302,345,c),
(287,364,l),
(400,82,o),
(412,-8,o),
(504,-8,cs)
);
}
);
width = 572;
},
{
layerId = m01;
shapes = (
{
closed = 1;
nodes = (
(496,-10,o),
(579,1,o),
(604,13,c),
(604,285,l),
(556,255,o),
(478,235,o),
(416,235,cs),
(323,235,o),
(292,259,o),
(294,288,c),
(292,272,l),
(443,272,o),
(529,311,o),
(556,430,cs),
(558,440,o),
(562,465,o),
(565,501,cs),
(567,523,o),
(569,545,o),
(572,564,cs),
(579,608,o),
(618,604,o),
(654,602,c),
(654,708,l),
(589,715,o),
(538,696,o),
(518,651,cs),
(502,615,o),
(511,570,o),
(499,555,cs),
(490,544,o),
(479,542,o),
(458,540,cs),
(422,537,o),
(356,537,o),
(310,537,cs),
(194,537,o),
(146,540,o),
(128,553,cs),
(118,560,o),
(117,573,o),
(117,590,cs),
(117,620,o),
(117,648,o),
(120,700,c),
(38,700,l),
(44,461,o),
(44,461,o),
(44,350,cs),
(44,239,o),
(44,239,o),
(38,0,c),
(120,0,l),
(116,90,o),
(115,121,o),
(115,155,cs),
(115,208,o),
(118,238,o),
(138,254,cs),
(159,270,o),
(204,272,o),
(266,269,c),
(223,298,l),
(214,160,o),
(266,-10,o),
(463,-10,cs)
);
}
);
width = 666;
},
{
associatedMasterId = "60D037D9-62E9-4843-B070-F1594CB0B0D1";
layerId = "09676FF0-31B0-4825-927E-198097F326A4";
shapes = (
{
closed = 1;
nodes = (
(528,-8,o),
(541,-5,o),
(552,-1,c),
(552,41,l),
(538,35,o),
(521,32,o),
(506,32,cs),
(442,32,o),
(429,65,o),
(314,365,c),
(306,345,l),
(313,345,o),
(332,347,o),
(357,395,cs),
(364,409,o),
(395,472,o),
(426,537,cs),
(446,579,o),
(467,622,o),
(481,652,cs),
(494,681,o),
(527,683,o),
(549,679,c),
(549,716,l),
(511,716,o),
(481,717,o),
(461,674,cs),
(446,642,o),
(357,437,o),
(328,399,cs),
(316,384,o),
(307,381,o),
(295,380,cs),
(276,378,o),
(235,378,o),
(204,378,cs),
(111,378,o),
(102,378,o),
(92,386,cs),
(87,392,o),
(86,401,o),
(86,437,cs),
(86,493,o),
(86,493,o),
(90,700,c),
(58,700,l),
(62,461,o),
(62,461,o),
(62,350,cs),
(62,239,o),
(62,239,o),
(58,0,c),
(90,0,l),
(87,82,o),
(84,258,o),
(84,274,cs),
(84,319,o),
(84,330,o),
(92,336,cs),
(102,344,o),
(161,345,o),
(302,345,c),
(287,364,l),
(400,82,o),
(412,-8,o),
(504,-8,cs)
);
}
);
width = 572;
}
);
metricLeft = K;
unicode = 408;
},
{
glyphname = Kstroke;
kernLeft = KO_Kstroke;
kernRight = KO_K;
lastChange = "2025-04-16 11:21:41 +0000";
layers = (
{
layerId = "60D037D9-62E9-4843-B070-F1594CB0B0D1";
shapes = (
{
closed = 1;
nodes = (
(43,593,o),
(46,593,o),
(65,593,cs),
(155,593,o),
(159,593,o),
(192,591,c),
(192,623,l),
(159,621,o),
(155,621,o),
(65,621,cs),
(46,621,o),
(43,621,o),
(10,623,c),
(10,591,l)
);
},
{
pos = (11,0);
ref = K;
}
);
width = 579;
},
{
layerId = m01;
shapes = (
{
closed = 1;
nodes = (
(90,609,o),
(104,609,o),
(132,609,cs),
(160,609,o),
(174,609,o),
(250,604,c),
(250,654,l),
(174,651,o),
(160,651,o),
(132,651,cs),
(104,651,o),
(90,651,o),
(14,654,c),
(14,604,l)
);
},
{
alignment = -1;
pos = (50,0);
ref = K;
}
);
width = 678;
},
{
associatedMasterId = "60D037D9-62E9-4843-B070-F1594CB0B0D1";
layerId = "09676FF0-31B0-4825-927E-198097F326A4";
shapes = (
{
closed = 1;
nodes = (
(43,593,o),
(46,593,o),
(65,593,cs),
(155,593,o),
(159,593,o),
(192,591,c),
(192,623,l),
(159,621,o),
(155,621,o),
(65,621,cs),
(46,621,o),
(43,621,o),
(10,623,c),
(10,591,l)
);
},
{
pos = (11,0);
ref = K;
}
);
width = 579;
}
);
metricRight = K;
unicode = 42816;
},
{
glyphname = L;
kernLeft = KO_H;
kernRight = KO_L;
lastChange = "2025-04-16 10:03:43 +0000";
layers = (
{
anchors = (
{
name = bottom;
pos = (276,0);
},
{
name = center;
pos = (120,433);
},
{
name = top;
pos = (287,700);
},
{
name = topright;
pos = (473,700);
}
);
layerId = m01;
shapes = (
{
closed = 1;
nodes = (
(524,0,l),
(524,298,l),
(495,297,o),
(287,295,o),
(257,295,cs),
(161,295,o),
(140,298,o),
(127,308,cs),
(116,316,o),
(114,328,o),
(114,346,cs),
(114,377,o),
(116,481,o),
(122,700,c),
(38,700,l),
(43,461,o),
(43,461,o),
(43,350,cs),
(43,239,o),
(43,239,o),
(38,0,c)
);
}
);
width = 556;
},
{
anchors = (
{
name = bottom;
pos = (223,0);
},
{
name = center;
pos = (133,397);
},
{
name = top;
pos = (223,700);
},
{
name = topright;
pos = (366,700);
}
);
layerId = "60D037D9-62E9-4843-B070-F1594CB0B0D1";
shapes = (
{
closed = 1;
nodes = (
(394,0,l),
(394,37,l),
(267,37,o),
(217,37,o),
(142,37,cs),
(115,37,o),
(106,37,o),
(98,43,cs),
(88,51,o),
(86,66,o),
(86,107,cs),
(86,307,o),
(87,477,o),
(91,701,c),
(58,701,l),
(62,462,o),
(62,461,o),
(62,350,cs),
(62,239,o),
(62,239,o),
(59,0,c)
);
}
);
width = 426;
},
{
anchors = (
{
name = bottom;
pos = (223,0);
},
{
name = center;
pos = (133,397);
},
{
name = top;
pos = (223,700);
},
{
name = topright;
pos = (366,700);
}
);
associatedMasterId = "60D037D9-62E9-4843-B070-F1594CB0B0D1";
layerId = "09676FF0-31B0-4825-927E-198097F326A4";
shapes = (
{
closed = 1;
nodes = (
(394,0,l),
(394,37,l),
(267,37,o),
(217,37,o),
(142,37,cs),
(115,37,o),
(106,37,o),
(98,43,cs),
(88,51,o),
(86,66,o),
(86,107,cs),
(86,307,o),
(87,477,o),
(91,701,c),
(58,701,l),
(62,462,o),
(62,461,o),
(62,350,cs),
(62,239,o),
(62,239,o),
(59,0,c)
);
}
);
width = 426;
}
);
metricLeft = H;
unicode = 76;
userData = {
KernOnName = L;
};
},
{
glyphname = Lbelt;
kernLeft = KO_Lbelt;
kernRight = KO_L;
lastChange = "2025-04-16 10:03:39 +0000";
layers = (
{
layerId = "60D037D9-62E9-4843-B070-F1594CB0B0D1";
shapes = (
{
closed = 1;
nodes = (
(237,399,l),
(183,397,o),
(165,397,o),
(128,397,cs),
(65,397,o),
(43,397,o),
(43,417,cs),
(43,427,o),
(51,435,o),
(67,435,cs),
(85,435,o),
(99,424,o),
(110,400,c),
(110,427,l),
(103,453,o),
(83,466,o),
(58,466,cs),
(34,466,o),
(10,453,o),
(10,420,cs),
(10,374,o),
(47,369,o),
(128,369,cs),
(150,369,o),
(183,369,o),
(237,367,c)
);
},
{
pos = (42,0);
ref = L;
}
);
width = 468;
},
{
layerId = m01;
shapes = (
{
closed = 1;
nodes = (
(308,445,l),
(216,442,o),
(206,442,o),
(133,442,cs),
(97,442,o),
(84,454,o),
(84,471,cs),
(84,483,o),
(92,490,o),
(103,490,cs),
(114,490,o),
(128,482,o),
(137,457,c),
(137,519,l),
(125,544,o),
(97,552,o),
(72,552,cs),
(36,552,o),
(0,526,o),
(0,480,cs),
(0,424,o),
(46,384,o),
(137,384,cs),
(191,384,o),
(217,384,o),
(308,381,c)
);
},
{
pos = (73,0);
ref = L;
}
);
width = 629;
},
{
associatedMasterId = "60D037D9-62E9-4843-B070-F1594CB0B0D1";
layerId = "09676FF0-31B0-4825-927E-198097F326A4";
shapes = (
{
closed = 1;
nodes = (
(237,399,l),
(183,397,o),
(165,397,o),
(128,397,cs),
(65,397,o),
(43,397,o),
(43,417,cs),
(43,427,o),
(51,435,o),
(67,435,cs),
(85,435,o),
(99,424,o),
(110,400,c),
(110,427,l),
(103,453,o),
(83,466,o),
(58,466,cs),
(34,466,o),
(10,453,o),
(10,420,cs),
(10,374,o),
(47,369,o),
(128,369,cs),
(150,369,o),
(183,369,o),
(237,367,c)
);
},
{
pos = (42,0);
ref = L;
}
);
width = 468;
}
);
metricRight = L;
unicode = 42925;
},
{
glyphname = Lmiddletilde;
kernLeft = KO_Lmidtilde;
kernRight = KO_L;
lastChange = "2025-04-16 10:04:10 +0000";
layers = (
{
layerId = "60D037D9-62E9-4843-B070-F1594CB0B0D1";
shapes = (
{
closed = 1;
nodes = (
(152,339,o),
(163,369,o),
(163,415,c),
(121,415,l),
(121,372,o),
(111,371,o),
(106,371,cs),
(99,371,o),
(93,378,o),
(85,388,c),
(76,368,l),
(77,367,o),
(77,367,o),
(77,367,cs),
(88,353,o),
(102,339,o),
(118,339,cs)
);
},
{
closed = 1;
nodes = (
(31,340,l),
(31,383,o),
(41,384,o),
(46,384,cs),
(53,384,o),
(59,377,o),
(66,368,c),
(75,388,l),
(75,388,o),
(75,388,o),
(75,388,cs),
(64,402,o),
(50,416,o),
(34,416,cs),
(0,416,o),
(-11,386,o),
(-11,340,c)
);
},
{
ref = L;
}
);
width = 426;
},
{
layerId = m01;
shapes = (
{
closed = 1;
nodes = (
(310,383,o),
(348,411,o),
(348,509,c),
(252,509,l),
(252,477,o),
(237,459,o),
(222,459,cs),
(214,459,o),
(207,463,o),
(199,470,c),
(199,422,l),
(202,420,o),
(204,418,o),
(207,415,cs),
(221,401,o),
(239,383,o),
(267,383,cs)
);
},
{
closed = 1;
nodes = (
(106,384,l),
(106,416,o),
(121,434,o),
(136,434,cs),
(145,434,o),
(151,430,o),
(159,422,c),
(159,470,l),
(157,472,o),
(154,475,o),
(151,478,cs),
(137,492,o),
(119,510,o),
(91,510,cs),
(48,510,o),
(10,482,o),
(10,384,c)
);
},
{
pos = (100,0);
ref = L;
}
);
width = 656;
},
{
associatedMasterId = "60D037D9-62E9-4843-B070-F1594CB0B0D1";
layerId = "09676FF0-31B0-4825-927E-198097F326A4";
shapes = (
{
closed = 1;
nodes = (
(152,339,o),
(163,369,o),
(163,415,c),
(121,415,l),
(121,372,o),
(111,371,o),
(106,371,cs),
(99,371,o),
(93,378,o),
(85,388,c),
(76,368,l),
(76,368,o),
(77,367,o),
(77,367,cs),
(88,353,o),
(102,339,o),
(118,339,cs)
);
},
{
closed = 1;
nodes = (
(31,340,l),
(31,383,o),
(41,384,o),
(46,384,cs),
(53,384,o),
(59,377,o),
(66,368,c),
(75,388,l),
(75,388,o),
(75,388,o),
(75,388,cs),
(64,402,o),
(50,416,o),
(34,416,cs),
(0,416,o),
(-11,386,o),
(-11,340,c)
);
},
{
ref = L;
}
);
width = 426;
}
);
metricRight = L;
unicode = 11362;
},
{
glyphname = Lslash;
kernLeft = KO_Lslash;
kernRight = KO_L;
lastChange = "2025-04-14 14:20:44 +0000";
layers = (
{
layerId = "60D037D9-62E9-4843-B070-F1594CB0B0D1";
shapes = (
{
closed = 1;
nodes = (
(69,373,o),
(69,373,o),
(114,388,cs),
(158,403,o),
(158,403,o),
(245,432,c),
(245,466,l),
(153,433,o),
(153,433,o),
(111,418,cs),
(67,402,o),
(67,402,o),
(-24,373,c),
(-24,341,l)
);
},
{
ref = L;
}
);
width = 426;
},
{
layerId = m01;
shapes = (
{
closed = 1;
nodes = (
(97,395,o),
(97,395,o),
(138,410,cs),
(179,425,o),
(179,425,o),
(268,454,c),
(268,524,l),
(179,491,o),
(179,491,o),
(138,476,cs),
(97,461,o),
(97,461,o),
(10,431,c),
(10,361,l)
);
},
{
pos = (54,0);
ref = L;
}
);
width = 610;
},
{
associatedMasterId = "60D037D9-62E9-4843-B070-F1594CB0B0D1";
layerId = "09676FF0-31B0-4825-927E-198097F326A4";
shapes = (
{
closed = 1;
nodes = (
(69,373,o),
(69,373,o),
(114,388,cs),
(158,403,o),
(158,403,o),
(245,432,c),
(245,466,l),
(153,433,o),
(153,433,o),
(111,418,cs),
(67,402,o),
(67,402,o),
(-24,373,c),
(-24,341,l)
);
},
{
ref = L;
}
);
width = 426;
}
);
metricRight = L;
unicode = 321;
},
{
glyphname = M;
kernLeft = KO_H;
kernRight = KO_H;
lastChange = "2025-04-16 10:04:12 +0000";
layers = (
{
anchors = (
{
name = bottom;
pos = (407,0);
},
{
name = top;
pos = (407,700);
}
);
layerId = m01;
shapes = (
{
closed = 1;
nodes = (
(119,0,l),
(116,97,o),
(114,163,o),
(114,230,cs),
(114,269,o),
(121,285,o),
(136,297,cs),
(147,306,o),
(165,310,o),
(210,310,cs),
(244,310,o),
(269,309,o),
(287,293,cs),
(315,268,o),
(320,242,o),
(361,0,c),
(453,0,l),
(494,242,o),
(499,268,o),
(527,293,cs),
(545,309,o),
(570,310,o),
(604,310,cs),
(649,310,o),
(667,306,o),
(678,297,cs),
(693,284,o),
(699,269,o),
(699,230,cs),
(699,163,o),
(698,97,o),
(695,0,c),
(776,0,l),
(770,239,o),
(770,239,o),
(770,350,cs),
(770,461,o),
(770,461,o),
(776,700,c),
(478,700,l),
(461,387,o),
(446,353,o),
(407,353,cs),
(368,353,o),
(353,387,o),
(336,700,c),
(38,700,l),
(44,461,o),
(44,461,o),
(44,350,cs),
(44,239,o),
(44,239,o),
(38,0,c)
);
}
);
width = 814;
},
{
anchors = (
{
name = bottom;
pos = (365,0);
},
{
name = top;
pos = (365,700);
}
);
layerId = "60D037D9-62E9-4843-B070-F1594CB0B0D1";
shapes = (
{
closed = 1;
nodes = (
(91,0,l),
(87,207,o),
(85,349,o),
(85,446,cs),
(85,633,o),
(87,644,o),
(100,655,cs),
(106,660,o),
(125,661,o),
(149,661,cs),
(185,661,o),
(191,658,o),
(199,646,cs),
(208,632,o),
(234,498,o),
(307,0,c),
(422,0,l),
(495,498,o),
(520,632,o),
(530,646,cs),
(538,658,o),
(544,661,o),
(580,661,cs),
(604,661,o),
(623,660,o),
(629,655,cs),
(642,644,o),
(644,633,o),
(644,447,cs),
(644,350,o),
(642,207,o),
(638,0,c),
(671,0,l),
(667,239,o),
(667,239,o),
(667,350,cs),
(667,461,o),
(667,461,o),
(670,700,c),
(508,700,l),
(405,36,o),
(405,36,o),
(365,36,cs),
(324,36,o),
(324,36,o),
(221,700,c),
(59,700,l),
(62,461,o),
(62,461,o),
(62,350,cs),
(62,239,o),
(62,239,o),
(58,0,c)
);
}
);
width = 729;
},
{
anchors = (
{
name = bottom;
pos = (365,0);
},
{
name = top;
pos = (365,700);
}
);
associatedMasterId = "60D037D9-62E9-4843-B070-F1594CB0B0D1";
layerId = "09676FF0-31B0-4825-927E-198097F326A4";
shapes = (
{
closed = 1;
nodes = (
(91,0,l),
(87,207,o),
(85,349,o),
(85,446,cs),
(85,633,o),
(87,644,o),
(100,655,cs),
(106,660,o),
(115,661,o),
(139,661,cs),
(165,661,o),
(177,658,o),
(185,646,cs),
(194,632,o),
(224,498,o),
(317,0,c),
(412,0,l),
(505,498,o),
(534,632,o),
(544,646,cs),
(552,658,o),
(564,661,o),
(590,661,cs),
(614,661,o),
(623,660,o),
(629,655,cs),
(642,644,o),
(644,633,o),
(644,447,cs),
(644,350,o),
(642,207,o),
(638,0,c),
(671,0,l),
(667,239,o),
(667,239,o),
(667,350,cs),
(667,461,o),
(667,461,o),
(670,700,c),
(518,700,l),
(395,36,o),
(395,36,o),
(365,36,cs),
(334,36,o),
(334,36,o),
(211,700,c),
(59,700,l),
(62,461,o),
(62,461,o),
(62,350,cs),
(62,239,o),
(62,239,o),
(58,0,c)
);
}
);
width = 729;
},
{
anchors = (
{
name = bottom;
pos = (365,0);
},
{
name = top;
pos = (365,700);
}
);
associatedMasterId = "60D037D9-62E9-4843-B070-F1594CB0B0D1";
background = {
shapes = (
{
closed = 1;
nodes = (
(91,0,l),
(87,207,o),
(85,349,o),
(85,446,cs),
(85,633,o),
(87,644,o),
(100,655,cs),
(106,660,o),
(115,661,o),
(149,661,cs),
(185,661,o),
(198,660,o),
(205,654,cs),
(216,644,o),
(239,498,o),
(317,0,c),
(412,0,l),
(490,498,o),
(513,644,o),
(524,654,cs),
(531,660,o),
(544,661,o),
(580,661,cs),
(614,661,o),
(623,660,o),
(629,655,cs),
(642,644,o),
(644,633,o),
(644,447,cs),
(644,350,o),
(642,207,o),
(638,0,c),
(671,0,l),
(667,239,o),
(667,239,o),
(667,350,cs),
(667,461,o),
(667,461,o),
(670,700,c),
(498,700,l),
(395,36,o),
(395,36,o),
(365,36,cs),
(334,36,o),
(334,36,o),
(231,700,c),
(59,700,l),
(62,461,o),
(62,461,o),
(62,350,cs),
(62,239,o),
(62,239,o),
(58,0,c)
);
}
);
};
layerId = "64F88A45-A881-4C56-97F2-F7990A1E572C";
name = "15 Apr 25 at 08:55";
shapes = (
{
closed = 1;
nodes = (
(91,0,l),
(87,207,o),
(85,349,o),
(85,446,cs),
(85,633,o),
(87,644,o),
(100,655,cs),
(106,660,o),
(115,661,o),
(139,661,cs),
(165,661,o),
(177,658,o),
(185,646,cs),
(194,632,o),
(214,498,o),
(307,0,c),
(422,0,l),
(515,498,o),
(534,632,o),
(544,646,cs),
(552,658,o),
(564,661,o),
(590,661,cs),
(614,661,o),
(623,660,o),
(629,655,cs),
(642,644,o),
(644,633,o),
(644,447,cs),
(644,350,o),
(642,207,o),
(638,0,c),
(671,0,l),
(667,239,o),
(667,239,o),
(667,350,cs),
(667,461,o),
(667,461,o),
(670,700,c),
(518,700,l),
(405,36,o),
(405,36,o),
(365,36,cs),
(324,36,o),
(324,36,o),
(211,700,c),
(59,700,l),
(62,461,o),
(62,461,o),
(62,350,cs),
(62,239,o),
(62,239,o),
(58,0,c)
);
}
);
width = 729;
}
);
metricLeft = H;
metricRight = H;
unicode = 77;
userData = {
KernOnName = M;
};
},
{
glyphname = Mturned;
lastChange = "2025-04-16 10:04:14 +0000";
layers = (
{
layerId = "60D037D9-62E9-4843-B070-F1594CB0B0D1";
shapes = (
{
closed = 1;
nodes = (
(286,-16,o),
(340,36,o),
(368,82,cs),
(382,105,o),
(387,109,o),
(392,109,cs),
(399,109,o),
(400,107,o),
(408,78,cs),
(420,37,o),
(453,-16,o),
(542,-16,cs),
(621,-16,o),
(675,42,o),
(694,72,cs),
(707,93,o),
(710,97,o),
(716,97,cs),
(723,97,o),
(723,90,o),
(723,50,cs),
(723,38,o),
(722,19,o),
(721,0,c),
(751,0,l),
(746,146,o),
(746,146,o),
(746,207,cs),
(746,270,o),
(746,270,o),
(751,700,c),
(719,700,l),
(723,327,o),
(723,327,o),
(723,240,cs),
(723,104,o),
(658,21,o),
(550,21,cs),
(488,21,o),
(414,51,o),
(414,175,cs),
(414,325,o),
(414,325,o),
(418,700,c),
(387,700,l),
(391,325,o),
(391,325,o),
(391,240,cs),
(391,112,o),
(330,21,o),
(218,21,cs),
(157,21,o),
(81,51,o),
(81,175,cs),
(81,327,o),
(81,327,o),
(85,700,c),
(54,700,l),
(58,327,o),
(58,325,o),
(58,150,cs),
(58,55,o),
(116,-16,o),
(205,-16,cs)
);
}
);
width = 805;
},
{
layerId = m01;
shapes = (
{
closed = 1;
nodes = (
(286,-10,o),
(345,37,o),
(369,75,cs),
(388,105,o),
(392,111,o),
(398,111,cs),
(404,111,o),
(408,102,o),
(412,91,cs),
(434,30,o),
(478,-10,o),
(556,-10,cs),
(638,-10,o),
(676,35,o),
(696,62,cs),
(714,87,o),
(723,98,o),
(730,98,cs),
(740,98,o),
(740,86,o),
(740,67,cs),
(740,50,o),
(738,25,o),
(736,0,c),
(816,0,l),
(815,29,o),
(812,177,o),
(812,253,cs),
(812,333,o),
(812,436,o),
(816,700,c),
(733,700,l),
(736,524,o),
(737,456,o),
(737,418,cs),
(737,341,o),
(725,335,o),
(599,335,cs),
(473,335,o),
(461,341,o),
(461,418,cs),
(461,456,o),
(462,524,o),
(465,700,c),
(383,700,l),
(386,524,o),
(387,456,o),
(387,418,cs),
(387,341,o),
(375,335,o),
(249,335,cs),
(123,335,o),
(111,341,o),
(111,418,cs),
(111,456,o),
(111,524,o),
(114,700,c),
(31,700,l),
(36,436,o),
(37,320,o),
(37,159,cs),
(37,41,o),
(120,-10,o),
(211,-10,cs)
);
}
);
width = 853;
},
{
associatedMasterId = "60D037D9-62E9-4843-B070-F1594CB0B0D1";
layerId = "09676FF0-31B0-4825-927E-198097F326A4";
shapes = (
{
closed = 1;
nodes = (
(286,-16,o),
(340,36,o),
(368,82,cs),
(382,105,o),
(387,109,o),
(392,109,cs),
(399,109,o),
(400,107,o),
(408,78,cs),
(420,37,o),
(453,-16,o),
(542,-16,cs),
(621,-16,o),
(675,42,o),
(694,72,cs),
(707,93,o),
(710,97,o),
(716,97,cs),
(723,97,o),
(723,90,o),
(723,50,cs),
(723,38,o),
(722,19,o),
(721,0,c),
(751,0,l),
(746,146,o),
(746,146,o),
(746,207,cs),
(746,270,o),
(746,270,o),
(751,700,c),
(719,700,l),
(723,327,o),
(723,327,o),
(723,240,cs),
(723,104,o),
(658,21,o),
(550,21,cs),
(488,21,o),
(414,51,o),
(414,175,cs),
(414,325,o),
(414,325,o),
(418,700,c),
(387,700,l),
(391,325,o),
(391,325,o),
(391,240,cs),
(391,112,o),
(330,21,o),
(218,21,cs),
(157,21,o),
(81,51,o),
(81,175,cs),
(81,327,o),
(81,327,o),
(85,700,c),
(54,700,l),
(58,327,o),
(58,325,o),
(58,150,cs),
(58,55,o),
(116,-16,o),
(205,-16,cs)
);
}
);
width = 805;
}
);
unicode = 412;
},
{
glyphname = N;
kernLeft = KO_H;
kernRight = KO_H;
lastChange = "2025-04-16 10:04:15 +0000";
layers = (
{
anchors = (
{
name = bottom;
pos = (304,0);
},
{
name = top;
pos = (304,700);
}
);
backgroundImage = {
imagePath = "../../../../Desktop/Screenshot 2025-02-25 at 13.49.40.png";
locked = 1;
pos = (-1280,-830);
scale = (2.4694,2.4694);
};
layerId = m01;
shapes = (
{
closed = 1;
nodes = (
(122,0,l),
(118,102,o),
(116,170,o),
(116,222,cs),
(116,269,o),
(117,289,o),
(122,310,cs),
(128,335,o),
(145,342,o),
(206,342,cs),
(250,342,o),
(281,335,o),
(306,312,cs),
(333,288,o),
(351,252,o),
(422,0,c),
(603,0,l),
(597,319,o),
(597,319,o),
(597,350,cs),
(597,381,o),
(597,381,o),
(603,700,c),
(519,700,l),
(523,639,o),
(525,559,o),
(525,493,cs),
(525,453,o),
(522,421,o),
(514,409,cs),
(504,395,o),
(494,391,o),
(459,391,cs),
(418,391,o),
(403,399,o),
(384,434,cs),
(357,485,o),
(336,544,o),
(289,700,c),
(38,700,l),
(44,381,o),
(44,381,o),
(44,350,cs),
(44,319,o),
(44,319,o),
(38,0,c)
);
}
);
width = 641;
},
{
anchors = (
{
name = bottom;
pos = (282,0);
},
{
name = top;
pos = (299,700);
}
);
layerId = "60D037D9-62E9-4843-B070-F1594CB0B0D1";
shapes = (
{
closed = 1;
nodes = (
(92,0,l),
(85,224,o),
(85,449,o),
(85,538,cs),
(85,644,o),
(90,650,o),
(97,656,cs),
(103,661,o),
(112,662,o),
(131,662,cs),
(150,662,o),
(166,661,o),
(172,655,cs),
(183,644,o),
(191,633,o),
(401,0,c),
(533,0,l),
(530,239,o),
(530,239,o),
(530,350,cs),
(530,461,o),
(530,461,o),
(535,700,c),
(501,700,l),
(507,476,o),
(509,248,o),
(509,159,cs),
(509,53,o),
(504,47,o),
(497,41,cs),
(491,36,o),
(482,35,o),
(463,35,cs),
(444,35,o),
(428,36,o),
(422,42,cs),
(411,53,o),
(401,64,o),
(193,700,c),
(61,700,l),
(64,461,o),
(64,461,o),
(64,350,cs),
(64,239,o),
(64,239,o),
(58,0,c)
);
}
);
width = 593;
},
{
anchors = (
{
name = bottom;
pos = (282,0);
},
{
name = top;
pos = (299,700);
}
);
associatedMasterId = "60D037D9-62E9-4843-B070-F1594CB0B0D1";
layerId = "09676FF0-31B0-4825-927E-198097F326A4";
shapes = (
{
closed = 1;
nodes = (
(92,0,l),
(85,224,o),
(85,449,o),
(85,538,cs),
(85,644,o),
(90,650,o),
(97,656,cs),
(103,661,o),
(112,662,o),
(131,662,cs),
(150,662,o),
(167,660,o),
(172,655,cs),
(182,645,o),
(191,633,o),
(401,0,c),
(533,0,l),
(530,239,o),
(530,239,o),
(530,350,cs),
(530,461,o),
(530,461,o),
(535,700,c),
(501,700,l),
(507,476,o),
(509,248,o),
(509,159,cs),
(509,53,o),
(504,47,o),
(497,41,cs),
(491,36,o),
(482,35,o),
(463,35,cs),
(444,35,o),
(427,37,o),
(422,42,cs),
(412,52,o),
(401,64,o),
(193,700,c),
(61,700,l),
(64,461,o),
(64,461,o),
(64,350,cs),
(64,239,o),
(64,239,o),
(58,0,c)
);
}
);
width = 593;
}
);
metricLeft = H;
metricRight = H;
unicode = 78;
userData = {
KernOnName = N;
};
},
{
glyphname = Nhookleft;
kernLeft = KO_Fhook;
kernRight = KO_N;
lastChange = "2025-04-16 10:04:18 +0000";
layers = (
{
anchors = (
{
name = bottom;
pos = (429,0);
},
{
name = top;
pos = (446,700);
}
);
layerId = "60D037D9-62E9-4843-B070-F1594CB0B0D1";
shapes = (
{
closed = 1;
nodes = (
(3,-217,o),
(34,-209,o),
(54,-187,cs),
(73,-166,o),
(85,-133,o),
(85,-83,cs),
(85,-37,o),
(83,460,o),
(83,538,cs),
(83,644,o),
(88,650,o),
(95,656,cs),
(101,661,o),
(110,662,o),
(129,662,cs),
(148,662,o),
(165,660,o),
(170,655,cs),
(180,645,o),
(188,633,o),
(399,0,c),
(531,0,l),
(528,239,o),
(528,239,o),
(528,350,cs),
(528,461,o),
(528,461,o),
(533,700,c),
(499,700,l),
(505,476,o),
(507,248,o),
(507,159,cs),
(507,53,o),
(502,47,o),
(495,41,cs),
(489,36,o),
(480,35,o),
(461,35,cs),
(442,35,o),
(425,37,o),
(420,42,cs),
(410,52,o),
(402,64,o),
(191,700,c),
(59,700,l),
(62,461,o),
(62,461,o),
(62,350,cs),
(62,58,o),
(61,176,o),
(61,-67,cs),
(61,-128,o),
(42,-159,o),
(14,-172,cs),
(1,-178,o),
(-14,-180,o),
(-29,-180,cs),
(-43,-180,o),
(-57,-178,o),
(-70,-174,c),
(-70,-212,l),
(-56,-215,o),
(-42,-217,o),
(-28,-217,cs)
);
}
);
width = 591;
},
{
anchors = (
{
name = bottom;
pos = (473,0);
},
{
name = top;
pos = (473,700);
}
);
layerId = m01;
shapes = (
{
closed = 1;
nodes = (
(34,-218,o),
(76,-193,o),
(97,-153,cs),
(112,-125,o),
(118,-93,o),
(118,-28,cs),
(118,32,o),
(117,162,o),
(117,222,cs),
(117,269,o),
(118,289,o),
(123,310,cs),
(129,335,o),
(146,342,o),
(207,342,cs),
(251,342,o),
(282,335,o),
(307,312,cs),
(334,288,o),
(352,252,o),
(423,0,c),
(604,0,l),
(598,319,o),
(598,319,o),
(598,350,cs),
(598,381,o),
(598,381,o),
(604,700,c),
(520,700,l),
(524,639,o),
(526,559,o),
(526,493,cs),
(526,453,o),
(523,421,o),
(515,409,cs),
(505,395,o),
(495,391,o),
(460,391,cs),
(419,391,o),
(404,399,o),
(385,434,cs),
(358,485,o),
(337,544,o),
(290,700,c),
(39,700,l),
(45,381,o),
(45,381,o),
(45,350,cs),
(45,323,o),
(40,59,o),
(39,32,cs),
(38,9,o),
(30,-4,o),
(21,-15,cs),
(6,-32,o),
(-15,-34,o),
(-33,-34,cs),
(-44,-34,o),
(-55,-32,o),
(-86,-24,c),
(-86,-212,l),
(-55,-217,o),
(-44,-218,o),
(-20,-218,cs)
);
}
);
width = 642;
},
{
anchors = (
{
name = bottom;
pos = (429,0);
},
{
name = top;
pos = (446,700);
}
);
associatedMasterId = "60D037D9-62E9-4843-B070-F1594CB0B0D1";
layerId = "09676FF0-31B0-4825-927E-198097F326A4";
shapes = (
{
closed = 1;
nodes = (
(3,-217,o),
(34,-209,o),
(54,-187,cs),
(73,-166,o),
(85,-133,o),
(85,-83,cs),
(85,-37,o),
(83,460,o),
(83,538,cs),
(83,644,o),
(88,650,o),
(95,656,cs),
(101,661,o),
(110,662,o),
(129,662,cs),
(148,662,o),
(166,659,o),
(170,655,cs),
(179,646,o),
(188,633,o),
(399,0,c),
(531,0,l),
(528,239,o),
(528,239,o),
(528,350,cs),
(528,461,o),
(528,461,o),
(533,700,c),
(499,700,l),
(505,476,o),
(507,248,o),
(507,159,cs),
(507,53,o),
(502,47,o),
(495,41,cs),
(489,36,o),
(480,35,o),
(461,35,cs),
(442,35,o),
(424,38,o),
(420,42,cs),
(411,51,o),
(402,64,o),
(191,700,c),
(59,700,l),
(62,461,o),
(62,461,o),
(62,350,cs),
(62,58,o),
(61,176,o),
(61,-67,cs),
(61,-128,o),
(42,-159,o),
(14,-172,cs),
(1,-178,o),
(-14,-180,o),
(-29,-180,cs),
(-43,-180,o),
(-57,-178,o),
(-70,-174,c),
(-70,-212,l),
(-56,-215,o),
(-42,-217,o),
(-28,-217,cs)
);
}
);
width = 591;
}
);
metricLeft = Fhook;
metricRight = N;
unicode = 413;
},
{
glyphname = Nlongrightleg;
kernLeft = KO_H;
kernRight = KO_H;
lastChange = "2025-04-16 10:04:22 +0000";
layers = (
{
anchors = (
{
name = bottom;
pos = (273,0);
},
{
name = top;
pos = (273,480);
}
);
layerId = "60D037D9-62E9-4843-B070-F1594CB0B0D1";
shapes = (
{
closed = 1;
nodes = (
(490,-207,l),
(486,373,o),
(486,373,o),
(486,547,cs),
(486,642,o),
(431,713,o),
(308,713,cs),
(197,713,o),
(142,655,o),
(120,625,cs),
(105,604,o),
(102,600,o),
(94,600,cs),
(86,600,o),
(86,607,o),
(86,647,cs),
(86,659,o),
(86,678,o),
(87,700,c),
(59,700,l),
(62,552,o),
(62,549,o),
(62,487,cs),
(62,424,o),
(62,424,o),
(58,0,c),
(89,0,l),
(84,375,o),
(84,375,o),
(84,466,cs),
(84,588,o),
(160,676,o),
(298,676,cs),
(379,676,o),
(464,646,o),
(464,522,cs),
(464,373,o),
(464,373,o),
(459,-207,c)
);
}
);
width = 545;
},
{
anchors = (
{
name = bottom;
pos = (277,0);
},
{
name = top;
pos = (277,500);
}
);
layerId = m01;
shapes = (
{
closed = 1;
nodes = (
(575,-200,l),
(571,-3,o),
(570,388,o),
(570,549,cs),
(570,667,o),
(468,710,o),
(355,710,cs),
(252,710,o),
(196,667,o),
(168,635,cs),
(145,609,o),
(138,602,o),
(130,602,cs),
(117,602,o),
(117,614,o),
(117,633,cs),
(117,650,o),
(120,675,o),
(123,700,c),
(38,700,l),
(39,671,o),
(41,525,o),
(41,447,cs),
(41,348,o),
(41,348,o),
(38,0,c),
(123,0,l),
(118,96,o),
(117,208,o),
(117,265,cs),
(117,326,o),
(132,330,o),
(306,330,cs),
(481,330,o),
(495,326,o),
(495,260,cs),
(495,173,o),
(494,-53,o),
(491,-200,c)
);
}
);
width = 607;
},
{
anchors = (
{
name = bottom;
pos = (273,0);
},
{
name = top;
pos = (273,480);
}
);
associatedMasterId = "60D037D9-62E9-4843-B070-F1594CB0B0D1";
layerId = "09676FF0-31B0-4825-927E-198097F326A4";
shapes = (
{
closed = 1;
nodes = (
(490,-207,l),
(486,373,o),
(486,373,o),
(486,547,cs),
(486,642,o),
(431,713,o),
(308,713,cs),
(197,713,o),
(142,655,o),
(120,625,cs),
(105,604,o),
(102,600,o),
(94,600,cs),
(86,600,o),
(86,607,o),
(86,647,cs),
(86,659,o),
(86,678,o),
(87,700,c),
(59,700,l),
(62,552,o),
(62,549,o),
(62,487,cs),
(62,424,o),
(62,424,o),
(58,0,c),
(89,0,l),
(84,375,o),
(84,375,o),
(84,466,cs),
(84,588,o),
(160,676,o),
(298,676,cs),
(379,676,o),
(464,646,o),
(464,522,cs),
(464,373,o),
(464,373,o),
(459,-207,c)
);
}
);
width = 545;
}
);
metricLeft = H;
unicode = 544;
},
{
glyphname = Eng;
kernLeft = KO_H;
kernRight = KO_H;
lastChange = "2025-04-16 12:00:57 +0000";
layers = (
{
anchors = (
{
name = bottom;
pos = (323,-276);
},
{
name = top;
pos = (320,700);
}
);
layerId = "60D037D9-62E9-4843-B070-F1594CB0B0D1";
shapes = (
{
closed = 1;
nodes = (
(92,0,l),
(85,224,o),
(85,449,o),
(85,538,cs),
(85,644,o),
(90,650,o),
(97,656,cs),
(103,661,o),
(112,662,o),
(131,662,cs),
(150,662,o),
(166,661,o),
(172,655,cs),
(183,644,o),
(190,633,o),
(401,0,c),
(533,0,l),
(530,239,o),
(530,239,o),
(530,350,cs),
(530,461,o),
(530,461,o),
(535,700,c),
(501,700,l),
(507,476,o),
(509,248,o),
(509,159,cs),
(509,53,o),
(504,47,o),
(497,41,cs),
(491,36,o),
(482,35,o),
(463,35,cs),
(444,35,o),
(428,36,o),
(422,42,cs),
(411,53,o),
(404,64,o),
(193,700,c),
(61,700,l),
(64,461,o),
(64,461,o),
(64,350,cs),
(64,239,o),
(64,239,o),
(58,0,c)
);
},
{
closed = 1;
nodes = (
(451,-218,o),
(482,-210,o),
(502,-188,cs),
(521,-167,o),
(533,-134,o),
(533,-84,cs),
(533,-69,o),
(533,-25,o),
(533,0,c),
(509,0,l),
(509,-25,o),
(509,-64,o),
(509,-68,cs),
(509,-129,o),
(490,-160,o),
(462,-173,cs),
(449,-179,o),
(434,-181,o),
(419,-181,cs),
(404,-181,o),
(390,-178,o),
(376,-174,c),
(376,-212,l),
(391,-216,o),
(405,-218,o),
(420,-218,cs)
);
}
);
width = 593;
},
{
anchors = (
{
name = bottom;
pos = (311,-276);
},
{
name = top;
pos = (311,700);
}
);
layerId = m01;
shapes = (
{
closed = 1;
nodes = (
(122,0,l),
(118,102,o),
(116,170,o),
(116,222,cs),
(116,269,o),
(117,289,o),
(122,310,cs),
(128,335,o),
(145,342,o),
(206,342,cs),
(250,342,o),
(281,335,o),
(306,312,cs),
(333,288,o),
(351,252,o),
(422,0,c),
(603,0,l),
(597,319,o),
(597,319,o),
(597,350,cs),
(597,381,o),
(597,381,o),
(603,700,c),
(519,700,l),
(523,639,o),
(525,559,o),
(525,493,cs),
(525,453,o),
(522,421,o),
(514,409,cs),
(504,395,o),
(494,391,o),
(459,391,cs),
(418,391,o),
(403,399,o),
(384,434,cs),
(357,485,o),
(336,544,o),
(289,700,c),
(38,700,l),
(44,381,o),
(44,381,o),
(44,350,cs),
(44,319,o),
(44,319,o),
(38,0,c)
);
},
{
closed = 1;
nodes = (
(521,-218,o),
(560,-193,o),
(581,-153,cs),
(596,-125,o),
(603,-93,o),
(603,-28,cs),
(603,-18,o),
(603,-11,o),
(603,0,c),
(517,0,l),
(517,-2,o),
(517,-4,o),
(516,-6,cs),
(513,-13,o),
(505,-22,o),
(498,-26,cs),
(484,-34,o),
(466,-35,o),
(453,-35,cs),
(440,-35,o),
(419,-32,o),
(399,-25,c),
(399,-212,l),
(431,-217,o),
(443,-218,o),
(467,-218,cs)
);
}
);
width = 641;
},
{
anchors = (
{
name = bottom;
pos = (311,-276);
},
{
name = top;
pos = (311,700);
}
);
associatedMasterId = m01;
background = {
shapes = (
{
closed = 1;
nodes = (
(579,62,l),
(579,93,o),
(579,138,o),
(579,204,cs),
(579,237,o),
(579,251,o),
(591,265,cs),
(610,287,o),
(644,292,o),
(777,292,cs),
(828,292,o),
(828,292,o),
(976,289,c),
(976,364,l),
(828,361,o),
(828,361,o),
(777,361,cs),
(644,361,o),
(602,367,o),
(585,381,cs),
(578,387,o),
(574,397,o),
(574,408,cs),
(574,419,o),
(578,429,o),
(585,435,cs),
(602,449,o),
(644,455,o),
(777,455,cs),
(862,455,o),
(862,455,o),
(1005,452,c),
(1008,700,l),
(500,700,l),
(506,461,o),
(506,461,o),
(506,350,cs),
(506,250,o),
(506,239,o),
(501,62,c)
);
},
{
closed = 1;
nodes = (
(501,62,l),
(501,53,o),
(500,44,o),
(500,34,cs),
(498,-28,o),
(455,-34,o),
(426,-34,cs),
(406,-34,o),
(381,-31,o),
(350,-24,c),
(350,-199,l),
(382,-203,o),
(416,-205,o),
(440,-205,cs),
(494,-205,o),
(536,-180,o),
(557,-140,cs),
(572,-112,o),
(579,-80,o),
(579,-28,cs),
(579,-8,o),
(579,0,o),
(579,62,c)
);
},
{
closed = 1;
nodes = (
(124,0,l),
(119,102,o),
(117,177,o),
(117,229,cs),
(117,276,o),
(118,296,o),
(123,317,cs),
(129,342,o),
(146,349,o),
(201,349,cs),
(250,349,o),
(270,342,o),
(292,316,cs),
(325,276,o),
(335,259,o),
(416,0,c),
(499,0,l),
(499,-7,o),
(496,-13,o),
(492,-18,cs),
(480,-35,o),
(453,-40,o),
(432,-40,cs),
(408,-40,o),
(387,-38,o),
(356,-32,c),
(356,-199,l),
(388,-203,o),
(416,-205,o),
(440,-205,cs),
(494,-205,o),
(540,-182,o),
(561,-142,cs),
(576,-114,o),
(580,-79,o),
(580,-27,cs),
(580,72,o),
(580,72,o),
(580,159,cs),
(580,247,o),
(580,247,o),
(580,350,cs),
(580,381,o),
(580,381,o),
(583,700,c),
(497,700,l),
(503,639,o),
(507,551,o),
(507,485,cs),
(507,445,o),
(504,413,o),
(496,401,cs),
(486,387,o),
(476,383,o),
(444,383,cs),
(408,383,o),
(393,391,o),
(374,426,cs),
(347,477,o),
(326,534,o),
(279,700,c),
(38,700,l),
(41,381,o),
(41,381,o),
(41,350,cs),
(41,319,o),
(41,319,o),
(38,0,c)
);
}
);
};
layerId = "36FC5C16-72DD-4400-A512-7A0DCFE0B4CE";
name = "4 Apr 25 at 13:40";
shapes = (
{
closed = 1;
nodes = (
(122,0,l),
(118,102,o),
(116,177,o),
(116,229,cs),
(116,276,o),
(117,296,o),
(122,317,cs),
(128,342,o),
(145,349,o),
(201,349,cs),
(240,349,o),
(271,342,o),
(296,319,cs),
(323,295,o),
(341,259,o),
(412,0,c),
(583,0,l),
(577,319,o),
(577,319,o),
(577,350,cs),
(577,381,o),
(577,381,o),
(583,700,c),
(499,700,l),
(503,639,o),
(505,552,o),
(505,486,cs),
(505,446,o),
(502,414,o),
(494,402,cs),
(484,388,o),
(474,384,o),
(444,384,cs),
(408,384,o),
(393,392,o),
(374,427,cs),
(347,478,o),
(326,534,o),
(279,700,c),
(38,700,l),
(44,381,o),
(44,381,o),
(44,350,cs),
(44,319,o),
(44,319,o),
(38,0,c)
);
},
{
closed = 1;
nodes = (
(501,62,l),
(501,53,o),
(500,44,o),
(500,34,cs),
(498,-28,o),
(455,-34,o),
(426,-34,cs),
(406,-34,o),
(381,-31,o),
(350,-24,c),
(350,-199,l),
(382,-203,o),
(416,-205,o),
(440,-205,cs),
(494,-205,o),
(536,-180,o),
(557,-140,cs),
(572,-112,o),
(579,-80,o),
(579,-28,cs),
(579,-8,o),
(579,0,o),
(579,62,c)
);
}
);
width = 621;
},
{
anchors = (
{
name = bottom;
pos = (330,-276);
},
{
name = top;
pos = (330,700);
}
);
associatedMasterId = "60D037D9-62E9-4843-B070-F1594CB0B0D1";
layerId = "09676FF0-31B0-4825-927E-198097F326A4";
shapes = (
{
closed = 1;
nodes = (
(92,0,l),
(85,224,o),
(85,449,o),
(85,538,cs),
(85,644,o),
(90,650,o),
(97,656,cs),
(103,661,o),
(112,662,o),
(131,662,cs),
(150,662,o),
(167,660,o),
(172,655,cs),
(182,645,o),
(190,633,o),
(401,0,c),
(533,0,l),
(530,239,o),
(530,239,o),
(530,350,cs),
(530,461,o),
(530,461,o),
(535,700,c),
(501,700,l),
(507,476,o),
(509,248,o),
(509,159,cs),
(509,53,o),
(504,47,o),
(497,41,cs),
(491,36,o),
(482,35,o),
(463,35,cs),
(444,35,o),
(427,37,o),
(422,42,cs),
(412,52,o),
(404,64,o),
(193,700,c),
(61,700,l),
(64,461,o),
(64,461,o),
(64,350,cs),
(64,239,o),
(64,239,o),
(58,0,c)
);
},
{
closed = 1;
nodes = (
(451,-218,o),
(482,-210,o),
(502,-188,cs),
(521,-167,o),
(533,-134,o),
(533,-84,cs),
(533,-69,o),
(533,-25,o),
(533,0,c),
(509,0,l),
(509,-25,o),
(509,-64,o),
(509,-68,cs),
(509,-129,o),
(490,-160,o),
(462,-173,cs),
(449,-179,o),
(434,-181,o),
(419,-181,cs),
(404,-181,o),
(390,-178,o),
(376,-174,c),
(376,-212,l),
(391,-216,o),
(405,-218,o),
(420,-218,cs)
);
}
);
width = 593;
}
);
metricLeft = N;
metricRight = N;
unicode = 330;
},
{
glyphname = O;
kernLeft = KO_O;
kernRight = KO_O;
lastChange = "2025-04-16 11:22:24 +0000";
layers = (
{
anchors = (
{
name = bottom;
pos = (357,0);
},
{
name = center;
pos = (357,350);
},
{
name = ogonek;
pos = (453,10);
},
{
name = top;
pos = (357,700);
},
{
name = topleft;
pos = (30,700);
},
{
name = topright;
pos = (483,696);
}
);
layerId = m01;
shapes = (
{
closed = 1;
nodes = (
(595,-10,o),
(682,95,o),
(682,350,cs),
(682,605,o),
(595,710,o),
(352,710,cs),
(109,710,o),
(22,605,o),
(22,350,cs),
(22,95,o),
(109,-10,o),
(352,-10,cs)
);
},
{
closed = 1;
nodes = (
(126,306,o),
(89,312,o),
(89,350,cs),
(89,388,o),
(126,394,o),
(352,394,cs),
(579,394,o),
(615,388,o),
(615,350,cs),
(615,312,o),
(579,306,o),
(352,306,cs)
);
}
);
width = 704;
},
{
anchors = (
{
name = bottom;
pos = (309,0);
},
{
name = center;
pos = (309,350);
},
{
name = ogonek;
pos = (349,0);
},
{
name = top;
pos = (309,700);
},
{
name = topleft;
pos = (-11,700);
},
{
name = topright;
pos = (376,707);
}
);
layerId = "60D037D9-62E9-4843-B070-F1594CB0B0D1";
shapes = (
{
closed = 1;
nodes = (
(479,-16,o),
(580,103,o),
(580,350,cs),
(580,597,o),
(479,716,o),
(309,716,cs),
(139,716,o),
(38,597,o),
(38,350,cs),
(38,103,o),
(139,-16,o),
(309,-16,cs)
);
},
{
closed = 1;
nodes = (
(157,23,o),
(61,132,o),
(61,350,cs),
(61,568,o),
(157,677,o),
(309,677,cs),
(461,677,o),
(557,568,o),
(557,350,cs),
(557,132,o),
(461,23,o),
(309,23,cs)
);
}
);
width = 618;
},
{
anchors = (
{
name = bottom;
pos = (337,0);
},
{
name = center;
pos = (337,350);
},
{
name = ogonek;
pos = (433,10);
},
{
name = top;
pos = (337,700);
},
{
name = topleft;
pos = (10,700);
},
{
name = topright;
pos = (460,696);
}
);
associatedMasterId = m01;
background = {
shapes = (
{
closed = 1;
nodes = (
(690,168,o),
(690,351,qs),
(690,532,o),
(521,713,o),
(353,713,qs),
(185,713,o),
(17,532,o),
(17,351,qs),
(17,168,o),
(185,-14,o),
(353,-14,qs),
(521,-14,o)
);
},
{
closed = 1;
nodes = (
(110,255,o),
(61,305,o),
(61,351,qs),
(61,395,o),
(110,444,o),
(235,466,o),
(353,466,qs),
(472,466,o),
(597,444,o),
(646,395,o),
(646,351,qs),
(646,305,o),
(598,255,o),
(473,233,o),
(353,233,qs),
(234,233,o)
);
}
);
};
layerId = "53E09754-54AF-4BF1-A8E8-8418A3B55A74";
name = "7 Apr 25 at 00:13";
shapes = (
{
closed = 1;
nodes = (
(566,-10,o),
(652,95,o),
(652,350,cs),
(652,605,o),
(565,710,o),
(337,710,cs),
(109,710,o),
(22,605,o),
(22,350,cs),
(22,95,o),
(108,-10,o),
(337,-10,cs)
);
},
{
closed = 1;
nodes = (
(149,280,o),
(89,300,o),
(89,350,cs),
(89,400,o),
(149,420,o),
(337,420,cs),
(525,420,o),
(585,400,o),
(585,350,cs),
(585,300,o),
(525,280,o),
(337,280,cs)
);
}
);
width = 674;
},
{
anchors = (
{
name = bottom;
pos = (352,0);
},
{
name = center;
pos = (352,350);
},
{
name = ogonek;
pos = (448,10);
},
{
name = top;
pos = (352,700);
},
{
name = topleft;
pos = (25,700);
},
{
name = topright;
pos = (475,696);
}
);
associatedMasterId = m01;
background = {
shapes = (
{
closed = 1;
nodes = (
(705,168,o),
(705,351,qs),
(705,532,o),
(536,713,o),
(368,713,qs),
(200,713,o),
(32,532,o),
(32,351,qs),
(32,168,o),
(200,-14,o),
(368,-14,qs),
(536,-14,o)
);
},
{
closed = 1;
nodes = (
(125,255,o),
(76,305,o),
(76,351,qs),
(76,395,o),
(125,444,o),
(250,466,o),
(368,466,qs),
(487,466,o),
(612,444,o),
(661,395,o),
(661,351,qs),
(661,305,o),
(613,255,o),
(488,233,o),
(368,233,qs),
(249,233,o)
);
}
);
};
layerId = "6B8BAFF1-ED5E-4E6C-BD6A-6621EBF5EF7C";
name = "7 Apr 25 at 10:28";
shapes = (
{
closed = 1;
nodes = (
(586,-10,o),
(672,95,o),
(672,350,cs),
(672,605,o),
(585,710,o),
(352,710,cs),
(109,710,o),
(22,605,o),
(22,350,cs),
(22,95,o),
(108,-10,o),
(352,-10,cs)
);
},
{
closed = 1;
nodes = (
(149,280,o),
(89,300,o),
(89,350,cs),
(89,400,o),
(149,420,o),
(352,420,cs),
(545,420,o),
(605,400,o),
(605,350,cs),
(605,300,o),
(545,280,o),
(352,280,cs)
);
}
);
width = 694;
},
{
anchors = (
{
name = bottom;
pos = (309,0);
},
{
name = center;
pos = (309,350);
},
{
name = ogonek;
pos = (349,0);
},
{
name = top;
pos = (309,700);
},
{
name = topleft;
pos = (-11,700);
},
{
name = topright;
pos = (376,707);
}
);
associatedMasterId = "60D037D9-62E9-4843-B070-F1594CB0B0D1";
layerId = "09676FF0-31B0-4825-927E-198097F326A4";
shapes = (
{
closed = 1;
nodes = (
(479,-16,o),
(580,103,o),
(580,350,cs),
(580,597,o),
(479,716,o),
(309,716,cs),
(139,716,o),
(38,597,o),
(38,350,cs),
(38,103,o),
(139,-16,o),
(309,-16,cs)
);
},
{
closed = 1;
nodes = (
(157,23,o),
(61,132,o),
(61,350,cs),
(61,568,o),
(157,677,o),
(309,677,cs),
(461,677,o),
(557,568,o),
(557,350,cs),
(557,132,o),
(461,23,o),
(309,23,cs)
);
}
);
width = 618;
}
);
unicode = 79;
userData = {
KernOnName = O;
};
},
{
glyphname = OU;
kernLeft = KO_OU;
kernRight = KO_OU;
lastChange = "2025-04-16 10:04:33 +0000";
layers = (
{
layerId = "60D037D9-62E9-4843-B070-F1594CB0B0D1";
shapes = (
{
closed = 1;
nodes = (
(470,-16,o),
(574,70,o),
(574,223,cs),
(574,322,o),
(523,411,o),
(437,440,c),
(471,458,o),
(496,479,o),
(514,515,cs),
(533,554,o),
(537,611,o),
(540,700,c),
(508,700,l),
(509,672,o),
(509,652,o),
(509,634,cs),
(509,607,o),
(507,553,o),
(491,524,cs),
(468,483,o),
(416,461,o),
(306,461,cs),
(196,461,o),
(144,483,o),
(121,524,cs),
(105,553,o),
(103,607,o),
(103,634,cs),
(103,652,o),
(103,672,o),
(104,700,c),
(72,700,l),
(75,611,o),
(79,554,o),
(98,515,cs),
(116,479,o),
(141,458,o),
(175,440,c),
(89,411,o),
(38,322,o),
(38,223,cs),
(38,70,o),
(132,-16,o),
(306,-16,cs)
);
},
{
closed = 1;
nodes = (
(153,21,o),
(61,85,o),
(61,223,cs),
(61,353,o),
(153,425,o),
(306,425,cs),
(459,425,o),
(551,353,o),
(551,223,cs),
(551,85,o),
(459,21,o),
(306,21,cs)
);
}
);
width = 612;
},
{
layerId = m01;
shapes = (
{
closed = 1;
nodes = (
(549,-10,o),
(660,79,o),
(660,249,cs),
(660,321,o),
(651,413,o),
(559,466,c),
(574,480,o),
(587,494,o),
(597,511,cs),
(618,547,o),
(630,594,o),
(630,700,c),
(553,700,l),
(556,661,o),
(556,661,o),
(556,649,cs),
(556,638,o),
(555,631,o),
(548,625,cs),
(531,611,o),
(482,609,o),
(341,609,cs),
(200,609,o),
(151,611,o),
(134,625,cs),
(127,631,o),
(126,638,o),
(126,649,cs),
(126,661,o),
(126,661,o),
(129,700,c),
(52,700,l),
(52,599,o),
(62,552,o),
(81,517,cs),
(93,496,o),
(106,481,o),
(123,466,c),
(31,413,o),
(22,321,o),
(22,249,cs),
(22,79,o),
(133,-10,o),
(341,-10,cs)
);
},
{
closed = 1;
nodes = (
(139,295,o),
(106,301,o),
(106,339,cs),
(106,377,o),
(139,383,o),
(341,383,cs),
(543,383,o),
(576,377,o),
(576,339,cs),
(576,301,o),
(543,295,o),
(341,295,cs)
);
}
);
width = 682;
},
{
associatedMasterId = "60D037D9-62E9-4843-B070-F1594CB0B0D1";
layerId = "09676FF0-31B0-4825-927E-198097F326A4";
shapes = (
{
closed = 1;
nodes = (
(470,-16,o),
(574,70,o),
(574,223,cs),
(574,322,o),
(523,411,o),
(437,440,c),
(471,458,o),
(496,479,o),
(514,515,cs),
(533,554,o),
(537,611,o),
(540,700,c),
(508,700,l),
(509,672,o),
(509,652,o),
(509,634,cs),
(509,607,o),
(507,553,o),
(491,524,cs),
(468,483,o),
(416,461,o),
(306,461,cs),
(196,461,o),
(144,483,o),
(121,524,cs),
(105,553,o),
(103,607,o),
(103,634,cs),
(103,652,o),
(103,672,o),
(104,700,c),
(72,700,l),
(75,611,o),
(79,554,o),
(98,515,cs),
(116,479,o),
(141,458,o),
(175,440,c),
(89,411,o),
(38,322,o),
(38,223,cs),
(38,70,o),
(132,-16,o),
(306,-16,cs)
);
},
{
closed = 1;
nodes = (
(153,21,o),
(61,85,o),
(61,223,cs),
(61,353,o),
(153,425,o),
(306,425,cs),
(459,425,o),
(551,353,o),
(551,223,cs),
(551,85,o),
(459,21,o),
(306,21,cs)
);
}
);
width = 612;
}
);
metricLeft = O;
metricRight = O;
unicode = 546;
},
{
glyphname = Obarred;
kernLeft = KO_O;
kernRight = KO_O;
lastChange = "2025-04-16 11:57:58 +0000";
layers = (
{
layerId = "60D037D9-62E9-4843-B070-F1594CB0B0D1";
shapes = (
{
closed = 1;
nodes = (
(479,-16,o),
(580,103,o),
(580,350,cs),
(580,597,o),
(479,716,o),
(309,716,cs),
(139,716,o),
(38,597,o),
(38,350,cs),
(38,103,o),
(139,-16,o),
(309,-16,cs)
);
},
{
closed = 1;
nodes = (
(161,23,o),
(66,126,o),
(61,333,c),
(219,336,o),
(230,336,o),
(309,336,cs),
(388,336,o),
(399,336,o),
(557,333,c),
(552,126,o),
(457,23,o),
(309,23,cs)
);
},
{
closed = 1;
nodes = (
(66,573,o),
(161,677,o),
(309,677,cs),
(457,677,o),
(552,573,o),
(557,368,c),
(399,365,o),
(388,365,o),
(309,365,cs),
(230,365,o),
(219,365,o),
(61,368,c)
);
}
);
width = 618;
},
{
layerId = m01;
shapes = (
{
closed = 1;
nodes = (
(595,-10,o),
(682,95,o),
(682,350,cs),
(682,605,o),
(595,710,o),
(352,710,cs),
(109,710,o),
(22,605,o),
(22,350,cs),
(22,95,o),
(109,-10,o),
(352,-10,cs)
);
},
{
closed = 1;
nodes = (
(170,266,o),
(110,270,o),
(94,312,c),
(188,315,o),
(212,315,o),
(353,315,cs),
(493,315,o),
(517,315,o),
(610,312,c),
(594,269,o),
(535,266,o),
(352,266,cs)
);
},
{
closed = 1;
nodes = (
(110,430,o),
(170,434,o),
(352,434,cs),
(535,434,o),
(594,431,o),
(610,388,c),
(517,385,o),
(493,385,o),
(353,385,cs),
(212,385,o),
(188,385,o),
(94,388,c)
);
}
);
width = 704;
},
{
associatedMasterId = "60D037D9-62E9-4843-B070-F1594CB0B0D1";
layerId = "09676FF0-31B0-4825-927E-198097F326A4";
shapes = (
{
closed = 1;
nodes = (
(479,-16,o),
(580,103,o),
(580,350,cs),
(580,597,o),
(479,716,o),
(309,716,cs),
(139,716,o),
(38,597,o),
(38,350,cs),
(38,103,o),
(139,-16,o),
(309,-16,cs)
);
},
{
closed = 1;
nodes = (
(157,23,o),
(61,132,o),
(61,350,cs),
(61,568,o),
(157,677,o),
(309,677,cs),
(461,677,o),
(557,568,o),
(557,350,cs),
(557,132,o),
(461,23,o),
(309,23,cs)
);
},
{
closed = 1;
nodes = (
(42,368,l),
(217,365,o),
(227,365,o),
(309,365,cs),
(391,365,o),
(401,365,o),
(576,368,c),
(576,333,l),
(401,336,o),
(391,336,o),
(309,336,cs),
(227,336,o),
(217,336,o),
(42,333,c)
);
}
);
width = 618;
}
);
metricLeft = O;
metricRight = O;
unicode = 415;
},
{
glyphname = "Omega-latin";
kernLeft = KO_O;
kernRight = KO_O;
lastChange = "2025-04-16 10:05:09 +0000";
layers = (
{
layerId = "60D037D9-62E9-4843-B070-F1594CB0B0D1";
shapes = (
{
closed = 1;
nodes = (
(339,-16,o),
(368,80,o),
(391,182,cs),
(393,191,o),
(394,195,o),
(398,195,cs),
(402,195,o),
(403,191,o),
(405,182,cs),
(428,80,o),
(457,-16,o),
(572,-16,cs),
(689,-16,o),
(758,103,o),
(758,350,cs),
(758,559,o),
(689,716,o),
(522,716,c),
(522,677,l),
(677,677,o),
(735,530,o),
(735,350,cs),
(735,132,o),
(676,23,o),
(572,23,cs),
(487,23,o),
(430,97,o),
(416,243,cs),
(413,275,o),
(413,311,o),
(413,350,c),
(383,350,l),
(383,311,o),
(383,275,o),
(380,242,cs),
(367,96,o),
(309,23,o),
(224,23,cs),
(120,23,o),
(61,132,o),
(61,350,cs),
(61,530,o),
(119,677,o),
(264,677,c),
(264,716,l),
(107,716,o),
(38,559,o),
(38,350,cs),
(38,103,o),
(107,-16,o),
(224,-16,cs)
);
}
);
width = 796;
},
{
layerId = m01;
shapes = (
{
closed = 1;
nodes = (
(270,-10,o),
(311,18,o),
(333,91,cs),
(350,148,o),
(356,165,o),
(371,165,cs),
(386,165,o),
(392,148,o),
(409,91,cs),
(431,18,o),
(472,-10,o),
(545,-10,cs),
(661,-10,o),
(720,113,o),
(720,362,cs),
(720,580,o),
(645,700,o),
(468,700,c),
(468,389,l),
(598,395,o),
(657,387,o),
(657,346,cs),
(657,312,o),
(611,305,o),
(535,305,cs),
(422,305,o),
(410,334,o),
(410,373,cs),
(410,396,o),
(412,496,o),
(416,519,c),
(326,519,l),
(330,496,o),
(332,396,o),
(332,373,cs),
(332,334,o),
(320,305,o),
(207,305,cs),
(131,305,o),
(85,312,o),
(85,346,cs),
(85,387,o),
(144,395,o),
(274,389,c),
(274,700,l),
(97,700,o),
(22,580,o),
(22,362,cs),
(22,113,o),
(81,-10,o),
(197,-10,cs)
);
}
);
width = 742;
},
{
associatedMasterId = "60D037D9-62E9-4843-B070-F1594CB0B0D1";
layerId = "09676FF0-31B0-4825-927E-198097F326A4";
shapes = (
{
closed = 1;
nodes = (
(339,-16,o),
(368,80,o),
(391,182,cs),
(393,191,o),
(394,195,o),
(398,195,cs),
(402,195,o),
(403,191,o),
(405,182,cs),
(428,80,o),
(457,-16,o),
(572,-16,cs),
(689,-16,o),
(758,103,o),
(758,350,cs),
(758,559,o),
(689,716,o),
(522,716,c),
(522,677,l),
(677,677,o),
(735,530,o),
(735,350,cs),
(735,132,o),
(676,23,o),
(572,23,cs),
(487,23,o),
(430,97,o),
(416,243,cs),
(413,275,o),
(413,311,o),
(413,350,c),
(383,350,l),
(383,311,o),
(383,275,o),
(380,242,cs),
(367,96,o),
(309,23,o),
(224,23,cs),
(120,23,o),
(61,132,o),
(61,350,cs),
(61,530,o),
(119,677,o),
(264,677,c),
(264,716,l),
(107,716,o),
(38,559,o),
(38,350,cs),
(38,103,o),
(107,-16,o),
(224,-16,cs)
);
}
);
width = 796;
}
);
metricLeft = O;
metricRight = O;
unicode = 42934;
},
{
glyphname = OE;
kernLeft = KO_O;
kernRight = KO_E;
lastChange = "2025-04-16 10:04:44 +0000";
layers = (
{
anchors = (
{
name = bottom;
pos = (474,0);
},
{
name = top;
pos = (474,700);
}
);
layerId = "60D037D9-62E9-4843-B070-F1594CB0B0D1";
shapes = (
{
closed = 1;
nodes = (
(420,-16,o),
(506,44,o),
(546,169,c),
(546,129,o),
(546,76,o),
(543,0,c),
(920,0,l),
(920,36,l),
(866,36,o),
(812,36,o),
(734,36,cs),
(596,36,o),
(587,36,o),
(579,42,cs),
(569,50,o),
(567,65,o),
(567,195,cs),
(567,325,o),
(569,340,o),
(579,348,cs),
(587,354,o),
(596,354,o),
(687,354,cs),
(738,354,o),
(738,354,o),
(892,351,c),
(892,387,l),
(738,384,o),
(738,384,o),
(687,384,cs),
(596,384,o),
(587,384,o),
(579,390,cs),
(569,398,o),
(567,413,o),
(567,524,cs),
(567,635,o),
(569,650,o),
(579,658,cs),
(587,664,o),
(596,664,o),
(734,664,cs),
(809,664,o),
(864,664,o),
(912,664,c),
(912,700,l),
(543,700,l),
(546,624,o),
(546,571,o),
(546,531,c),
(506,656,o),
(420,716,o),
(304,716,cs),
(139,716,o),
(38,597,o),
(38,350,cs),
(38,103,o),
(139,-16,o),
(304,-16,cs)
);
},
{
closed = 1;
nodes = (
(157,23,o),
(61,132,o),
(61,350,cs),
(61,568,o),
(157,677,o),
(304,677,cs),
(451,677,o),
(547,568,o),
(547,350,cs),
(547,132,o),
(451,23,o),
(304,23,cs)
);
}
);
width = 946;
},
{
anchors = (
{
name = bottom;
pos = (546,0);
},
{
name = top;
pos = (546,700);
}
);
layerId = m01;
shapes = (
{
closed = 1;
nodes = (
(447,-10,o),
(521,17,o),
(571,75,c),
(570,52,o),
(570,29,o),
(569,0,c),
(1054,0,l),
(1054,269,l),
(911,266,o),
(911,266,o),
(810,266,cs),
(679,266,o),
(660,267,o),
(646,279,cs),
(641,283,o),
(640,288,o),
(640,293,cs),
(640,298,o),
(641,303,o),
(646,307,cs),
(660,319,o),
(679,320,o),
(810,320,cs),
(861,320,o),
(861,320,o),
(1014,317,c),
(1014,391,l),
(861,388,o),
(861,388,o),
(810,388,cs),
(679,388,o),
(654,391,o),
(644,401,cs),
(642,403,o),
(640,407,o),
(640,411,cs),
(640,415,o),
(642,419,o),
(644,421,cs),
(654,431,o),
(679,434,o),
(810,434,cs),
(906,434,o),
(906,434,o),
(1049,431,c),
(1052,700,l),
(569,700,l),
(570,671,o),
(570,648,o),
(571,625,c),
(521,683,o),
(447,710,o),
(332,710,cs),
(109,710,o),
(22,605,o),
(22,350,cs),
(22,95,o),
(108,-10,o),
(332,-10,cs)
);
},
{
closed = 1;
nodes = (
(123,306,o),
(89,312,o),
(89,350,c),
(89,388,o),
(123,394,o),
(332,394,cs),
(542,394,o),
(575,388,o),
(575,350,cs),
(575,312,o),
(542,306,o),
(332,306,cs)
);
}
);
width = 1084;
},
{
anchors = (
{
name = bottom;
pos = (474,0);
},
{
name = top;
pos = (474,700);
}
);
associatedMasterId = "60D037D9-62E9-4843-B070-F1594CB0B0D1";
layerId = "09676FF0-31B0-4825-927E-198097F326A4";
shapes = (
{
closed = 1;
nodes = (
(420,-16,o),
(506,44,o),
(546,169,c),
(546,129,o),
(546,76,o),
(543,0,c),
(920,0,l),
(920,36,l),
(866,36,o),
(812,36,o),
(734,36,cs),
(596,36,o),
(587,36,o),
(579,42,cs),
(569,50,o),
(567,65,o),
(567,195,cs),
(567,325,o),
(569,340,o),
(579,348,cs),
(587,354,o),
(596,354,o),
(687,354,cs),
(738,354,o),
(738,354,o),
(892,351,c),
(892,387,l),
(738,384,o),
(738,384,o),
(687,384,cs),
(596,384,o),
(587,384,o),
(579,390,cs),
(569,398,o),
(567,413,o),
(567,524,cs),
(567,635,o),
(569,650,o),
(579,658,cs),
(587,664,o),
(596,664,o),
(734,664,cs),
(809,664,o),
(864,664,o),
(912,664,c),
(912,700,l),
(543,700,l),
(546,624,o),
(546,571,o),
(546,531,c),
(506,656,o),
(420,716,o),
(304,716,cs),
(139,716,o),
(38,597,o),
(38,350,cs),
(38,103,o),
(139,-16,o),
(304,-16,cs)
);
},
{
closed = 1;
nodes = (
(157,23,o),
(61,132,o),
(61,350,cs),
(61,568,o),
(157,677,o),
(304,677,cs),
(451,677,o),
(547,568,o),
(547,350,cs),
(547,132,o),
(451,23,o),
(304,23,cs)
);
}
);
width = 946;
}
);
metricLeft = O;
metricRight = E;
unicode = 338;
},
{
glyphname = P;
kernLeft = KO_H;
kernRight = KO_P;
lastChange = "2025-04-16 11:10:41 +0000";
layers = (
{
anchors = (
{
name = bottom;
pos = (319,0);
},
{
name = center;
pos = (318,381);
},
{
name = hook;
pos = (38,700);
},
{
name = stroke;
pos = (95,359);
},
{
name = top;
pos = (289,700);
}
);
layerId = m01;
shapes = (
{
closed = 1;
nodes = (
(119,0,l),
(115,104,o),
(115,104,o),
(115,135,cs),
(115,178,o),
(120,199,o),
(130,212,cs),
(147,235,o),
(168,245,o),
(317,245,cs),
(524,245,o),
(605,311,o),
(605,481,cs),
(605,620,o),
(521,700,o),
(388,700,cs),
(38,700,l),
(44,461,o),
(44,461,o),
(44,350,cs),
(44,239,o),
(44,239,o),
(38,0,c)
);
},
{
closed = 1;
nodes = (
(199,317,o),
(149,320,o),
(128,330,cs),
(115,336,o),
(111,347,o),
(111,357,cs),
(111,369,o),
(115,380,o),
(128,386,cs),
(150,396,o),
(197,399,o),
(298,399,cs),
(390,399,o),
(456,396,o),
(478,386,cs),
(491,380,o),
(495,369,o),
(495,357,cs),
(495,347,o),
(491,336,o),
(478,330,cs),
(457,320,o),
(392,317,o),
(298,317,cs)
);
}
);
width = 625;
},
{
anchors = (
{
name = bottom;
pos = (282,0);
},
{
name = center;
pos = (287,480);
},
{
name = hook;
pos = (59,700);
},
{
name = stroke;
pos = (86,477);
},
{
name = top;
pos = (249,700);
}
);
layerId = "60D037D9-62E9-4843-B070-F1594CB0B0D1";
shapes = (
{
closed = 1;
nodes = (
(90,0,l),
(86,109,o),
(86,109,o),
(86,157,cs),
(86,204,o),
(87,233,o),
(93,244,cs),
(102,260,o),
(139,260,o),
(283,260,cs),
(436,260,o),
(504,369,o),
(504,477,cs),
(504,610,o),
(435,700,o),
(283,700,cs),
(59,700,l),
(62,461,o),
(62,461,o),
(62,350,cs),
(62,239,o),
(62,239,o),
(58,0,c)
);
},
{
closed = 1;
nodes = (
(142,293,o),
(100,296,o),
(92,307,cs),
(86,315,o),
(85,337,o),
(85,477,cs),
(85,614,o),
(86,636,o),
(92,646,cs),
(100,660,o),
(121,661,o),
(279,661,cs),
(370,661,o),
(410,633,o),
(443,592,cs),
(468,561,o),
(481,522,o),
(481,477,cs),
(481,432,o),
(468,389,o),
(444,359,cs),
(414,322,o),
(368,293,o),
(279,293,cs)
);
}
);
width = 537;
},
{
anchors = (
{
name = bottom;
pos = (319,0);
},
{
name = center;
pos = (318,381);
},
{
name = hook;
pos = (38,700);
},
{
name = stroke;
pos = (120,381);
},
{
name = top;
pos = (289,700);
}
);
associatedMasterId = m01;
background = {
shapes = (
{
pos = (2,0);
ref = B;
}
);
};
layerId = "3C9A0157-E0F9-4AAD-972A-CB18308C817F";
name = "7 Apr 25 at 10:37";
shapes = (
{
closed = 1;
nodes = (
(119,0,l),
(115,104,o),
(115,104,o),
(115,135,cs),
(115,178,o),
(120,199,o),
(130,212,cs),
(147,235,o),
(168,245,o),
(317,245,cs),
(524,245,o),
(605,311,o),
(605,472,cs),
(605,620,o),
(521,700,o),
(388,700,cs),
(38,700,l),
(44,461,o),
(44,461,o),
(44,350,cs),
(44,239,o),
(44,239,o),
(38,0,c)
);
},
{
closed = 1;
nodes = (
(222,307,o),
(172,313,o),
(147,321,cs),
(120,330,o),
(111,346,o),
(111,365,cs),
(111,384,o),
(120,400,o),
(147,408,cs),
(172,416,o),
(222,423,o),
(298,423,cs),
(383,423,o),
(433,416,o),
(458,408,cs),
(485,400,o),
(495,384,o),
(495,365,cs),
(495,346,o),
(485,330,o),
(458,321,cs),
(433,313,o),
(383,307,o),
(298,307,cs)
);
}
);
width = 625;
},
{
anchors = (
{
name = bottom;
pos = (282,0);
},
{
name = center;
pos = (287,480);
},
{
name = hook;
pos = (59,700);
},
{
name = stroke;
pos = (86,477);
},
{
name = top;
pos = (249,700);
}
);
associatedMasterId = "60D037D9-62E9-4843-B070-F1594CB0B0D1";
layerId = "09676FF0-31B0-4825-927E-198097F326A4";
shapes = (
{
closed = 1;
nodes = (
(90,0,l),
(86,109,o),
(86,109,o),
(86,157,cs),
(86,204,o),
(87,233,o),
(93,244,cs),
(102,260,o),
(139,260,o),
(283,260,cs),
(436,260,o),
(504,369,o),
(504,477,cs),
(504,610,o),
(435,700,o),
(283,700,cs),
(59,700,l),
(62,461,o),
(62,461,o),
(62,350,cs),
(62,239,o),
(62,239,o),
(58,0,c)
);
},
{
closed = 1;
nodes = (
(142,293,o),
(100,296,o),
(92,307,cs),
(86,315,o),
(85,337,o),
(85,477,cs),
(85,614,o),
(86,636,o),
(92,646,cs),
(100,660,o),
(121,661,o),
(279,661,cs),
(370,661,o),
(410,633,o),
(443,592,cs),
(468,561,o),
(481,522,o),
(481,477,cs),
(481,432,o),
(468,389,o),
(444,359,cs),
(414,322,o),
(368,293,o),
(279,293,cs)
);
}
);
width = 537;
}
);
metricLeft = H;
unicode = 80;
userData = {
KernOnName = P;
};
},
{
glyphname = Thorn;
kernLeft = KO_H;
kernRight = KO_Thorn;
lastChange = "2025-04-16 10:04:48 +0000";
layers = (
{
layerId = "60D037D9-62E9-4843-B070-F1594CB0B0D1";
shapes = (
{
closed = 1;
nodes = (
(90,0,l),
(87,29,o),
(86,49,o),
(86,67,cs),
(86,94,o),
(87,106,o),
(98,115,cs),
(115,130,o),
(131,130,o),
(283,130,cs),
(436,130,o),
(504,239,o),
(504,347,cs),
(504,480,o),
(435,571,o),
(283,571,cs),
(124,571,o),
(102,571,o),
(93,586,cs),
(87,597,o),
(86,605,o),
(86,635,cs),
(86,650,o),
(87,681,o),
(89,700,c),
(58,700,l),
(61,454,o),
(61,454,o),
(61,350,cs),
(61,137,o),
(61,137,o),
(58,0,c)
);
},
{
closed = 1;
nodes = (
(142,163,o),
(100,166,o),
(92,177,cs),
(86,185,o),
(85,207,o),
(85,347,cs),
(85,484,o),
(86,506,o),
(92,516,cs),
(100,530,o),
(121,531,o),
(279,531,cs),
(370,531,o),
(410,503,o),
(443,462,cs),
(468,431,o),
(481,392,o),
(481,347,cs),
(481,302,o),
(468,259,o),
(444,229,cs),
(414,192,o),
(368,163,o),
(279,163,cs)
);
}
);
width = 537;
},
{
layerId = m01;
shapes = (
{
closed = 1;
nodes = (
(124,0,l),
(120,24,o),
(120,34,o),
(120,45,cs),
(120,66,o),
(126,89,o),
(143,102,cs),
(167,120,o),
(201,124,o),
(321,124,cs),
(528,124,o),
(609,189,o),
(609,350,cs),
(609,498,o),
(525,578,o),
(392,578,cs),
(177,578,o),
(158,579,o),
(132,603,cs),
(117,617,o),
(116,635,o),
(116,655,cs),
(116,666,o),
(117,676,o),
(120,700,c),
(38,700,l),
(45,585,o),
(48,472,o),
(48,350,cs),
(48,228,o),
(47,113,o),
(42,0,c)
);
},
{
closed = 1;
nodes = (
(203,195,o),
(153,198,o),
(132,208,cs),
(119,214,o),
(115,225,o),
(115,235,cs),
(115,247,o),
(119,258,o),
(132,264,cs),
(154,274,o),
(201,277,o),
(302,277,cs),
(394,277,o),
(460,274,o),
(482,264,cs),
(495,258,o),
(499,247,o),
(499,235,cs),
(499,225,o),
(495,214,o),
(482,208,cs),
(461,198,o),
(396,195,o),
(302,195,cs)
);
}
);
width = 629;
},
{
associatedMasterId = "60D037D9-62E9-4843-B070-F1594CB0B0D1";
layerId = "09676FF0-31B0-4825-927E-198097F326A4";
shapes = (
{
closed = 1;
nodes = (
(90,0,l),
(87,29,o),
(86,49,o),
(86,67,cs),
(86,94,o),
(87,106,o),
(98,115,cs),
(115,130,o),
(131,130,o),
(283,130,cs),
(436,130,o),
(504,239,o),
(504,347,cs),
(504,480,o),
(435,571,o),
(283,571,cs),
(124,571,o),
(102,571,o),
(93,586,cs),
(87,597,o),
(86,605,o),
(86,635,cs),
(86,650,o),
(87,681,o),
(89,700,c),
(58,700,l),
(61,454,o),
(61,454,o),
(61,350,cs),
(61,137,o),
(61,137,o),
(58,0,c)
);
},
{
closed = 1;
nodes = (
(142,163,o),
(100,166,o),
(92,177,cs),
(86,185,o),
(85,207,o),
(85,347,cs),
(85,484,o),
(86,506,o),
(92,516,cs),
(100,530,o),
(121,531,o),
(279,531,cs),
(370,531,o),
(410,503,o),
(443,462,cs),
(468,431,o),
(481,392,o),
(481,347,cs),
(481,302,o),
(468,259,o),
(444,229,cs),
(414,192,o),
(368,163,o),
(279,163,cs)
);
}
);
width = 537;
}
);
metricLeft = P;
metricRight = P;
unicode = 222;
},
{
glyphname = Q;
kernLeft = KO_O;
kernRight = KO_O;
lastChange = "2025-04-16 10:04:52 +0000";
layers = (
{
anchors = (
{
name = bottom;
pos = (317,0);
},
{
name = top;
pos = (317,700);
}
);
layerId = m01;
shapes = (
{
closed = 1;
nodes = (
(571,-233,o),
(622,-221,o),
(636,-214,c),
(636,-16,l),
(626,-21,o),
(564,-50,o),
(511,-50,cs),
(434,-50,o),
(400,-34,o),
(391,-9,c),
(583,6,o),
(682,95,o),
(682,350,cs),
(682,605,o),
(595,710,o),
(352,710,cs),
(109,710,o),
(22,605,o),
(22,350,cs),
(22,95,o),
(123,5,o),
(313,-9,c),
(317,-51,o),
(322,-98,o),
(351,-144,cs),
(387,-201,o),
(457,-233,o),
(532,-233,cs)
);
},
{
closed = 1;
nodes = (
(126,306,o),
(89,312,o),
(89,350,cs),
(89,388,o),
(126,394,o),
(352,394,cs),
(579,394,o),
(615,388,o),
(615,350,cs),
(615,312,o),
(579,306,o),
(352,306,cs)
);
}
);
width = 704;
},
{
anchors = (
{
name = bottom;
pos = (281,0);
},
{
name = top;
pos = (281,700);
}
);
layerId = "60D037D9-62E9-4843-B070-F1594CB0B0D1";
shapes = (
{
closed = 1;
nodes = (
(482,-163,o),
(504,-162,o),
(537,-154,c),
(537,-110,l),
(513,-120,o),
(480,-127,o),
(455,-127,cs),
(366,-127,o),
(315,-71,o),
(315,-8,c),
(476,-2,o),
(574,111,o),
(574,350,cs),
(574,589,o),
(476,708,o),
(306,708,cs),
(136,708,o),
(38,589,o),
(38,350,cs),
(38,111,o),
(136,-2,o),
(297,-8,c),
(297,-28,o),
(298,-54,o),
(312,-85,cs),
(335,-135,o),
(387,-163,o),
(462,-163,cs)
);
},
{
closed = 1;
nodes = (
(154,31,o),
(60,140,o),
(60,350,cs),
(60,560,o),
(154,669,o),
(306,669,cs),
(458,669,o),
(552,560,o),
(552,350,cs),
(552,140,o),
(458,31,o),
(306,31,cs)
);
}
);
width = 612;
},
{
anchors = (
{
name = bottom;
pos = (281,0);
},
{
name = top;
pos = (281,700);
}
);
associatedMasterId = "60D037D9-62E9-4843-B070-F1594CB0B0D1";
layerId = "09676FF0-31B0-4825-927E-198097F326A4";
shapes = (
{
closed = 1;
nodes = (
(482,-163,o),
(504,-162,o),
(537,-154,c),
(537,-110,l),
(513,-120,o),
(480,-127,o),
(455,-127,cs),
(366,-127,o),
(315,-71,o),
(315,-8,c),
(476,-2,o),
(574,111,o),
(574,350,cs),
(574,589,o),
(476,708,o),
(306,708,cs),
(136,708,o),
(38,589,o),
(38,350,cs),
(38,111,o),
(136,-2,o),
(297,-8,c),
(297,-28,o),
(298,-54,o),
(312,-85,cs),
(335,-135,o),
(387,-163,o),
(462,-163,cs)
);
},
{
closed = 1;
nodes = (
(154,31,o),
(60,140,o),
(60,350,cs),
(60,560,o),
(154,669,o),
(306,669,cs),
(458,669,o),
(552,560,o),
(552,350,cs),
(552,140,o),
(458,31,o),
(306,31,cs)
);
}
);
width = 612;
}
);
metricLeft = O;
metricRight = O;
unicode = 81;
},
{
glyphname = Qhooktail;
kernLeft = KO_O;
kernRight = KO_Qhook;
lastChange = "2025-04-16 10:04:54 +0000";
layers = (
{
layerId = "60D037D9-62E9-4843-B070-F1594CB0B0D1";
shapes = (
{
closed = 1;
nodes = (
(680,-217,o),
(694,-215,o),
(709,-211,c),
(709,-173,l),
(695,-177,o),
(681,-180,o),
(667,-180,cs),
(606,-180,o),
(574,-143,o),
(574,-66,cs),
(574,-10,o),
(573,103,o),
(573,350,cs),
(573,507,o),
(579,664,o),
(582,700,c),
(548,700,l),
(552,576,o),
(552,576,o),
(552,544,cs),
(552,536,o),
(549,536,o),
(547,536,cs),
(544,536,o),
(541,536,o),
(537,545,cs),
(495,631,o),
(439,716,o),
(306,716,cs),
(158,716,o),
(38,637,o),
(38,350,cs),
(38,63,o),
(158,-16,o),
(306,-16,cs),
(439,-16,o),
(495,69,o),
(537,155,cs),
(541,164,o),
(544,164,o),
(547,164,cs),
(550,164,o),
(553,163,o),
(553,148,cs),
(550,12,o),
(550,-31,o),
(550,-83,cs),
(550,-164,o),
(585,-217,o),
(666,-217,cs)
);
},
{
closed = 1;
nodes = (
(120,23,o),
(61,162,o),
(61,350,cs),
(61,538,o),
(120,677,o),
(306,677,cs),
(482,677,o),
(548,522,o),
(548,350,cs),
(548,178,o),
(482,23,o),
(306,23,cs)
);
}
);
width = 636;
},
{
layerId = m01;
shapes = (
{
closed = 1;
nodes = (
(704,-205,o),
(731,-202,o),
(754,-198,c),
(754,-30,l),
(724,-38,o),
(701,-40,o),
(685,-40,cs),
(672,-40,o),
(650,-37,o),
(637,-19,cs),
(619,5,o),
(619,61,o),
(619,350,cs),
(619,532,o),
(619,532,o),
(626,700,c),
(545,700,l),
(548,662,o),
(549,631,o),
(549,610,cs),
(549,580,o),
(547,573,o),
(537,573,cs),
(528,573,o),
(516,589,o),
(496,619,cs),
(472,655,o),
(419,710,o),
(300,710,cs),
(104,710,o),
(22,594,o),
(22,350,cs),
(22,106,o),
(104,-10,o),
(300,-10,cs),
(419,-10,o),
(472,45,o),
(496,81,cs),
(516,111,o),
(528,127,o),
(537,127,cs),
(543,127,o),
(549,123,o),
(549,112,cs),
(549,35,o),
(549,-33,o),
(549,-51,cs),
(549,-150,o),
(579,-205,o),
(678,-205,cs)
);
},
{
closed = 1;
nodes = (
(122,306,o),
(89,312,o),
(89,350,cs),
(89,388,o),
(122,394,o),
(322,394,cs),
(523,394,o),
(555,388,o),
(555,350,cs),
(555,312,o),
(523,306,o),
(322,306,cs)
);
}
);
width = 659;
},
{
associatedMasterId = "60D037D9-62E9-4843-B070-F1594CB0B0D1";
layerId = "09676FF0-31B0-4825-927E-198097F326A4";
shapes = (
{
closed = 1;
nodes = (
(680,-217,o),
(694,-215,o),
(709,-211,c),
(709,-173,l),
(695,-177,o),
(681,-180,o),
(667,-180,cs),
(606,-180,o),
(574,-143,o),
(574,-66,cs),
(574,-10,o),
(573,103,o),
(573,350,cs),
(573,507,o),
(579,664,o),
(582,700,c),
(548,700,l),
(552,576,o),
(552,576,o),
(552,544,cs),
(552,536,o),
(549,536,o),
(547,536,cs),
(544,536,o),
(541,536,o),
(537,545,cs),
(495,631,o),
(439,716,o),
(306,716,cs),
(158,716,o),
(38,637,o),
(38,350,cs),
(38,63,o),
(158,-16,o),
(306,-16,cs),
(439,-16,o),
(495,69,o),
(537,155,cs),
(541,164,o),
(544,164,o),
(547,164,cs),
(550,164,o),
(553,163,o),
(553,148,cs),
(550,12,o),
(550,-31,o),
(550,-83,cs),
(550,-164,o),
(585,-217,o),
(666,-217,cs)
);
},
{
closed = 1;
nodes = (
(120,23,o),
(61,162,o),
(61,350,cs),
(61,538,o),
(120,677,o),
(306,677,cs),
(482,677,o),
(548,522,o),
(548,350,cs),
(548,178,o),
(482,23,o),
(306,23,cs)
);
}
);
width = 636;
}
);
metricLeft = O;
unicode = 586;
},
{
glyphname = R;
kernLeft = KO_H;
kernRight = KO_R;
lastChange = "2025-04-16 10:04:56 +0000";
layers = (
{
anchors = (
{
name = bottom;
pos = (247,0);
},
{
name = center;
pos = (84,315);
},
{
name = top;
pos = (247,700);
}
);
layerId = "60D037D9-62E9-4843-B070-F1594CB0B0D1";
shapes = (
{
closed = 1;
nodes = (
(493,-8,o),
(511,-5,o),
(522,0,c),
(522,42,l),
(508,36,o),
(496,32,o),
(483,32,cs),
(433,32,o),
(390,53,o),
(308,299,c),
(428,299,o),
(505,372,o),
(505,496,cs),
(505,621,o),
(418,700,o),
(306,700,cs),
(58,700,l),
(62,461,o),
(62,461,o),
(62,350,cs),
(62,239,o),
(62,239,o),
(58,0,c),
(90,0,l),
(87,82,o),
(85,186,o),
(85,228,cs),
(85,275,o),
(86,284,o),
(92,289,cs),
(101,296,o),
(131,299,o),
(283,299,c),
(356,77,o),
(393,-8,o),
(481,-8,cs)
);
},
{
closed = 1;
nodes = (
(116,330,o),
(104,331,o),
(95,338,cs),
(86,345,o),
(83,357,o),
(83,496,cs),
(83,635,o),
(86,647,o),
(95,654,cs),
(104,661,o),
(116,662,o),
(212,662,cs),
(314,662,o),
(340,661,o),
(368,654,cs),
(414,642,o),
(483,599,o),
(483,491,cs),
(483,383,o),
(410,350,o),
(364,338,cs),
(336,331,o),
(300,330,o),
(212,330,cs)
);
}
);
width = 549;
},
{
anchors = (
{
name = bottom;
pos = (313,0);
},
{
name = center;
pos = (114,299);
},
{
name = top;
pos = (287,700);
}
);
layerId = m01;
shapes = (
{
closed = 1;
nodes = (
(535,-8,o),
(579,2,o),
(605,13,c),
(605,285,l),
(562,260,o),
(487,234,o),
(413,234,cs),
(351,234,o),
(297,253,o),
(288,269,c),
(523,269,o),
(605,316,o),
(605,482,cs),
(605,640,o),
(521,700,o),
(368,700,cs),
(38,700,l),
(44,461,o),
(44,461,o),
(44,350,cs),
(44,239,o),
(44,239,o),
(38,0,c),
(121,0,l),
(118,36,o),
(114,118,o),
(114,152,cs),
(114,196,o),
(118,225,o),
(134,244,cs),
(150,263,o),
(178,268,o),
(216,268,c),
(216,97,o),
(322,-8,o),
(472,-8,cs)
);
},
{
closed = 1;
nodes = (
(222,335,o),
(161,337,o),
(136,344,cs),
(114,350,o),
(111,360,o),
(111,371,cs),
(111,382,o),
(114,392,o),
(136,398,cs),
(161,405,o),
(222,406,o),
(298,406,cs),
(383,406,o),
(445,405,o),
(470,398,cs),
(492,392,o),
(495,382,o),
(495,371,cs),
(495,360,o),
(492,350,o),
(470,344,cs),
(445,337,o),
(383,335,o),
(298,335,cs)
);
}
);
width = 631;
},
{
anchors = (
{
name = bottom;
pos = (247,0);
},
{
name = center;
pos = (84,315);
},
{
name = top;
pos = (247,700);
}
);
associatedMasterId = "60D037D9-62E9-4843-B070-F1594CB0B0D1";
layerId = "09676FF0-31B0-4825-927E-198097F326A4";
shapes = (
{
closed = 1;
nodes = (
(493,-8,o),
(511,-5,o),
(522,0,c),
(522,42,l),
(508,36,o),
(496,32,o),
(483,32,cs),
(433,32,o),
(390,53,o),
(308,299,c),
(428,299,o),
(505,372,o),
(505,496,cs),
(505,621,o),
(418,700,o),
(306,700,cs),
(58,700,l),
(62,461,o),
(62,461,o),
(62,350,cs),
(62,239,o),
(62,239,o),
(58,0,c),
(90,0,l),
(87,82,o),
(85,186,o),
(85,228,cs),
(85,275,o),
(86,284,o),
(92,289,cs),
(101,296,o),
(131,299,o),
(283,299,c),
(356,77,o),
(393,-8,o),
(481,-8,cs)
);
},
{
closed = 1;
nodes = (
(116,330,o),
(104,331,o),
(95,338,cs),
(86,345,o),
(83,357,o),
(83,496,cs),
(83,635,o),
(86,647,o),
(95,654,cs),
(104,661,o),
(116,662,o),
(212,662,cs),
(314,662,o),
(340,661,o),
(368,654,cs),
(414,642,o),
(483,599,o),
(483,491,cs),
(483,383,o),
(410,350,o),
(364,338,cs),
(336,331,o),
(300,330,o),
(212,330,cs)
);
}
);
width = 549;
}
);
metricLeft = H;
unicode = 82;
userData = {
KernOnName = R;
};
},
{
glyphname = Rstroke;
kernLeft = KO_Bstroke;
kernRight = KO_R;
lastChange = "2025-04-16 11:11:06 +0000";
layers = (
{
layerId = "60D037D9-62E9-4843-B070-F1594CB0B0D1";
shapes = (
{
closed = 1;
nodes = (
(528,-8,o),
(546,-5,o),
(557,0,c),
(557,42,l),
(543,36,o),
(531,32,o),
(518,32,cs),
(468,32,o),
(425,53,o),
(343,299,c),
(463,299,o),
(540,372,o),
(540,496,cs),
(540,621,o),
(453,700,o),
(341,700,cs),
(93,700,l),
(97,461,o),
(97,461,o),
(97,350,cs),
(97,239,o),
(97,239,o),
(93,0,c),
(125,0,l),
(122,82,o),
(120,186,o),
(120,228,cs),
(120,275,o),
(121,284,o),
(127,289,cs),
(136,296,o),
(166,299,o),
(318,299,c),
(390,78,o),
(428,-8,o),
(516,-8,cs)
);
},
{
closed = 1;
nodes = (
(33,301,o),
(66,301,o),
(99,301,cs),
(133,301,o),
(167,301,o),
(200,299,c),
(200,330,l),
(167,328,o),
(133,329,o),
(99,329,cs),
(66,329,o),
(33,329,o),
(0,331,c),
(0,299,l)
);
},
{
closed = 1;
nodes = (
(151,330,o),
(139,331,o),
(130,338,cs),
(121,345,o),
(118,357,o),
(118,496,cs),
(118,635,o),
(121,647,o),
(130,654,cs),
(139,661,o),
(151,662,o),
(247,662,cs),
(349,662,o),
(375,661,o),
(403,654,cs),
(449,642,o),
(518,599,o),
(518,491,cs),
(518,383,o),
(445,350,o),
(399,338,cs),
(371,331,o),
(335,330,o),
(247,330,cs)
);
}
);
width = 584;
},
{
layerId = m01;
shapes = (
{
closed = 1;
nodes = (
(569,-8,o),
(613,2,o),
(639,13,c),
(639,285,l),
(596,260,o),
(521,234,o),
(447,234,cs),
(385,234,o),
(331,253,o),
(322,269,c),
(557,269,o),
(639,316,o),
(639,482,cs),
(639,640,o),
(555,700,o),
(402,700,cs),
(72,700,l),
(78,461,o),
(78,461,o),
(78,350,cs),
(78,239,o),
(78,239,o),
(72,0,c),
(155,0,l),
(152,36,o),
(148,118,o),
(148,152,cs),
(148,196,o),
(152,225,o),
(168,244,cs),
(184,263,o),
(212,268,o),
(250,268,c),
(250,97,o),
(356,-8,o),
(506,-8,cs)
);
},
{
closed = 1;
nodes = (
(93,277,o),
(108,277,o),
(139,277,cs),
(170,277,o),
(189,277,o),
(272,276,c),
(272,328,l),
(189,327,o),
(170,327,o),
(139,327,cs),
(108,327,o),
(93,327,o),
(10,330,c),
(10,274,l)
);
},
{
closed = 1;
nodes = (
(256,335,o),
(195,337,o),
(170,344,cs),
(148,350,o),
(145,360,o),
(145,371,cs),
(145,382,o),
(148,392,o),
(170,398,cs),
(195,405,o),
(256,406,o),
(332,406,cs),
(417,406,o),
(479,405,o),
(504,398,cs),
(526,392,o),
(529,382,o),
(529,371,cs),
(529,360,o),
(526,350,o),
(504,344,cs),
(479,337,o),
(417,335,o),
(332,335,cs)
);
}
);
width = 665;
},
{
associatedMasterId = "60D037D9-62E9-4843-B070-F1594CB0B0D1";
layerId = "09676FF0-31B0-4825-927E-198097F326A4";
shapes = (
{
closed = 1;
nodes = (
(528,-8,o),
(546,-5,o),
(557,0,c),
(557,42,l),
(543,36,o),
(531,32,o),
(518,32,cs),
(468,32,o),
(425,53,o),
(343,299,c),
(463,299,o),
(540,372,o),
(540,496,cs),
(540,621,o),
(453,700,o),
(341,700,cs),
(93,700,l),
(97,461,o),
(97,461,o),
(97,350,cs),
(97,239,o),
(97,239,o),
(93,0,c),
(125,0,l),
(122,82,o),
(120,186,o),
(120,228,cs),
(120,275,o),
(121,284,o),
(127,289,cs),
(136,296,o),
(166,299,o),
(318,299,c),
(390,78,o),
(428,-8,o),
(516,-8,cs)
);
},
{
closed = 1;
nodes = (
(33,301,o),
(66,301,o),
(99,301,cs),
(133,301,o),
(167,301,o),
(200,299,c),
(200,330,l),
(167,328,o),
(133,329,o),
(99,329,cs),
(66,329,o),
(33,329,o),
(0,331,c),
(0,299,l)
);
},
{
closed = 1;
nodes = (
(151,330,o),
(139,331,o),
(130,338,cs),
(121,345,o),
(118,357,o),
(118,496,cs),
(118,635,o),
(121,647,o),
(130,654,cs),
(139,661,o),
(151,662,o),
(247,662,cs),
(349,662,o),
(375,661,o),
(403,654,cs),
(449,642,o),
(518,599,o),
(518,491,cs),
(518,383,o),
(445,350,o),
(399,338,cs),
(371,331,o),
(335,330,o),
(247,330,cs)
);
}
);
width = 584;
}
);
metricLeft = Bstroke;
metricRight = R;
unicode = 588;
},
{
glyphname = Rtail;
kernLeft = KO_R;
kernRight = KO_R;
lastChange = "2025-04-16 10:05:18 +0000";
layers = (
{
layerId = "60D037D9-62E9-4843-B070-F1594CB0B0D1";
shapes = (
{
closed = 1;
nodes = (
(189,-217,o),
(203,-215,o),
(217,-212,c),
(217,-173,l),
(204,-177,o),
(190,-180,o),
(176,-180,cs),
(115,-180,o),
(87,-145,o),
(87,-67,cs),
(87,-57,o),
(85,186,o),
(85,228,cs),
(85,275,o),
(86,284,o),
(92,289,cs),
(101,296,o),
(131,299,o),
(283,299,c),
(355,78,o),
(393,-8,o),
(481,-8,cs),
(493,-8,o),
(511,-5,o),
(522,0,c),
(522,42,l),
(508,36,o),
(496,32,o),
(483,32,cs),
(433,32,o),
(390,53,o),
(308,299,c),
(428,299,o),
(505,372,o),
(505,496,cs),
(505,621,o),
(418,700,o),
(306,700,cs),
(58,700,l),
(62,461,o),
(62,461,o),
(62,350,cs),
(62,72,o),
(61,203,o),
(61,-83,cs),
(61,-164,o),
(94,-217,o),
(175,-217,cs)
);
},
{
closed = 1;
nodes = (
(116,330,o),
(104,331,o),
(95,338,cs),
(86,345,o),
(83,357,o),
(83,496,cs),
(83,635,o),
(86,647,o),
(95,654,cs),
(104,661,o),
(116,662,o),
(212,662,cs),
(314,662,o),
(340,661,o),
(368,654,cs),
(414,642,o),
(483,599,o),
(483,491,cs),
(483,383,o),
(410,350,o),
(364,338,cs),
(336,331,o),
(300,330,o),
(212,330,cs)
);
}
);
width = 549;
},
{
layerId = m01;
shapes = (
{
closed = 1;
nodes = (
(196,-217,o),
(214,-215,o),
(241,-211,c),
(241,-24,l),
(215,-31,o),
(200,-34,o),
(180,-34,cs),
(162,-34,o),
(121,-28,o),
(117,22,cs),
(115,47,o),
(114,131,o),
(114,152,cs),
(114,196,o),
(118,225,o),
(134,244,cs),
(150,263,o),
(178,268,o),
(216,268,c),
(216,97,o),
(322,-8,o),
(472,-8,cs),
(535,-8,o),
(579,2,o),
(605,13,c),
(605,285,l),
(562,260,o),
(487,234,o),
(413,234,cs),
(351,234,o),
(297,253,o),
(288,269,c),
(523,269,o),
(605,316,o),
(605,482,cs),
(605,640,o),
(521,700,o),
(368,700,cs),
(38,700,l),
(44,461,o),
(44,461,o),
(44,350,cs),
(44,290,o),
(38,32,o),
(38,-27,cs),
(38,-149,o),
(75,-217,o),
(181,-217,cs)
);
},
{
closed = 1;
nodes = (
(222,335,o),
(161,337,o),
(136,344,cs),
(114,350,o),
(111,360,o),
(111,371,cs),
(111,382,o),
(114,392,o),
(136,398,cs),
(161,405,o),
(222,406,o),
(298,406,cs),
(383,406,o),
(445,405,o),
(470,398,cs),
(492,392,o),
(495,382,o),
(495,371,cs),
(495,360,o),
(492,350,o),
(470,344,cs),
(445,337,o),
(383,335,o),
(298,335,cs)
);
}
);
width = 631;
},
{
associatedMasterId = "60D037D9-62E9-4843-B070-F1594CB0B0D1";
layerId = "09676FF0-31B0-4825-927E-198097F326A4";
shapes = (
{
closed = 1;
nodes = (
(189,-217,o),
(203,-215,o),
(217,-212,c),
(217,-173,l),
(204,-177,o),
(190,-180,o),
(176,-180,cs),
(115,-180,o),
(87,-145,o),
(87,-67,cs),
(87,-57,o),
(85,186,o),
(85,228,cs),
(85,275,o),
(86,284,o),
(92,289,cs),
(101,296,o),
(131,299,o),
(283,299,c),
(355,78,o),
(393,-8,o),
(481,-8,cs),
(493,-8,o),
(511,-5,o),
(522,0,c),
(522,42,l),
(508,36,o),
(496,32,o),
(483,32,cs),
(433,32,o),
(390,53,o),
(308,299,c),
(428,299,o),
(505,372,o),
(505,496,cs),
(505,621,o),
(418,700,o),
(306,700,cs),
(58,700,l),
(62,461,o),
(62,461,o),
(62,350,cs),
(62,72,o),
(61,203,o),
(61,-83,cs),
(61,-164,o),
(94,-217,o),
(175,-217,cs)
);
},
{
closed = 1;
nodes = (
(116,330,o),
(104,331,o),
(95,338,cs),
(86,345,o),
(83,357,o),
(83,496,cs),
(83,635,o),
(86,647,o),
(95,654,cs),
(104,661,o),
(116,662,o),
(212,662,cs),
(314,662,o),
(340,661,o),
(368,654,cs),
(414,642,o),
(483,599,o),
(483,491,cs),
(483,383,o),
(410,350,o),
(364,338,cs),
(336,331,o),
(300,330,o),
(212,330,cs)
);
}
);
width = 549;
}
);
metricLeft = R;
metricRight = R;
unicode = 11364;
},
{
glyphname = S;
kernLeft = KO_S;
kernRight = KO_S;
lastChange = "2025-04-16 10:05:12 +0000";
layers = (
{
anchors = (
{
name = bar;
pos = (299,350);
},
{
name = bottom;
pos = (296,0);
},
{
name = center;
pos = (321,350);
},
{
name = top;
pos = (296,700);
}
);
backgroundImage = {
imagePath = "/Downloads/IMG_7408.JPG";
locked = 1;
pos = (-864,-1771);
scale = (0.7854,0.7854);
};
layerId = m01;
shapes = (
{
closed = 1;
nodes = (
(470,-10,o),
(572,50,o),
(572,186,cs),
(572,303,o),
(491,365,o),
(312,384,cs),
(210,395,o),
(192,397,o),
(192,410,cs),
(192,422,o),
(218,425,o),
(297,425,cs),
(352,425,o),
(445,419,o),
(548,393,c),
(548,687,l),
(512,696,o),
(407,710,o),
(312,710,cs),
(114,710,o),
(22,637,o),
(22,524,cs),
(22,394,o),
(102,354,o),
(287,333,cs),
(383,322,o),
(406,315,o),
(406,299,cs),
(406,282,o),
(369,277,o),
(306,277,cs),
(212,277,o),
(99,295,o),
(24,312,c),
(24,13,l),
(73,2,o),
(182,-10,o),
(267,-10,cs)
);
}
);
width = 588;
},
{
anchors = (
{
name = bar;
pos = (229,350);
},
{
name = bottom;
pos = (251,0);
},
{
name = center;
pos = (212,349);
},
{
name = top;
pos = (251,700);
}
);
layerId = "60D037D9-62E9-4843-B070-F1594CB0B0D1";
shapes = (
{
closed = 1;
nodes = (
(364,-16,o),
(429,67,o),
(429,168,cs),
(429,309,o),
(330,349,o),
(233,383,cs),
(152,411,o),
(62,444,o),
(62,541,cs),
(62,620,o),
(126,677,o),
(228,677,cs),
(289,677,o),
(348,658,o),
(392,637,c),
(392,686,l),
(344,704,o),
(290,716,o),
(236,716,cs),
(103,716,o),
(38,645,o),
(38,542,cs),
(38,421,o),
(130,387,o),
(218,356,cs),
(311,323,o),
(405,286,o),
(405,168,cs),
(405,86,o),
(336,23,o),
(217,23,cs),
(134,23,o),
(60,44,o),
(20,66,c),
(20,17,l),
(62,0,o),
(125,-16,o),
(202,-16,cs)
);
}
);
width = 454;
},
{
anchors = (
{
name = bottom;
pos = (260,0);
},
{
name = center;
pos = (275,350);
},
{
name = top;
pos = (260,700);
}
);
associatedMasterId = m01;
background = {
shapes = (
{
closed = 1;
nodes = (
(50,4,o),
(136,-10,o),
(211,-10,cs),
(395,-10,o),
(507,60,o),
(507,189,cs),
(507,310,o),
(424,353,o),
(266,387,cs),
(192,403,o),
(161,411,o),
(161,432,cs),
(161,447,o),
(177,457,o),
(231,457,cs),
(286,457,o),
(375,453,o),
(473,427,c),
(473,687,l),
(437,696,o),
(351,710,o),
(276,710,cs),
(108,710,o),
(16,653,o),
(16,525,cs),
(16,393,o),
(115,359,o),
(268,327,cs),
(322,316,o),
(370,301,o),
(370,275,cs),
(370,253,o),
(344,240,o),
(276,240,cs),
(182,240,o),
(81,255,o),
(14,276,c),
(14,13,l)
);
}
);
};
backgroundImage = {
imagePath = "/Downloads/IMG_7408.JPG";
locked = 1;
pos = (-910,-1771);
scale = (0.7854,0.7854);
};
layerId = "519C2522-EDFD-4E92-837B-7399DC0FD0ED";
name = "26 Feb 25 at 08:43";
shapes = (
{
closed = 1;
nodes = (
(50,4,o),
(136,-10,o),
(211,-10,cs),
(395,-10,o),
(507,60,o),
(507,189,cs),
(507,310,o),
(426,353,o),
(266,387,cs),
(177,406,o),
(156,411,o),
(156,429,cs),
(156,447,o),
(182,457,o),
(261,457,cs),
(316,457,o),
(390,453,o),
(493,427,c),
(493,687,l),
(457,696,o),
(371,710,o),
(276,710,cs),
(103,710,o),
(11,653,o),
(11,525,cs),
(11,403,o),
(110,359,o),
(248,331,cs),
(322,316,o),
(370,303,o),
(370,275,cs),
(370,253,o),
(344,240,o),
(276,240,cs),
(182,240,o),
(81,255,o),
(14,276,c),
(14,13,l)
);
}
);
width = 521;
},
{
anchors = (
{
name = bottom;
pos = (271,0);
},
{
name = center;
pos = (286,350);
},
{
name = top;
pos = (271,700);
}
);
associatedMasterId = m01;
background = {
shapes = (
{
closed = 1;
nodes = (
(61,4,o),
(147,-10,o),
(222,-10,cs),
(406,-10,o),
(518,60,o),
(518,189,cs),
(518,310,o),
(435,353,o),
(277,387,cs),
(203,403,o),
(172,411,o),
(172,432,cs),
(172,447,o),
(188,457,o),
(242,457,cs),
(297,457,o),
(386,453,o),
(484,427,c),
(484,687,l),
(448,696,o),
(362,710,o),
(287,710,cs),
(119,710,o),
(27,653,o),
(27,525,cs),
(27,393,o),
(126,359,o),
(279,327,cs),
(333,316,o),
(381,301,o),
(381,275,cs),
(381,253,o),
(355,240,o),
(287,240,cs),
(193,240,o),
(92,255,o),
(25,276,c),
(25,13,l)
);
}
);
};
backgroundImage = {
imagePath = "/Downloads/IMG_7408.JPG";
locked = 1;
pos = (-899,-1771);
scale = (0.7854,0.7854);
};
layerId = "6B084F93-0A4C-4D12-95ED-22CEE0E3A8F6";
name = "26 Feb 25 at 09:40";
shapes = (
{
closed = 1;
nodes = (
(73,2,o),
(147,-10,o),
(232,-10,cs),
(421,-10,o),
(518,60,o),
(518,181,cs),
(518,299,o),
(440,350,o),
(307,378,cs),
(185,404,o),
(167,413,o),
(167,431,cs),
(167,449,o),
(193,461,o),
(272,461,cs),
(327,461,o),
(396,455,o),
(499,429,c),
(499,687,l),
(463,696,o),
(382,710,o),
(287,710,cs),
(114,710,o),
(22,637,o),
(22,524,cs),
(22,410,o),
(102,365,o),
(239,336,cs),
(357,311,o),
(381,298,o),
(381,275,cs),
(381,253,o),
(354,244,o),
(286,244,cs),
(192,244,o),
(101,261,o),
(24,278,c),
(24,13,l)
);
}
);
width = 534;
},
{
anchors = (
{
name = bottom;
pos = (251,0);
},
{
name = center;
pos = (257,351);
},
{
name = top;
pos = (251,700);
}
);
associatedMasterId = "60D037D9-62E9-4843-B070-F1594CB0B0D1";
background = {
shapes = (
{
pos = (-81,0);
ref = C;
},
{
closed = 1;
nodes = (
(47,15,o),
(114,-16,o),
(210,-16,cs),
(365,-16,o),
(429,70,o),
(429,161,cs),
(429,262,o),
(384,319,o),
(227,387,cs),
(104,440,o),
(67,487,o),
(67,553,cs),
(67,631,o),
(126,680,o),
(234,680,cs),
(307,680,o),
(370,654,o),
(406,629,c),
(406,674,l),
(376,691,o),
(314,716,o),
(234,716,cs),
(99,716,o),
(40,637,o),
(40,555,cs),
(40,477,o),
(77,423,o),
(213,364,cs),
(375,294,o),
(402,235,o),
(402,164,cs),
(402,93,o),
(355,20,o),
(210,20,cs),
(127,20,o),
(62,44,o),
(20,71,c),
(20,28,l)
);
}
);
};
layerId = "1F757034-618B-4CD2-886F-6CBBA0E84196";
name = "5 Apr 25 at 15:20";
shapes = (
{
closed = 1;
nodes = (
(50,9,o),
(132,-16,o),
(212,-16,cs),
(347,-16,o),
(429,63,o),
(429,165,cs),
(429,253,o),
(393,317,o),
(228,387,cs),
(155,418,o),
(67,457,o),
(67,553,cs),
(67,631,o),
(126,680,o),
(234,680,cs),
(307,680,o),
(370,654,o),
(406,629,c),
(406,674,l),
(376,691,o),
(314,716,o),
(234,716,cs),
(99,716,o),
(40,637,o),
(40,555,cs),
(40,442,o),
(129,402,o),
(214,364,cs),
(359,299,o),
(402,243,o),
(402,167,cs),
(402,69,o),
(320,20,o),
(212,20,cs),
(139,20,o),
(56,46,o),
(20,71,c),
(20,26,l)
);
}
);
width = 454;
},
{
anchors = (
{
name = bar;
pos = (229,350);
},
{
name = bottom;
pos = (251,0);
},
{
name = center;
pos = (212,349);
},
{
name = top;
pos = (251,700);
}
);
associatedMasterId = "60D037D9-62E9-4843-B070-F1594CB0B0D1";
layerId = "09676FF0-31B0-4825-927E-198097F326A4";
shapes = (
{
closed = 1;
nodes = (
(364,-16,o),
(429,67,o),
(429,168,cs),
(429,309,o),
(330,350,o),
(233,384,cs),
(152,412,o),
(62,444,o),
(62,541,cs),
(62,620,o),
(126,673,o),
(228,673,cs),
(289,673,o),
(348,654,o),
(392,633,c),
(392,686,l),
(344,704,o),
(290,716,o),
(236,716,cs),
(103,716,o),
(38,645,o),
(38,542,cs),
(38,421,o),
(130,386,o),
(218,355,cs),
(311,322,o),
(405,286,o),
(405,168,cs),
(405,86,o),
(336,27,o),
(217,27,cs),
(134,27,o),
(60,48,o),
(20,70,c),
(20,17,l),
(62,0,o),
(125,-16,o),
(202,-16,cs)
);
}
);
width = 454;
}
);
unicode = 83;
userData = {
KernOnName = S;
};
},
{
glyphname = Germandbls;
kernLeft = KO_H;
kernRight = KO_three;
lastChange = "2025-04-16 10:05:23 +0000";
layers = (
{
layerId = "60D037D9-62E9-4843-B070-F1594CB0B0D1";
shapes = (
{
closed = 1;
nodes = (
(442,-16,o),
(516,76,o),
(516,199,cs),
(516,374,o),
(348,409,o),
(271,409,c),
(349,466,o),
(400,505,o),
(482,569,c),
(482,641,o),
(416,715,o),
(294,715,cs),
(181,715,o),
(83,656,o),
(70,534,cs),
(64,474,o),
(63,435,o),
(63,395,cs),
(63,263,o),
(63,263,o),
(58,0,c),
(89,0,l),
(85,177,o),
(85,302,o),
(85,393,cs),
(85,510,o),
(97,572,o),
(130,612,cs),
(160,648,o),
(215,677,o),
(296,677,cs),
(411,677,o),
(454,612,o),
(454,592,cs),
(454,583,o),
(448,577,o),
(436,567,cs),
(383,526,o),
(299,463,o),
(240,420,c),
(240,382,l),
(258,382,o),
(276,382,o),
(307,378,cs),
(385,368,o),
(490,322,o),
(490,198,cs),
(490,94,o),
(415,22,o),
(282,22,cs),
(236,22,o),
(198,30,o),
(166,40,c),
(166,-1,l),
(199,-9,o),
(240,-16,o),
(278,-16,cs)
);
}
);
width = 542;
},
{
layerId = m01;
shapes = (
{
closed = 1;
nodes = (
(547,-10,o),
(629,66,o),
(629,179,cs),
(629,278,o),
(564,364,o),
(394,384,c),
(459,406,o),
(498,418,o),
(586,445,c),
(586,608,o),
(535,710,o),
(314,710,cs),
(126,710,o),
(79,614,o),
(60,545,cs),
(46,493,o),
(41,441,o),
(41,293,cs),
(41,195,o),
(41,98,o),
(38,0,c),
(117,0,l),
(114,144,o),
(114,233,o),
(114,293,cs),
(114,362,o),
(131,403,o),
(169,430,cs),
(200,452,o),
(243,462,o),
(299,462,cs),
(358,462,o),
(396,456,o),
(396,447,cs),
(396,444,o),
(396,442,o),
(392,439,cs),
(383,432,o),
(275,396,o),
(248,392,c),
(248,341,l),
(312,341,o),
(358,336,o),
(389,330,cs),
(420,324,o),
(473,313,o),
(473,297,cs),
(473,287,o),
(460,280,o),
(398,280,cs),
(330,280,o),
(238,288,o),
(179,300,c),
(179,8,l),
(218,0,o),
(278,-10,o),
(373,-10,cs)
);
}
);
width = 639;
},
{
associatedMasterId = "60D037D9-62E9-4843-B070-F1594CB0B0D1";
layerId = "09676FF0-31B0-4825-927E-198097F326A4";
shapes = (
{
closed = 1;
nodes = (
(442,-16,o),
(516,76,o),
(516,199,cs),
(516,374,o),
(348,409,o),
(271,409,c),
(349,466,o),
(400,505,o),
(482,569,c),
(482,641,o),
(416,715,o),
(294,715,cs),
(181,715,o),
(83,656,o),
(70,534,cs),
(64,474,o),
(63,435,o),
(63,395,cs),
(63,263,o),
(63,263,o),
(58,0,c),
(89,0,l),
(85,177,o),
(85,302,o),
(85,393,cs),
(85,510,o),
(97,572,o),
(130,612,cs),
(160,648,o),
(215,677,o),
(296,677,cs),
(411,677,o),
(454,612,o),
(454,592,cs),
(454,583,o),
(448,577,o),
(436,567,cs),
(383,526,o),
(299,463,o),
(240,420,c),
(240,382,l),
(258,382,o),
(276,382,o),
(307,378,cs),
(385,368,o),
(490,322,o),
(490,198,cs),
(490,94,o),
(415,22,o),
(282,22,cs),
(236,22,o),
(198,30,o),
(166,40,c),
(166,-1,l),
(199,-9,o),
(240,-16,o),
(278,-16,cs)
);
}
);
width = 542;
}
);
metricLeft = H;
metricRight = s;
unicode = 7838;
},
{
glyphname = T;
kernLeft = KO_T;
kernRight = KO_T;
lastChange = "2025-04-16 11:33:42 +0000";
layers = (
{
anchors = (
{
name = bottom;
pos = (291,0);
},
{
name = center;
pos = (291,240);
},
{
name = hook;
pos = (17,700);
},
{
name = top;
pos = (291,700);
}
);
layerId = m01;
shapes = (
{
closed = 1;
nodes = (
(332,0,l),
(328,120,o),
(327,227,o),
(327,340,cs),
(327,372,o),
(327,386,o),
(354,393,cs),
(365,396,o),
(384,397,o),
(419,397,cs),
(437,397,o),
(453,397,o),
(560,393,c),
(560,700,l),
(22,700,l),
(22,393,l),
(129,397,o),
(145,397,o),
(163,397,cs),
(198,397,o),
(217,396,o),
(228,393,cs),
(255,386,o),
(255,372,o),
(255,340,cs),
(255,227,o),
(254,120,o),
(250,0,c)
);
}
);
width = 582;
},
{
anchors = (
{
name = bottom;
pos = (264,0);
},
{
name = center;
pos = (264,350);
},
{
name = hook;
pos = (24,700);
},
{
name = top;
pos = (264,700);
}
);
layerId = "60D037D9-62E9-4843-B070-F1594CB0B0D1";
shapes = (
{
closed = 1;
nodes = (
(281,0,l),
(276,267,o),
(275,537,o),
(275,599,cs),
(275,631,o),
(277,646,o),
(287,654,cs),
(293,659,o),
(299,661,o),
(357,661,cs),
(376,661,o),
(431,661,o),
(493,659,c),
(493,700,l),
(34,700,l),
(34,659,l),
(96,661,o),
(151,661,o),
(170,661,cs),
(228,661,o),
(234,659,o),
(240,654,cs),
(250,646,o),
(252,631,o),
(252,599,cs),
(252,537,o),
(251,267,o),
(247,0,c)
);
}
);
width = 527;
},
{
anchors = (
{
name = bottom;
pos = (264,0);
},
{
name = center;
pos = (264,350);
},
{
name = hook;
pos = (24,700);
},
{
name = top;
pos = (264,700);
}
);
associatedMasterId = "60D037D9-62E9-4843-B070-F1594CB0B0D1";
layerId = "09676FF0-31B0-4825-927E-198097F326A4";
shapes = (
{
closed = 1;
nodes = (
(281,0,l),
(276,267,o),
(275,542,o),
(275,604,cs),
(275,636,o),
(277,651,o),
(287,659,cs),
(293,664,o),
(299,666,o),
(357,666,cs),
(376,666,o),
(431,666,o),
(493,664,c),
(493,700,l),
(34,700,l),
(34,664,l),
(96,666,o),
(151,666,o),
(170,666,cs),
(228,666,o),
(234,664,o),
(240,659,cs),
(250,651,o),
(252,636,o),
(252,604,cs),
(252,542,o),
(251,267,o),
(247,0,c)
);
}
);
width = 527;
}
);
unicode = 84;
userData = {
KernOnName = T;
};
},
{
glyphname = Thook;
kernLeft = KO_Thook;
kernRight = KO_T;
lastChange = "2025-04-16 10:05:02 +0000";
layers = (
{
layerId = "60D037D9-62E9-4843-B070-F1594CB0B0D1";
shapes = (
{
closed = 1;
nodes = (
(277,0,l),
(272,267,o),
(271,537,o),
(271,599,cs),
(271,631,o),
(273,646,o),
(283,654,cs),
(289,659,o),
(295,661,o),
(353,661,cs),
(372,661,o),
(427,661,o),
(489,659,c),
(489,700,l),
(138,700,ls),
(75,700,o),
(30,681,o),
(34,595,c),
(70,595,l),
(70,656,o),
(105,661,o),
(138,661,cs),
(151,661,o),
(160,661,o),
(166,661,cs),
(224,661,o),
(230,659,o),
(236,654,cs),
(246,646,o),
(248,631,o),
(248,599,cs),
(248,537,o),
(247,267,o),
(243,0,c)
);
}
);
width = 523;
},
{
layerId = m01;
shapes = (
{
closed = 1;
nodes = (
(399,0,l),
(395,120,o),
(394,228,o),
(394,341,cs),
(394,373,o),
(394,387,o),
(421,394,cs),
(432,397,o),
(451,398,o),
(486,398,cs),
(504,398,o),
(525,398,o),
(630,394,c),
(630,700,l),
(247,700,ls),
(23,700,o),
(15,565,o),
(25,328,c),
(131,328,l),
(131,354,o),
(125,383,o),
(156,393,cs),
(166,396,o),
(182,398,o),
(226,398,cs),
(261,398,o),
(280,397,o),
(291,394,cs),
(318,387,o),
(318,373,o),
(318,341,cs),
(318,228,o),
(317,120,o),
(313,0,c)
);
}
);
width = 652;
},
{
associatedMasterId = "60D037D9-62E9-4843-B070-F1594CB0B0D1";
layerId = "09676FF0-31B0-4825-927E-198097F326A4";
shapes = (
{
closed = 1;
nodes = (
(277,0,l),
(272,267,o),
(271,542,o),
(271,604,cs),
(271,636,o),
(273,651,o),
(283,659,cs),
(289,664,o),
(295,666,o),
(353,666,cs),
(372,666,o),
(427,666,o),
(489,664,c),
(489,700,l),
(138,700,ls),
(75,700,o),
(30,686,o),
(34,600,c),
(70,600,l),
(70,661,o),
(105,666,o),
(138,666,cs),
(151,666,o),
(160,666,o),
(166,666,cs),
(224,666,o),
(230,664,o),
(236,659,cs),
(246,651,o),
(248,636,o),
(248,604,cs),
(248,542,o),
(247,267,o),
(243,0,c)
);
}
);
width = 523;
}
);
metricLeft = T;
metricRight = T;
unicode = 428;
},
{
glyphname = Tretroflexhook;
kernLeft = KO_T;
kernRight = KO_T;
lastChange = "2025-04-16 10:05:04 +0000";
layers = (
{
layerId = "60D037D9-62E9-4843-B070-F1594CB0B0D1";
shapes = (
{
closed = 1;
nodes = (
(378,-217,o),
(392,-215,o),
(407,-211,c),
(407,-173,l),
(393,-177,o),
(379,-180,o),
(365,-180,cs),
(306,-180,o),
(277,-143,o),
(277,-67,cs),
(277,-30,o),
(275,547,o),
(275,599,cs),
(275,631,o),
(277,646,o),
(287,654,cs),
(293,659,o),
(299,661,o),
(357,661,cs),
(376,661,o),
(431,661,o),
(493,659,c),
(493,700,l),
(34,700,l),
(34,659,l),
(96,661,o),
(151,661,o),
(170,661,cs),
(228,661,o),
(234,659,o),
(240,654,cs),
(250,646,o),
(252,631,o),
(252,599,cs),
(252,547,o),
(252,267,o),
(251,0,cs),
(251,-24,o),
(251,-67,o),
(251,-83,cs),
(251,-169,o),
(282,-217,o),
(364,-217,cs)
);
}
);
width = 527;
},
{
layerId = m01;
shapes = (
{
closed = 1;
nodes = (
(420,-218,o),
(429,-217,o),
(461,-212,c),
(461,-24,l),
(438,-31,o),
(427,-34,o),
(400,-34,cs),
(363,-34,o),
(341,-13,o),
(337,34,cs),
(335,61,o),
(334,271,o),
(334,340,cs),
(334,372,o),
(334,386,o),
(361,393,cs),
(372,396,o),
(391,397,o),
(426,397,cs),
(444,397,o),
(465,397,o),
(570,393,c),
(570,700,l),
(22,700,l),
(22,393,l),
(127,397,o),
(148,397,o),
(166,397,cs),
(201,397,o),
(220,396,o),
(231,393,cs),
(258,386,o),
(258,372,o),
(258,340,cs),
(258,278,o),
(258,278,o),
(257,89,cs),
(257,41,o),
(257,-1,o),
(257,-28,cs),
(257,-135,o),
(284,-218,o),
(396,-218,cs)
);
}
);
width = 592;
},
{
associatedMasterId = "60D037D9-62E9-4843-B070-F1594CB0B0D1";
layerId = "09676FF0-31B0-4825-927E-198097F326A4";
shapes = (
{
closed = 1;
nodes = (
(378,-217,o),
(392,-215,o),
(407,-211,c),
(407,-173,l),
(393,-177,o),
(379,-180,o),
(365,-180,cs),
(306,-180,o),
(277,-143,o),
(277,-67,cs),
(277,-30,o),
(275,552,o),
(275,604,cs),
(275,636,o),
(277,651,o),
(287,659,cs),
(293,664,o),
(299,666,o),
(357,666,cs),
(376,666,o),
(431,666,o),
(493,664,c),
(493,700,l),
(34,700,l),
(34,664,l),
(96,666,o),
(151,666,o),
(170,666,cs),
(228,666,o),
(234,664,o),
(240,659,cs),
(250,651,o),
(252,636,o),
(252,604,cs),
(252,542,o),
(255,267,o),
(251,0,cs),
(251,-24,o),
(251,-67,o),
(251,-83,cs),
(251,-169,o),
(282,-217,o),
(364,-217,cs)
);
}
);
width = 527;
}
);
metricLeft = T;
metricRight = T;
unicode = 430;
},
{
glyphname = U;
kernLeft = KO_U;
kernRight = KO_U;
lastChange = "2025-04-16 10:04:58 +0000";
layers = (
{
anchors = (
{
name = bottom;
pos = (326,0);
},
{
name = center;
pos = (326,346);
},
{
name = ogonek;
pos = (407,10);
},
{
name = top;
pos = (326,700);
},
{
name = topright;
pos = (556,700);
}
);
layerId = m01;
shapes = (
{
closed = 1;
nodes = (
(539,-10,o),
(605,107,o),
(605,252,cs),
(605,440,o),
(605,440,o),
(612,700,c),
(529,700,l),
(532,607,o),
(533,511,o),
(533,418,cs),
(533,327,o),
(501,323,o),
(321,323,cs),
(141,323,o),
(109,327,o),
(109,418,cs),
(109,511,o),
(110,607,o),
(113,700,c),
(30,700,l),
(37,440,o),
(37,440,o),
(37,252,cs),
(37,107,o),
(103,-10,o),
(321,-10,cs)
);
}
);
width = 642;
},
{
anchors = (
{
name = bottom;
pos = (280,0);
},
{
name = center;
pos = (280,345);
},
{
name = ogonek;
pos = (333,0);
},
{
name = top;
pos = (280,700);
},
{
name = topright;
pos = (477,700);
}
);
layerId = "60D037D9-62E9-4843-B070-F1594CB0B0D1";
shapes = (
{
closed = 1;
nodes = (
(467,-11,o),
(504,119,o),
(504,233,cs),
(504,273,o),
(506,516,o),
(510,700,c),
(477,700,l),
(480,538,o),
(481,376,o),
(481,214,cs),
(481,95,o),
(400,28,o),
(280,28,cs),
(160,28,o),
(79,95,o),
(79,214,cs),
(79,376,o),
(80,538,o),
(83,700,c),
(50,700,l),
(54,516,o),
(56,273,o),
(56,233,cs),
(56,115,o),
(95,-11,o),
(280,-11,cs)
);
}
);
width = 560;
},
{
anchors = (
{
name = bottom;
pos = (280,0);
},
{
name = center;
pos = (280,345);
},
{
name = ogonek;
pos = (333,0);
},
{
name = top;
pos = (280,700);
},
{
name = topright;
pos = (477,700);
}
);
associatedMasterId = "60D037D9-62E9-4843-B070-F1594CB0B0D1";
layerId = "09676FF0-31B0-4825-927E-198097F326A4";
shapes = (
{
closed = 1;
nodes = (
(467,-11,o),
(504,119,o),
(504,233,cs),
(504,273,o),
(506,516,o),
(510,700,c),
(477,700,l),
(480,538,o),
(481,376,o),
(481,214,cs),
(481,95,o),
(400,28,o),
(280,28,cs),
(160,28,o),
(79,95,o),
(79,214,cs),
(79,376,o),
(80,538,o),
(83,700,c),
(50,700,l),
(54,516,o),
(56,273,o),
(56,233,cs),
(56,115,o),
(95,-11,o),
(280,-11,cs)
);
}
);
width = 560;
}
);
unicode = 85;
userData = {
KernOnName = U;
};
},
{
glyphname = Ubar;
kernLeft = KO_Ubar;
kernRight = KO_Ubar;
lastChange = "2025-04-16 11:32:45 +0000";
layers = (
{
layerId = "60D037D9-62E9-4843-B070-F1594CB0B0D1";
shapes = (
{
closed = 1;
nodes = (
(195,476,o),
(205,476,o),
(306,476,cs),
(407,476,o),
(417,476,o),
(592,473,c),
(592,508,l),
(417,505,o),
(407,505,o),
(306,505,cs),
(205,505,o),
(195,505,o),
(20,508,c),
(20,473,l)
);
},
{
pos = (26,0);
ref = U;
}
);
width = 612;
},
{
layerId = m01;
shapes = (
{
closed = 1;
nodes = (
(133,487,o),
(147,487,o),
(341,487,cs),
(534,487,o),
(553,487,o),
(681,484,c),
(681,535,l),
(553,532,o),
(534,532,o),
(341,532,cs),
(147,532,o),
(133,532,o),
(5,535,c),
(5,484,l)
);
},
{
pos = (22,0);
ref = U;
}
);
width = 686;
},
{
associatedMasterId = "60D037D9-62E9-4843-B070-F1594CB0B0D1";
layerId = "09676FF0-31B0-4825-927E-198097F326A4";
shapes = (
{
closed = 1;
nodes = (
(195,476,o),
(205,476,o),
(306,476,cs),
(407,476,o),
(417,476,o),
(592,473,c),
(592,508,l),
(417,505,o),
(407,505,o),
(306,505,cs),
(205,505,o),
(195,505,o),
(20,508,c),
(20,473,l)
);
},
{
pos = (26,0);
ref = U;
}
);
width = 612;
}
);
unicode = 580;
},
{
glyphname = "Upsilon-latin";
kernLeft = KO_Upsilon;
kernRight = KO_Upsilon;
lastChange = "2025-04-16 10:05:28 +0000";
layers = (
{
layerId = "60D037D9-62E9-4843-B070-F1594CB0B0D1";
shapes = (
{
closed = 1;
nodes = (
(501,-16,o),
(644,78,o),
(644,341,cs),
(644,514,o),
(529,629,o),
(469,661,c),
(596,661,l),
(596,700,l),
(389,700,l),
(389,661,l),
(513,632,o),
(621,502,o),
(621,332,cs),
(621,109,o),
(483,23,o),
(341,23,cs),
(199,23,o),
(61,109,o),
(61,332,cs),
(61,502,o),
(169,632,o),
(293,661,c),
(293,700,l),
(86,700,l),
(86,661,l),
(213,661,l),
(153,629,o),
(38,514,o),
(38,341,cs),
(38,78,o),
(181,-16,o),
(341,-16,cs)
);
}
);
width = 682;
},
{
layerId = m01;
shapes = (
{
closed = 1;
nodes = (
(605,-8,o),
(677,94,o),
(677,261,cs),
(677,327,o),
(659,382,o),
(618,426,c),
(673,426,l),
(673,700,l),
(379,700,l),
(379,392,l),
(558,392,o),
(593,378,o),
(593,347,cs),
(593,315,o),
(556,302,o),
(349,302,cs),
(143,302,o),
(106,315,o),
(106,347,cs),
(106,378,o),
(140,392,o),
(320,392,c),
(320,700,l),
(26,700,l),
(26,426,l),
(81,426,l),
(40,382,o),
(22,327,o),
(22,261,cs),
(22,94,o),
(94,-8,o),
(349,-8,cs)
);
}
);
width = 699;
},
{
associatedMasterId = "60D037D9-62E9-4843-B070-F1594CB0B0D1";
layerId = "09676FF0-31B0-4825-927E-198097F326A4";
shapes = (
{
closed = 1;
nodes = (
(501,-16,o),
(644,78,o),
(644,341,cs),
(644,514,o),
(529,629,o),
(469,661,c),
(596,661,l),
(596,700,l),
(389,700,l),
(389,661,l),
(513,632,o),
(621,502,o),
(621,332,cs),
(621,109,o),
(483,23,o),
(341,23,cs),
(199,23,o),
(61,109,o),
(61,332,cs),
(61,502,o),
(169,632,o),
(293,661,c),
(293,700,l),
(86,700,l),
(86,661,l),
(213,661,l),
(153,629,o),
(38,514,o),
(38,341,cs),
(38,78,o),
(181,-16,o),
(341,-16,cs)
);
}
);
width = 682;
}
);
metricLeft = O;
metricRight = O;
unicode = 433;
},
{
glyphname = V;
kernLeft = KO_V;
kernRight = KO_V;
lastChange = "2025-04-16 10:05:33 +0000";
layers = (
{
anchors = (
{
name = bottom;
pos = (318,0);
},
{
name = top;
pos = (318,700);
}
);
layerId = m01;
shapes = (
{
closed = 1;
nodes = (
(544,0,l),
(565,224,o),
(587,452,o),
(626,700,c),
(537,700,l),
(533,623,o),
(518,468,o),
(503,401,cs),
(496,369,o),
(480,364,o),
(318,364,cs),
(156,364,o),
(140,369,o),
(133,401,cs),
(118,468,o),
(103,623,o),
(99,700,c),
(10,700,l),
(49,452,o),
(71,224,o),
(92,0,c)
);
}
);
width = 636;
},
{
anchors = (
{
name = bottom;
pos = (296,0);
},
{
name = top;
pos = (296,700);
}
);
layerId = "60D037D9-62E9-4843-B070-F1594CB0B0D1";
shapes = (
{
closed = 1;
nodes = (
(435,0,l),
(462,232,o),
(496,468,o),
(536,700,c),
(501,700,l),
(477,490,o),
(450,282,o),
(416,70,cs),
(411,39,o),
(402,37,o),
(286,37,cs),
(170,37,o),
(161,39,o),
(156,70,cs),
(122,282,o),
(95,490,o),
(71,700,c),
(36,700,l),
(74,468,o),
(110,232,o),
(137,0,c)
);
}
);
width = 572;
},
{
anchors = (
{
name = bottom;
pos = (296,0);
},
{
name = top;
pos = (296,700);
}
);
associatedMasterId = "60D037D9-62E9-4843-B070-F1594CB0B0D1";
layerId = "09676FF0-31B0-4825-927E-198097F326A4";
shapes = (
{
closed = 1;
nodes = (
(435,0,l),
(462,232,o),
(496,468,o),
(536,700,c),
(501,700,l),
(477,490,o),
(450,282,o),
(416,70,cs),
(411,39,o),
(402,37,o),
(286,37,cs),
(170,37,o),
(161,39,o),
(156,70,cs),
(122,282,o),
(95,490,o),
(71,700,c),
(36,700,l),
(74,468,o),
(110,232,o),
(137,0,c)
);
}
);
width = 572;
}
);
metricLeft = A;
metricRight = A;
unicode = 86;
userData = {
KernOnName = V;
};
},
{
glyphname = "Gamma-latin";
kernLeft = KO_Gamma;
kernRight = KO_Gamma;
lastChange = "2025-04-16 10:05:35 +0000";
layers = (
{
anchors = (
{
name = bottom;
pos = (287,0);
},
{
name = top;
pos = (287,700);
}
);
guides = (
{
angle = 114.4327;
pos = (165,439);
},
{
angle = 65.5673;
pos = (339,439);
}
);
layerId = "60D037D9-62E9-4843-B070-F1594CB0B0D1";
shapes = (
{
closed = 1;
nodes = (
(351,-218,o),
(381,-169,o),
(381,-118,cs),
(381,-82,o),
(361,-40,o),
(299,90,c),
(339,185,o),
(419,379,o),
(538,700,c),
(502,700,l),
(400,406,o),
(325,217,o),
(287,124,c),
(249,217,o),
(174,406,o),
(72,700,c),
(36,700,l),
(155,379,o),
(235,185,o),
(275,90,c),
(213,-40,o),
(193,-82,o),
(193,-118,cs),
(193,-169,o),
(223,-218,o),
(287,-218,cs)
);
},
{
closed = 1;
nodes = (
(246,-179,o),
(221,-149,o),
(221,-118,cs),
(221,-83,o),
(235,-49,o),
(287,58,c),
(339,-49,o),
(353,-83,o),
(353,-118,cs),
(353,-149,o),
(328,-179,o),
(287,-179,cs)
);
}
);
width = 574;
},
{
anchors = (
{
name = bottom;
pos = (303,0);
},
{
name = top;
pos = (303,700);
}
);
layerId = m01;
shapes = (
{
closed = 1;
nodes = (
(447,-218,o),
(477,-133,o),
(477,-84,cs),
(477,-35,o),
(477,-12,o),
(350,225,c),
(391,306,o),
(423,368,o),
(596,700,c),
(498,700,l),
(380,454,o),
(346,387,o),
(303,304,c),
(259,387,o),
(226,454,o),
(108,700,c),
(10,700,l),
(183,368,o),
(215,306,o),
(256,225,c),
(129,-12,o),
(129,-35,o),
(129,-84,cs),
(129,-133,o),
(159,-218,o),
(303,-218,cs)
);
},
{
closed = 1;
nodes = (
(289,40,o),
(276,47,o),
(276,64,cs),
(276,78,o),
(283,94,o),
(303,136,c),
(323,94,o),
(330,78,o),
(330,64,cs),
(330,47,o),
(317,40,o),
(303,40,cs)
);
}
);
width = 606;
},
{
associatedMasterId = m01;
background = {
shapes = (
{
pos = (-30,0);
ref = V;
},
{
closed = 1;
nodes = (
(166,368,o),
(213,275,o),
(255,193,c),
(174,39,o),
(141,-25,o),
(141,-76,cs),
(141,-135,o),
(171,-205,o),
(292,-205,cs),
(413,-205,o),
(443,-135,o),
(443,-76,cs),
(443,-25,o),
(410,39,o),
(329,193,c),
(371,275,o),
(418,368,o),
(584,700,c),
(482,700,l),
(381,454,o),
(332,339,o),
(292,256,c),
(229,404,o),
(165,552,o),
(102,700,c),
(0,700,l)
);
},
{
closed = 1;
nodes = (
(278,0,o),
(263,9,o),
(263,31,cs),
(263,52,o),
(274,79,o),
(292,121,c),
(310,79,o),
(321,52,o),
(321,31,cs),
(321,9,o),
(306,0,o),
(292,0,cs)
);
}
);
};
layerId = "36B8B37B-0C82-4C4A-8B73-D0987E162290";
name = "4 Apr 25 at 15:10";
shapes = (
{
closed = 1;
nodes = (
(524,150,l),
(556,374,o),
(570,469,o),
(616,700,c),
(519,700,l),
(517,673,o),
(510,587,o),
(492,481,cs),
(487,449,o),
(470,444,o),
(313,444,cs),
(156,444,o),
(139,449,o),
(134,481,cs),
(116,587,o),
(109,673,o),
(107,700,c),
(10,700,l),
(56,470,o),
(70,374,o),
(102,150,c)
);
},
{
closed = 1;
nodes = (
(445,-60,o),
(493,4,o),
(493,112,cs),
(493,219,o),
(445,283,o),
(313,283,cs),
(181,283,o),
(133,219,o),
(133,112,cs),
(133,4,o),
(181,-60,o),
(313,-60,cs)
);
},
{
closed = 1;
nodes = (
(233,73,o),
(205,85,o),
(205,112,cs),
(205,138,o),
(233,150,o),
(313,150,cs),
(397,150,o),
(421,138,o),
(421,112,cs),
(421,85,o),
(397,73,o),
(313,73,cs)
);
}
);
width = 626;
},
{
associatedMasterId = m01;
background = {
shapes = (
{
closed = 1;
nodes = (
(513,700,l),
(508,610,o),
(499,478,o),
(489,432,cs),
(482,400,o),
(466,395,o),
(309,395,cs),
(152,395,o),
(136,400,o),
(129,432,cs),
(119,478,o),
(110,610,o),
(105,700,c),
(21,700,l),
(52,470,o),
(76,274,o),
(98,81,c),
(520,81,l),
(542,274,o),
(566,470,o),
(597,700,c)
);
}
);
};
layerId = "9A0B0BF0-27FF-4238-A216-EE6AD892AEE0";
name = "13 Apr 25 at 23:40";
shapes = (
{
closed = 1;
nodes = (
(522,700,l),
(516,623,o),
(508,530,o),
(498,482,cs),
(491,450,o),
(475,445,o),
(309,445,cs),
(143,445,o),
(127,450,o),
(120,482,cs),
(110,530,o),
(102,623,o),
(96,700,c),
(10,700,l),
(42,483,o),
(64,280,o),
(83,81,c),
(535,81,l),
(554,280,o),
(576,483,o),
(608,700,c)
);
},
{
closed = 1;
nodes = (
(439,-180,o),
(486,-117,o),
(486,-20,cs),
(486,95,o),
(439,158,o),
(309,158,cs),
(179,158,o),
(132,95,o),
(132,-20,cs),
(132,-117,o),
(179,-180,o),
(309,-180,cs)
);
},
{
closed = 1;
nodes = (
(230,10,o),
(203,21,o),
(203,46,cs),
(203,69,o),
(230,80,o),
(309,80,cs),
(391,80,o),
(415,69,o),
(415,46,cs),
(415,21,o),
(391,10,o),
(309,10,cs)
);
}
);
width = 618;
},
{
associatedMasterId = "60D037D9-62E9-4843-B070-F1594CB0B0D1";
background = {
shapes = (
{
pos = (-19,0);
ref = V;
},
{
closed = 1;
nodes = (
(131,390,o),
(211,196,o),
(251,101,c),
(189,-29,o),
(169,-71,o),
(169,-107,cs),
(169,-158,o),
(199,-207,o),
(263,-207,cs),
(327,-207,o),
(357,-158,o),
(357,-107,cs),
(357,-71,o),
(337,-29,o),
(275,101,c),
(315,196,o),
(395,390,o),
(514,700,c),
(478,700,l),
(376,417,o),
(301,228,o),
(263,135,c),
(225,228,o),
(150,417,o),
(48,700,c),
(12,700,l)
);
},
{
closed = 1;
nodes = (
(222,-168,o),
(197,-138,o),
(197,-107,cs),
(197,-72,o),
(211,-38,o),
(263,69,c),
(315,-38,o),
(329,-72,o),
(329,-107,cs),
(329,-138,o),
(304,-168,o),
(263,-168,cs)
);
}
);
};
guides = (
{
angle = 114.4327;
pos = (165,439);
},
{
angle = 65.5673;
pos = (339,439);
}
);
layerId = "0B7DBEB8-945D-47BA-9F95-842122C0A120";
name = "13 Apr 25 at 23:45";
shapes = (
{
closed = 1;
nodes = (
(155,390,o),
(235,196,o),
(275,101,c),
(213,-29,o),
(193,-71,o),
(193,-107,cs),
(193,-158,o),
(223,-207,o),
(287,-207,cs),
(351,-207,o),
(381,-158,o),
(381,-107,cs),
(381,-71,o),
(361,-29,o),
(299,101,c),
(339,196,o),
(419,390,o),
(538,700,c),
(502,700,l),
(400,417,o),
(325,228,o),
(287,135,c),
(249,228,o),
(174,417,o),
(72,700,c),
(36,700,l)
);
},
{
closed = 1;
nodes = (
(246,-168,o),
(221,-138,o),
(221,-107,cs),
(221,-72,o),
(235,-38,o),
(287,69,c),
(339,-38,o),
(353,-72,o),
(353,-107,cs),
(353,-138,o),
(328,-168,o),
(287,-168,cs)
);
}
);
width = 574;
},
{
associatedMasterId = m01;
background = {
shapes = (
{
closed = 1;
nodes = (
(534,700,l),
(528,623,o),
(520,530,o),
(510,482,cs),
(503,450,o),
(487,445,o),
(321,445,cs),
(155,445,o),
(139,450,o),
(132,482,cs),
(122,530,o),
(114,623,o),
(108,700,c),
(22,700,l),
(54,483,o),
(76,280,o),
(95,81,c),
(547,81,l),
(566,280,o),
(588,483,o),
(620,700,c)
);
},
{
closed = 1;
nodes = (
(451,-180,o),
(498,-117,o),
(498,-20,cs),
(498,95,o),
(451,158,o),
(321,158,cs),
(191,158,o),
(144,95,o),
(144,-20,cs),
(144,-117,o),
(191,-180,o),
(321,-180,cs)
);
},
{
closed = 1;
nodes = (
(242,10,o),
(215,21,o),
(215,46,cs),
(215,69,o),
(242,80,o),
(321,80,cs),
(403,80,o),
(427,69,o),
(427,46,cs),
(427,21,o),
(403,10,o),
(321,10,cs)
);
}
);
};
layerId = "B2C400DF-2623-4E1A-AF71-9D843D6A27EE";
name = "14 Apr 25 at 00:55";
shapes = (
{
closed = 1;
nodes = (
(181,378,o),
(208,325,o),
(249,244,c),
(137,33,o),
(71,-208,o),
(294,-208,cs),
(438,-208,o),
(468,-130,o),
(468,-61,cs),
(468,14,o),
(407,130,o),
(347,244,c),
(388,325,o),
(415,378,o),
(586,700,c),
(484,700,l),
(370,464,o),
(341,405,o),
(298,322,c),
(255,405,o),
(226,464,o),
(112,700,c),
(10,700,l)
);
},
{
closed = 1;
nodes = (
(280,50,o),
(265,57,o),
(265,79,cs),
(265,95,o),
(274,116,o),
(294,158,c),
(314,116,o),
(323,95,o),
(323,77,cs),
(323,58,o),
(308,50,o),
(294,50,cs)
);
}
);
width = 596;
},
{
anchors = (
{
name = bottom;
pos = (287,0);
},
{
name = top;
pos = (287,700);
}
);
associatedMasterId = "60D037D9-62E9-4843-B070-F1594CB0B0D1";
layerId = "09676FF0-31B0-4825-927E-198097F326A4";
shapes = (
{
closed = 1;
nodes = (
(351,-218,o),
(381,-169,o),
(381,-118,cs),
(381,-82,o),
(361,-40,o),
(299,90,c),
(339,185,o),
(419,379,o),
(538,700,c),
(502,700,l),
(400,406,o),
(325,217,o),
(287,124,c),
(249,217,o),
(174,406,o),
(72,700,c),
(36,700,l),
(155,379,o),
(235,185,o),
(275,90,c),
(213,-40,o),
(193,-82,o),
(193,-118,cs),
(193,-169,o),
(223,-218,o),
(287,-218,cs)
);
},
{
closed = 1;
nodes = (
(246,-179,o),
(221,-149,o),
(221,-118,cs),
(221,-83,o),
(235,-49,o),
(287,58,c),
(339,-49,o),
(353,-83,o),
(353,-118,cs),
(353,-149,o),
(328,-179,o),
(287,-179,cs)
);
}
);
width = 574;
}
);
metricLeft = V;
metricRight = V;
unicode = 404;
},
{
glyphname = Vhook;
kernLeft = KO_U;
kernRight = KO_Vhook;
lastChange = "2025-04-16 10:05:48 +0000";
layers = (
{
layerId = "60D037D9-62E9-4843-B070-F1594CB0B0D1";
shapes = (
{
closed = 1;
nodes = (
(485,-11,o),
(553,284,o),
(553,427,cs),
(553,531,o),
(531,609,o),
(487,656,cs),
(445,700,o),
(396,710,o),
(335,710,c),
(335,670,l),
(377,675,o),
(435,667,o),
(472,627,cs),
(507,589,o),
(528,524,o),
(528,426,cs),
(528,224,o),
(423,28,o),
(252,28,cs),
(156,28,o),
(77,95,o),
(77,214,cs),
(77,376,o),
(78,538,o),
(81,700,c),
(50,700,l),
(54,516,o),
(54,273,o),
(54,233,cs),
(54,115,o),
(91,-11,o),
(252,-11,c)
);
}
);
width = 591;
},
{
layerId = m01;
shapes = (
{
closed = 1;
nodes = (
(495,-10,o),
(616,177,o),
(616,482,cs),
(616,561,o),
(613,639,o),
(579,678,cs),
(554,706,o),
(512,713,o),
(444,708,c),
(444,600,l),
(477,601,o),
(499,597,o),
(515,582,cs),
(538,560,o),
(545,512,o),
(545,475,cs),
(545,347,o),
(524,339,o),
(349,339,cs),
(123,339,o),
(110,347,o),
(110,421,cs),
(110,514,o),
(112,607,o),
(115,700,c),
(30,700,l),
(33,440,o),
(33,440,o),
(33,310,cs),
(33,56,o),
(80,-10,o),
(281,-10,cs)
);
}
);
width = 638;
},
{
associatedMasterId = "60D037D9-62E9-4843-B070-F1594CB0B0D1";
layerId = "09676FF0-31B0-4825-927E-198097F326A4";
shapes = (
{
closed = 1;
nodes = (
(485,-11,o),
(553,284,o),
(553,427,cs),
(553,531,o),
(531,609,o),
(487,656,cs),
(445,700,o),
(396,710,o),
(335,710,c),
(335,670,l),
(377,675,o),
(435,667,o),
(472,627,cs),
(507,589,o),
(528,524,o),
(528,426,cs),
(528,224,o),
(423,28,o),
(252,28,cs),
(156,28,o),
(77,95,o),
(77,214,cs),
(77,376,o),
(78,538,o),
(81,700,c),
(50,700,l),
(54,516,o),
(54,273,o),
(54,233,cs),
(54,115,o),
(91,-11,o),
(252,-11,c)
);
}
);
width = 591;
}
);
metricLeft = U;
metricRight = O;
unicode = 434;
},
{
glyphname = W;
kernLeft = KO_W;
kernRight = KO_W;
lastChange = "2025-04-16 10:05:50 +0000";
layers = (
{
anchors = (
{
name = bottom;
pos = (460,0);
},
{
name = hook;
pos = (850,700);
},
{
name = top;
pos = (460,700);
}
);
layerId = m01;
shapes = (
{
closed = 1;
nodes = (
(394,0,l),
(418,319,o),
(423,347,o),
(460,347,cs),
(497,347,o),
(502,319,o),
(526,0,c),
(831,0,l),
(839,116,o),
(849,233,o),
(862,350,cs),
(875,467,o),
(891,583,o),
(910,700,c),
(820,700,l),
(816,603,o),
(806,518,o),
(798,451,cs),
(794,417,o),
(787,395,o),
(773,384,cs),
(759,373,o),
(729,371,o),
(679,371,cs),
(629,371,o),
(598,373,o),
(580,388,cs),
(551,412,o),
(544,436,o),
(508,700,c),
(412,700,l),
(376,436,o),
(369,412,o),
(340,388,cs),
(322,373,o),
(291,371,o),
(241,371,cs),
(191,371,o),
(161,373,o),
(147,384,cs),
(133,395,o),
(126,417,o),
(122,451,cs),
(114,518,o),
(104,603,o),
(100,700,c),
(10,700,l),
(29,583,o),
(45,467,o),
(58,350,cs),
(71,233,o),
(81,116,o),
(89,0,c)
);
}
);
width = 920;
},
{
anchors = (
{
name = bottom;
pos = (400,0);
},
{
name = hook;
pos = (764,700);
},
{
name = top;
pos = (400,700);
}
);
layerId = "60D037D9-62E9-4843-B070-F1594CB0B0D1";
shapes = (
{
closed = 1;
nodes = (
(289,0,l),
(365,642,o),
(368,664,o),
(400,664,cs),
(432,664,o),
(435,642,o),
(511,0,c),
(668,0,l),
(687,160,o),
(700,261,o),
(713,355,cs),
(727,457,o),
(741,550,o),
(764,700,c),
(730,700,l),
(704,477,o),
(686,332,o),
(674,237,cs),
(653,66,o),
(651,58,o),
(647,52,cs),
(640,41,o),
(631,39,o),
(588,39,cs),
(549,39,o),
(539,43,o),
(533,52,cs),
(527,60,o),
(524,77,o),
(447,700,c),
(353,700,l),
(276,77,o),
(273,60,o),
(267,52,cs),
(261,43,o),
(251,39,o),
(212,39,cs),
(169,39,o),
(160,41,o),
(153,52,cs),
(149,58,o),
(147,66,o),
(126,235,cs),
(114,330,o),
(96,476,o),
(70,700,c),
(36,700,l),
(59,550,o),
(73,457,o),
(87,355,cs),
(100,261,o),
(113,160,o),
(132,0,c)
);
}
);
width = 800;
},
{
anchors = (
{
name = bottom;
pos = (400,0);
},
{
name = hook;
pos = (764,700);
},
{
name = top;
pos = (400,700);
}
);
associatedMasterId = "60D037D9-62E9-4843-B070-F1594CB0B0D1";
layerId = "09676FF0-31B0-4825-927E-198097F326A4";
shapes = (
{
closed = 1;
nodes = (
(289,0,l),
(365,642,o),
(368,664,o),
(400,664,cs),
(432,664,o),
(435,642,o),
(511,0,c),
(668,0,l),
(687,160,o),
(700,261,o),
(713,355,cs),
(727,457,o),
(741,550,o),
(764,700,c),
(730,700,l),
(704,477,o),
(686,332,o),
(674,237,cs),
(653,66,o),
(651,58,o),
(647,52,cs),
(640,41,o),
(631,39,o),
(588,39,cs),
(549,39,o),
(539,43,o),
(533,52,cs),
(527,60,o),
(524,77,o),
(447,700,c),
(353,700,l),
(276,77,o),
(273,60,o),
(267,52,cs),
(261,43,o),
(251,39,o),
(212,39,cs),
(169,39,o),
(160,41,o),
(153,52,cs),
(149,58,o),
(147,66,o),
(126,235,cs),
(114,330,o),
(96,476,o),
(70,700,c),
(36,700,l),
(59,550,o),
(73,457,o),
(87,355,cs),
(100,261,o),
(113,160,o),
(132,0,c)
);
}
);
width = 800;
}
);
metricLeft = A;
metricRight = A;
unicode = 87;
userData = {
KernOnName = W;
};
},
{
glyphname = Whook;
kernLeft = KO_W;
kernRight = KO_Whook;
lastChange = "2025-04-16 10:05:59 +0000";
layers = (
{
layerId = "60D037D9-62E9-4843-B070-F1594CB0B0D1";
shapes = (
{
closed = 1;
nodes = (
(289,0,l),
(365,642,o),
(368,664,o),
(400,664,cs),
(432,664,o),
(435,642,o),
(511,0,c),
(668,0,l),
(687,160,o),
(700,261,o),
(713,355,cs),
(726,448,o),
(735,528,o),
(754,656,cs),
(757,676,o),
(779,680,o),
(815,680,c),
(815,716,l),
(790,718,o),
(770,715,o),
(756,708,cs),
(739,699,o),
(730,684,o),
(727,663,cs),
(700,455,o),
(686,328,o),
(674,237,cs),
(653,66,o),
(651,58,o),
(647,52,cs),
(640,41,o),
(631,39,o),
(588,39,cs),
(549,39,o),
(539,43,o),
(533,52,cs),
(527,60,o),
(524,77,o),
(447,700,c),
(353,700,l),
(276,77,o),
(273,60,o),
(267,52,cs),
(261,43,o),
(251,39,o),
(212,39,cs),
(169,39,o),
(160,41,o),
(153,52,cs),
(149,58,o),
(147,66,o),
(126,235,cs),
(114,330,o),
(96,476,o),
(70,700,c),
(36,700,l),
(59,550,o),
(73,457,o),
(87,355,cs),
(100,261,o),
(113,160,o),
(132,0,c)
);
}
);
width = 835;
},
{
layerId = m01;
shapes = (
{
closed = 1;
nodes = (
(394,0,l),
(418,319,o),
(423,347,o),
(460,347,cs),
(497,347,o),
(502,319,o),
(526,0,c),
(831,0,l),
(839,116,o),
(850,233,o),
(862,350,cs),
(869,418,o),
(878,488,o),
(888,555,cs),
(894,598,o),
(912,602,o),
(975,602,c),
(975,708,l),
(916,713,o),
(878,705,o),
(853,685,cs),
(825,662,o),
(814,621,o),
(810,564,cs),
(807,526,o),
(802,488,o),
(798,450,cs),
(794,417,o),
(787,395,o),
(773,384,cs),
(759,373,o),
(729,371,o),
(679,371,cs),
(629,371,o),
(598,373,o),
(580,388,cs),
(551,412,o),
(544,436,o),
(508,700,c),
(412,700,l),
(376,436,o),
(369,412,o),
(340,388,cs),
(322,373,o),
(291,371,o),
(241,371,cs),
(191,371,o),
(161,373,o),
(147,384,cs),
(133,395,o),
(126,417,o),
(122,451,cs),
(114,518,o),
(104,603,o),
(100,700,c),
(10,700,l),
(29,583,o),
(45,467,o),
(58,350,cs),
(71,233,o),
(81,116,o),
(89,0,c)
);
}
);
width = 987;
},
{
associatedMasterId = "60D037D9-62E9-4843-B070-F1594CB0B0D1";
layerId = "09676FF0-31B0-4825-927E-198097F326A4";
shapes = (
{
closed = 1;
nodes = (
(289,0,l),
(365,642,o),
(368,664,o),
(400,664,cs),
(432,664,o),
(435,642,o),
(511,0,c),
(668,0,l),
(687,160,o),
(700,261,o),
(713,355,cs),
(726,448,o),
(735,528,o),
(754,656,cs),
(757,676,o),
(779,680,o),
(815,680,c),
(815,716,l),
(790,718,o),
(770,715,o),
(756,708,cs),
(739,699,o),
(730,684,o),
(727,663,cs),
(700,455,o),
(686,328,o),
(674,237,cs),
(653,66,o),
(651,58,o),
(647,52,cs),
(640,41,o),
(631,39,o),
(588,39,cs),
(549,39,o),
(539,43,o),
(533,52,cs),
(527,60,o),
(524,77,o),
(447,700,c),
(353,700,l),
(276,77,o),
(273,60,o),
(267,52,cs),
(261,43,o),
(251,39,o),
(212,39,cs),
(169,39,o),
(160,41,o),
(153,52,cs),
(149,58,o),
(147,66,o),
(126,235,cs),
(114,330,o),
(96,476,o),
(70,700,c),
(36,700,l),
(59,550,o),
(73,457,o),
(87,355,cs),
(100,261,o),
(113,160,o),
(132,0,c)
);
}
);
width = 835;
}
);
metricLeft = W;
metricRight = Khook;
unicode = 11378;
},
{
glyphname = X;
kernLeft = KO_X;
kernRight = KO_X;
lastChange = "2025-04-16 10:06:01 +0000";
layers = (
{
anchors = (
{
name = bottom;
pos = (326,0);
},
{
name = top;
pos = (326,700);
}
);
layerId = m01;
shapes = (
{
closed = 1;
nodes = (
(102,0,l),
(119,73,o),
(132,127,o),
(159,152,cs),
(184,175,o),
(228,175,o),
(326,175,cs),
(424,175,o),
(467,175,o),
(492,152,cs),
(519,127,o),
(533,73,o),
(550,0,c),
(652,0,l),
(543,327,o),
(537,345,o),
(537,375,cs),
(537,405,o),
(542,423,o),
(637,700,c),
(538,700,l),
(524,616,o),
(520,600,o),
(494,582,cs),
(474,568,o),
(416,564,o),
(326,564,cs),
(226,564,o),
(178,568,o),
(158,582,cs),
(132,601,o),
(128,616,o),
(114,700,c),
(15,700,l),
(110,423,o),
(115,405,o),
(115,375,cs),
(115,345,o),
(109,327,o),
(0,0,c)
);
}
);
width = 652;
},
{
anchors = (
{
name = bottom;
pos = (281,0);
},
{
name = top;
pos = (281,700);
}
);
layerId = "60D037D9-62E9-4843-B070-F1594CB0B0D1";
shapes = (
{
closed = 1;
nodes = (
(55,0,l),
(132,215,o),
(170,316,o),
(184,330,cs),
(194,340,o),
(205,342,o),
(281,342,cs),
(357,342,o),
(368,340,o),
(378,330,cs),
(392,316,o),
(430,215,o),
(507,0,c),
(544,0,l),
(422,291,o),
(406,331,o),
(406,361,cs),
(406,391,o),
(413,409,o),
(534,700,c),
(498,700,l),
(430,509,o),
(390,405,o),
(381,392,cs),
(373,380,o),
(356,380,o),
(281,380,cs),
(206,380,o),
(189,380,o),
(181,392,cs),
(172,405,o),
(132,509,o),
(64,700,c),
(28,700,l),
(149,409,o),
(156,391,o),
(156,361,cs),
(156,331,o),
(140,291,o),
(18,0,c)
);
}
);
width = 562;
},
{
anchors = (
{
name = bottom;
pos = (281,0);
},
{
name = top;
pos = (281,700);
}
);
associatedMasterId = "60D037D9-62E9-4843-B070-F1594CB0B0D1";
layerId = "09676FF0-31B0-4825-927E-198097F326A4";
shapes = (
{
closed = 1;
nodes = (
(55,0,l),
(132,215,o),
(170,316,o),
(184,330,cs),
(193,339,o),
(205,342,o),
(281,342,cs),
(357,342,o),
(368,340,o),
(378,330,cs),
(392,316,o),
(430,215,o),
(507,0,c),
(544,0,l),
(422,291,o),
(406,331,o),
(406,361,cs),
(406,391,o),
(413,409,o),
(534,700,c),
(498,700,l),
(430,509,o),
(390,405,o),
(381,392,cs),
(373,380,o),
(356,380,o),
(281,380,cs),
(206,380,o),
(189,380,o),
(181,392,cs),
(172,405,o),
(132,509,o),
(64,700,c),
(28,700,l),
(149,409,o),
(156,391,o),
(156,361,cs),
(156,331,o),
(140,291,o),
(18,0,c)
);
}
);
width = 562;
}
);
unicode = 88;
userData = {
KernOnName = X;
};
},
{
glyphname = Y;
kernLeft = KO_Y;
kernRight = KO_Y;
lastChange = "2025-04-16 10:06:03 +0000";
layers = (
{
anchors = (
{
name = bottom;
pos = (251,0);
},
{
name = hook;
pos = (592,700);
},
{
name = top;
pos = (309,700);
},
{
name = topleft;
pos = (16,700);
}
);
layerId = m01;
shapes = (
{
closed = 1;
nodes = (
(289,-10,o),
(387,-9,o),
(455,49,cs),
(505,91,o),
(526,154,o),
(537,236,cs),
(554,365,o),
(570,480,o),
(610,700,c),
(523,700,l),
(520,659,o),
(518,635,o),
(511,613,cs),
(501,581,o),
(478,576,o),
(320,576,cs),
(142,576,o),
(109,581,o),
(99,613,cs),
(92,635,o),
(90,659,o),
(87,700,c),
(0,700,l),
(46,471,o),
(53,433,o),
(71,312,c),
(474,312,l),
(449,273,o),
(395,245,o),
(280,245,cs),
(159,245,o),
(57,276,o),
(35,290,c),
(35,14,l),
(69,-2,o),
(179,-10,o),
(230,-10,cs)
);
}
);
width = 610;
},
{
anchors = (
{
name = bottom;
pos = (224,0);
},
{
name = hook;
pos = (499,700);
},
{
name = top;
pos = (268,700);
},
{
name = topleft;
pos = (37,700);
}
);
layerId = "60D037D9-62E9-4843-B070-F1594CB0B0D1";
shapes = (
{
closed = 1;
nodes = (
(282,-8,o),
(340,9,o),
(371,83,cs),
(390,129,o),
(404,195,o),
(420,295,cs),
(425,325,o),
(479,568,o),
(510,700,c),
(474,700,l),
(449,530,o),
(418,390,o),
(409,364,cs),
(400,338,o),
(391,331,o),
(273,331,cs),
(145,331,o),
(139,338,o),
(130,364,cs),
(121,390,o),
(90,530,o),
(62,700,c),
(26,700,l),
(56,568,o),
(77,481,o),
(122,297,c),
(397,297,l),
(363,81,o),
(331,26,o),
(212,26,cs),
(162,26,o),
(118,47,o),
(96,59,c),
(96,16,l),
(115,8,o),
(171,-8,o),
(212,-8,cs)
);
}
);
width = 534;
},
{
anchors = (
{
name = bottom;
pos = (239,0);
},
{
name = hook;
pos = (514,700);
},
{
name = top;
pos = (296,700);
},
{
name = topleft;
pos = (52,700);
}
);
associatedMasterId = "60D037D9-62E9-4843-B070-F1594CB0B0D1";
background = {
shapes = (
{
closed = 1;
nodes = (
(85,1,o),
(121,-8,o),
(164,-8,cs),
(206,-8,o),
(233,-3,o),
(257,7,cs),
(303,27,o),
(360,53,o),
(415,295,cs),
(422,325,o),
(489,568,o),
(526,700,c),
(490,700,l),
(456,530,o),
(418,390,o),
(408,364,cs),
(398,338,o),
(391,331,o),
(288,331,cs),
(186,331,o),
(180,338,o),
(170,364,cs),
(160,390,o),
(124,530,o),
(90,700,c),
(54,700,l),
(89,568,o),
(113,481,o),
(164,297,c),
(392,297,l),
(359,159,o),
(328,29,o),
(185,29,cs),
(135,29,o),
(87,44,o),
(66,53,c),
(66,7,l)
);
}
);
};
layerId = "CF43000C-FC7D-42E9-9DA5-1DE5854EBEC2";
name = "4 Apr 25 at 22:23";
shapes = (
{
closed = 1;
nodes = (
(109,1,o),
(146,-8,o),
(189,-8,cs),
(231,-8,o),
(257,-3,o),
(281,7,cs),
(325,27,o),
(380,53,o),
(419,295,cs),
(423,325,o),
(473,568,o),
(501,700,c),
(465,700,l),
(443,530,o),
(415,390,o),
(407,364,cs),
(399,338,o),
(392,331,o),
(288,331,cs),
(186,331,o),
(180,338,o),
(170,364,cs),
(160,390,o),
(124,530,o),
(90,700,c),
(54,700,l),
(89,568,o),
(113,481,o),
(164,297,c),
(395,297,l),
(372,159,o),
(350,29,o),
(207,29,cs),
(157,29,o),
(108,44,o),
(86,53,c),
(90,7,l)
);
}
);
width = 544;
},
{
anchors = (
{
name = bottom;
pos = (224,0);
},
{
name = hook;
pos = (499,700);
},
{
name = top;
pos = (268,700);
},
{
name = topleft;
pos = (37,700);
}
);
associatedMasterId = "60D037D9-62E9-4843-B070-F1594CB0B0D1";
layerId = "09676FF0-31B0-4825-927E-198097F326A4";
shapes = (
{
closed = 1;
nodes = (
(282,-8,o),
(340,9,o),
(371,83,cs),
(390,129,o),
(404,195,o),
(420,295,cs),
(425,325,o),
(479,568,o),
(510,700,c),
(474,700,l),
(449,530,o),
(418,390,o),
(409,364,cs),
(400,338,o),
(391,331,o),
(273,331,cs),
(145,331,o),
(139,338,o),
(130,364,cs),
(121,390,o),
(90,530,o),
(62,700,c),
(26,700,l),
(56,568,o),
(77,481,o),
(122,297,c),
(397,297,l),
(363,81,o),
(331,26,o),
(212,26,cs),
(162,26,o),
(118,47,o),
(96,59,c),
(96,16,l),
(115,8,o),
(171,-8,o),
(212,-8,cs)
);
}
);
width = 534;
}
);
unicode = 89;
userData = {
KernOnName = Y;
};
},
{
glyphname = Yhook;
kernLeft = KO_Y;
kernRight = KO_Yhook;
lastChange = "2025-04-16 10:06:55 +0000";
layers = (
{
layerId = "60D037D9-62E9-4843-B070-F1594CB0B0D1";
shapes = (
{
closed = 1;
nodes = (
(282,-8,o),
(340,9,o),
(371,83,cs),
(390,129,o),
(404,195,o),
(420,295,cs),
(424,322,o),
(466,518,o),
(499,655,cs),
(505,680,o),
(533,680,o),
(556,680,c),
(556,716,l),
(534,718,o),
(517,716,o),
(503,710,cs),
(484,702,o),
(474,686,o),
(470,663,cs),
(444,510,o),
(417,388,o),
(409,364,cs),
(400,338,o),
(391,331,o),
(273,331,cs),
(145,331,o),
(139,338,o),
(130,364,cs),
(121,390,o),
(90,530,o),
(62,700,c),
(26,700,l),
(56,568,o),
(77,481,o),
(122,297,c),
(397,297,l),
(363,81,o),
(331,26,o),
(212,26,cs),
(162,26,o),
(118,47,o),
(96,59,c),
(96,16,l),
(115,8,o),
(171,-8,o),
(212,-8,cs)
);
}
);
width = 576;
},
{
layerId = m01;
shapes = (
{
closed = 1;
nodes = (
(289,-10,o),
(387,-9,o),
(455,49,cs),
(505,91,o),
(526,154,o),
(537,236,cs),
(550,335,o),
(562,423,o),
(585,557,cs),
(591,599,o),
(619,604,o),
(660,604,c),
(660,710,l),
(627,713,o),
(598,710,o),
(577,697,cs),
(560,687,o),
(547,671,o),
(540,646,cs),
(538,640,o),
(537,633,o),
(531,613,cs),
(522,581,o),
(498,576,o),
(320,576,cs),
(142,576,o),
(109,581,o),
(99,613,cs),
(92,635,o),
(90,659,o),
(87,700,c),
(0,700,l),
(46,471,o),
(53,433,o),
(71,312,c),
(474,312,l),
(449,273,o),
(395,245,o),
(280,245,cs),
(159,245,o),
(57,276,o),
(35,290,c),
(35,14,l),
(69,-2,o),
(179,-10,o),
(230,-10,cs)
);
}
);
width = 672;
},
{
associatedMasterId = "60D037D9-62E9-4843-B070-F1594CB0B0D1";
layerId = "09676FF0-31B0-4825-927E-198097F326A4";
shapes = (
{
closed = 1;
nodes = (
(282,-8,o),
(340,9,o),
(371,83,cs),
(390,129,o),
(404,195,o),
(420,295,cs),
(424,322,o),
(466,518,o),
(499,655,cs),
(505,680,o),
(533,680,o),
(556,680,c),
(556,716,l),
(534,718,o),
(517,716,o),
(503,710,cs),
(484,702,o),
(474,686,o),
(470,663,cs),
(444,510,o),
(417,388,o),
(409,364,cs),
(400,338,o),
(391,331,o),
(273,331,cs),
(145,331,o),
(139,338,o),
(130,364,cs),
(121,390,o),
(90,530,o),
(62,700,c),
(26,700,l),
(56,568,o),
(77,481,o),
(122,297,c),
(397,297,l),
(363,81,o),
(331,26,o),
(212,26,cs),
(162,26,o),
(118,47,o),
(96,59,c),
(96,16,l),
(115,8,o),
(171,-8,o),
(212,-8,cs)
);
}
);
width = 576;
}
);
metricLeft = Y;
metricRight = Khook;
unicode = 435;
userData = {
KernOnName = Yhook;
};
},
{
glyphname = Ystroke;
kernLeft = KO_Ystroke;
kernRight = KO_Ystroke;
lastChange = "2025-04-16 11:31:43 +0000";
layers = (
{
layerId = "60D037D9-62E9-4843-B070-F1594CB0B0D1";
shapes = (
{
closed = 1;
nodes = (
(199,592,o),
(199,592,o),
(281,592,cs),
(363,592,o),
(363,592,o),
(538,589,c),
(538,624,l),
(363,621,o),
(363,621,o),
(281,621,cs),
(199,621,o),
(199,621,o),
(24,624,c),
(24,589,l)
);
},
{
pos = (14,0);
ref = Y;
}
);
width = 562;
},
{
layerId = m01;
shapes = (
{
closed = 1;
nodes = (
(143,615,o),
(162,615,o),
(363,615,cs),
(564,615,o),
(583,615,o),
(716,612,c),
(716,668,l),
(583,665,o),
(564,665,o),
(363,665,cs),
(162,665,o),
(143,665,o),
(10,668,c),
(10,612,l)
);
},
{
pos = (56,0);
ref = Y;
}
);
width = 726;
},
{
associatedMasterId = "60D037D9-62E9-4843-B070-F1594CB0B0D1";
layerId = "09676FF0-31B0-4825-927E-198097F326A4";
shapes = (
{
closed = 1;
nodes = (
(199,592,o),
(199,592,o),
(281,592,cs),
(363,592,o),
(363,592,o),
(538,589,c),
(538,624,l),
(363,621,o),
(363,621,o),
(281,621,cs),
(199,621,o),
(199,621,o),
(24,624,c),
(24,589,l)
);
},
{
pos = (14,0);
ref = Y;
}
);
width = 562;
}
);
unicode = 590;
},
